<svg enable-background="new 0 0 532 153.8" viewBox="0 0 532 153.8" xmlns="http://www.w3.org/2000/svg"><g fill="#fff"><path d="m258 143.1h-7v-30.3h9.4l8.6 22.2 8.5-22.3h9.5v30.3h-7v-21.7l-8.4 21.7h-5.4l-8.4-21.7v21.8z"/><path d="m314.4 132.2c0 6.9-4.9 11.8-12.1 11.8s-12.1-4.8-12.1-11.8 4.9-11.8 12.1-11.8 12.1 4.8 12.1 11.8zm-6.4 0c0-3.6-2.3-6.1-5.7-6.1s-5.7 2.6-5.7 6.1 2.3 6.1 5.7 6.1 5.7-2.5 5.7-6.1z"/><path d="m317.6 126.1h-3.1v-4.9h3.4l.7-5.5h5.4v5.5h5v4.9h-5v9.2c-.2 1.5 1 2.9 2.5 3.1h.4c.8 0 1.5-.1 2.3-.3v5.2c-1.4.4-2.9.7-4.4.7-4.4 0-7.2-3.3-7.2-7.9z"/><path d="m354.8 132.2c0 6.9-4.9 11.8-12.1 11.8s-12.1-4.8-12.1-11.8 4.9-11.8 12.1-11.8 12.1 4.8 12.1 11.8zm-6.4 0c0-3.6-2.3-6.1-5.7-6.1s-5.7 2.6-5.7 6.1 2.3 6.1 5.7 6.1 5.7-2.5 5.7-6.1z"/><path d="m363.4 121.3v2.7c1.2-2.1 3.4-3.5 5.8-3.6.9 0 1.8.2 2.6.6v5.7c-1.1-.5-2.3-.7-3.6-.8-2.8 0-4.6 2.3-4.6 5.6v11.5h-6.4v-21.8h6.2z"/><path d="m373.4 114.7c0-2 1.6-3.7 3.6-3.8 2 0 3.7 1.6 3.8 3.6 0 2-1.6 3.7-3.6 3.8h-.1c-1.9.1-3.6-1.4-3.7-3.3 0 0 0-.1 0-.3zm6.9 6.6v21.8h-6.4v-21.8z"/><path d="m384.9 112.7h11.4c10.5 0 17.5 6.1 17.5 15.2s-7 15.2-17.5 15.2h-11.4zm11.4 5.6h-4.4v19.2h4.4c6.2 0 10.4-3.7 10.4-9.6s-4.2-9.6-10.4-9.6z"/><path d="m416.4 114.7c0-2 1.6-3.7 3.6-3.8 2 0 3.7 1.6 3.8 3.6 0 2-1.6 3.7-3.6 3.8h-.1c-1.9.1-3.6-1.4-3.7-3.3 0 0 0-.1 0-.3zm7 6.6v21.8h-6.4v-21.8z"/><path d="m443.9 142.7v-2.6c-1.8 2.2-4.4 3.4-7.2 3.3-6 0-10.4-4.6-10.4-11.2 0-6.9 4.4-11.7 10.4-11.7 2.8-.1 5.5 1.2 7.2 3.4v-2.6h6.4v21.6c0 6.8-4.8 10.9-11.7 10.9-6 0-10.8-3.7-11.4-8.7l5.7-.6c.6 2.5 2.9 4.3 5.5 4.3 3.1-.1 5.5-2.3 5.5-6.1zm.2-10.5c0-3.5-2.4-6.1-5.7-6.1s-5.7 2.6-5.7 6.1c-.2 3.2 2.2 5.9 5.4 6 3.2.2 5.9-2.2 6-5.4 0-.2 0-.4 0-.6z"/><path d="m453.7 114.7c0-2 1.6-3.7 3.6-3.8 2 0 3.7 1.6 3.8 3.6 0 2-1.6 3.7-3.6 3.8h-.1c-1.9.1-3.6-1.4-3.7-3.3 0 0 0-.1 0-.3zm6.9 6.6v21.8h-6.4v-21.8z"/><path d="m466.1 126.1h-3.1v-4.9h3.4l.7-5.5h5.4v5.5h4.9v4.9h-4.9v9.2c-.2 1.5 1 2.9 2.5 3.1h.4c.8 0 1.5-.1 2.3-.3v5.2c-1.4.4-2.9.7-4.4.7-4.4 0-7.2-3.3-7.2-7.9z"/><path d="m503.4 121.3v21.8h-6.4v-3c-1.7 2.5-4.5 3.9-7.4 3.9-6.1 0-10.4-4.9-10.4-11.8s4.3-11.8 10.4-11.8c3 0 5.8 1.4 7.4 3.9v-3zm-6.4 10.9c0-3.5-2.4-6.1-5.7-6.1s-5.7 2.6-5.7 6.1 2.4 6.1 5.7 6.1 5.7-2.6 5.7-6.1z"/><path d="m513.2 111.5v31.6h-6.4v-31.6z"/><path d="m516.6 114.7c0-2 1.6-3.7 3.6-3.8 2 0 3.7 1.6 3.8 3.6 0 2-1.6 3.7-3.6 3.8h-.1c-1.9.1-3.6-1.4-3.7-3.3 0 0 0-.1 0-.3zm6.9 6.6v21.8h-6.4v-21.8z"/><path d="m524 65.6v-27.3h-21.8v27.4h-111.5v10.2h111.6v27.4h21.7v-27.5h8v-10.2zm-21.7 10.2v-10.2h8v10.2z"/><path d="m122.8 0h-32.5l-25.1 65.6h-7.8l-25.4-65.6h-32v65.7h8v10.2h-8v27.4h23.8v-27.5h8v-10.2h-8v-36.2l14 36.2h8l3.9 10.2h-8l10.5 27.4h18.2l10.6-27.4h8l4-10.2h-8l14-36.2v36.2h8v10.2h-8v27.4h23.8v-27.4h8v-10.2h-8zm-53.5 75.8-3.9-10.2h7.8z"/><path d="m261.9 24.5c7.4 0 12.6-5.1 12.6-12.3s-5.2-12.2-12.6-12.2-12.6 5.1-12.6 12.2 5.2 12.3 12.6 12.3z"/><path d="m378.7 51.6c0-31-23.8-51.6-59.4-51.6h-38.7v65.7h-7.8v-27.4h-21.8v27.4h-111.6v10.2h111.6v27.4h21.7v-27.5h7.8v27.4h38.7c25.3 0 44.5-10.3 53.6-27.4h8c1.7-3.2 3.1-6.6 4-10.2h-8c1.3-4.5 1.9-9.3 1.9-14zm-127.7 24.2v-10.2h8v10.2zm29.8 0v-10.2h7.8v10.2zm71.5 0h-8c-6.1 5.4-14.8 8.4-25 8.4h-14.9v-8.4h8v-10.2h-8v-46.6h14.9c21 0 35.2 12.6 35.2 32.6.1 4.8-.9 9.6-2.8 14.1h8c-1.7 3.8-4.2 7.3-7.4 10.1z"/><path d="m513.1 24.5c7.4 0 12.6-5.1 12.6-12.3s-5.2-12.2-12.6-12.2-12.6 5.1-12.6 12.2 5.2 12.3 12.6 12.3z"/></g></svg>