<?xml version="1.0" standalone="no"?>
<!DOCTYPE svg PUBLIC "-//W3C//DTD SVG 1.1//EN" "http://www.w3.org/Graphics/SVG/1.1/DTD/svg11.dtd" >
<svg xmlns="http://www.w3.org/2000/svg" xmlns:xlink="http://www.w3.org/1999/xlink" version="1.1">
<metadata>
Created by FontForge 20170731 at Mon Dec 25 17:57:06 2017
 By Aleksey,,,
    Copyright (c) 2017 by Alexander Slobzheninov. All rights reserved.


</metadata>
<defs>
<font id="Objective-Light" horiz-adv-x="604" >
  <font-face 
    font-family="Objective Light"
    font-weight="300"
    font-stretch="normal"
    units-per-em="1000"
    panose-1="0 0 0 0 0 0 0 0 0 0"
    ascent="800"
    descent="-200"
    x-height="503"
    cap-height="703"
    bbox="-52 -280 1438 995"
    underline-thickness="50"
    underline-position="-225"
    unicode-range="U+000D-F6C3"
  />
<missing-glyph horiz-adv-x="500" 
 />
    <glyph glyph-name=".notdef" horiz-adv-x="500" 
 />
    <glyph glyph-name=".null" horiz-adv-x="0" 
 />
    <glyph glyph-name="nonmarkingreturn" horiz-adv-x="333" 
 />
    <glyph glyph-name="NULL" horiz-adv-x="713" 
d="M620 703v-703h-527v703h527zM144 47h425v608h-425v-608z" />
    <glyph glyph-name="NULL" horiz-adv-x="713" 
d="M620 703v-703h-527v703h527zM144 47h425v608h-425v-608z" />
    <glyph glyph-name="CR" unicode="&#xd;" horiz-adv-x="30" 
 />
    <glyph glyph-name="space" unicode=" " horiz-adv-x="304" 
 />
    <glyph glyph-name="exclam" unicode="!" horiz-adv-x="207" 
d="M103 -11q-18 0 -30 11.5t-12 30.5q0 17 12 29t30 12q19 0 30.5 -11.5t11.5 -29.5q0 -19 -11.5 -30.5t-30.5 -11.5zM133 703v-183l-10 -323h-40l-9 323v183h59z" />
    <glyph glyph-name="quotedbl" unicode="&#x22;" horiz-adv-x="301" 
d="M101 566l-3 -174h-43l-4 174v136h50v-136zM250 566l-4 -174h-43l-4 174v136h51v-136z" />
    <glyph glyph-name="numbersign" unicode="#" horiz-adv-x="948" 
d="M846 244h-268l-65 -244h-51l65 244h-193l-66 -244h-51l66 244h-232v45h244l48 180h-242v45h254l60 222h51l-60 -222h192l60 222h51l-59 -222h246l1 -45h-260l-48 -180h258zM346 289h193l48 180h-193z" />
    <glyph glyph-name="dollar" unicode="$" horiz-adv-x="696" 
d="M374 -25v-97h-56v99q-111 11 -180.5 79.5t-69.5 168.5h59q0 -86 64.5 -141t165.5 -55q95 0 153 45.5t58 119.5q0 25 -7.5 44.5t-25 33t-34 22t-47.5 15.5t-50.5 10t-57.5 8q-49 6 -79 11.5t-70 19t-62 31.5t-38.5 50t-16.5 75q0 88 65.5 147.5t172.5 65.5v93h56v-94
q106 -10 174 -74.5t68 -157.5l-57 -1q0 79 -62 130t-157 51q-90 -1 -145.5 -44t-55.5 -111q0 -30 13 -53t30.5 -35.5t51.5 -22.5t58.5 -14t69.5 -10q42 -6 66 -10t59.5 -13t56.5 -21.5t42.5 -31t31 -46t9.5 -62.5q0 -95 -69.5 -157.5t-183.5 -67.5z" />
    <glyph glyph-name="percent" unicode="%" horiz-adv-x="1017" 
d="M563 191q0 88 56.5 144.5t145.5 56.5t145 -56t56 -145t-56 -145t-145 -56t-145.5 56.5t-56.5 144.5zM911 191q0 64 -41 104.5t-105 40.5t-105 -40.5t-41 -104.5q0 -63 41 -104t105 -41t105 41t41 104zM51 542q0 88 57 144.5t145 56.5t145 -56.5t57 -144.5
q0 -89 -56.5 -145t-145.5 -56t-145.5 56.5t-56.5 144.5zM399 542q0 64 -40.5 104t-104.5 40q-65 0 -106 -40t-41 -104t41 -104.5t106 -40.5q64 0 104.5 40.5t40.5 104.5zM724 733h67l-497 -733h-67z" />
    <glyph glyph-name="ampersand" unicode="&#x26;" horiz-adv-x="779" 
d="M292 385q29 -26 123 -111t120 -109q46 66 82 175h57q-41 -127 -100 -210q130 -118 144 -130h-82l-98 88q-100 -113 -236 -113q-101 0 -167 55.5t-66 141.5q0 77 41.5 124t114.5 79q-83 87 -83 170q1 75 54 124t135 49q77 0 130.5 -47.5t64.5 -122.5l-55 -10
q-8 56 -45.5 91.5t-92.5 35.5q-59 0 -96 -34t-37 -88q0 -73 92 -158zM499 123q-128 117 -234 215q-66 -27 -102 -65t-36 -99q0 -63 51 -104t129 -41q111 0 192 94z" />
    <glyph glyph-name="quotesingle" unicode="'" horiz-adv-x="152" 
d="M101 566l-3 -174h-43l-4 174v137h50v-137z" />
    <glyph glyph-name="parenleft" unicode="(" horiz-adv-x="319" 
d="M282 -180h-62q-71 71 -115 197.5t-44 262.5q0 135 44 261.5t115 197.5h62q-78 -77 -124 -200.5t-46 -258.5q0 -138 46 -261.5t124 -198.5z" />
    <glyph glyph-name="parenright" unicode=")" horiz-adv-x="319" 
d="M99 -180h-63q78 75 124 198.5t46 261.5q0 135 -46 258.5t-124 200.5h63q71 -71 115 -197.5t44 -261.5q0 -136 -44 -262.5t-115 -197.5z" />
    <glyph glyph-name="asterisk" unicode="*" horiz-adv-x="505" 
d="M454 392l-22 -39l-158 92l1 -182h-45l1 182l-158 -92l-22 39l159 91l-159 90l22 39l158 -92l-1 183h45l-1 -183l158 92l22 -39l-159 -90z" />
    <glyph glyph-name="plus" unicode="+" horiz-adv-x="572" 
d="M313 90h-55v201h-207v52h207v187h56v-187h207v-52h-208v-201z" />
    <glyph glyph-name="comma" unicode="," horiz-adv-x="192" 
d="M95 -11q-19 0 -30.5 11.5t-11.5 29.5t11.5 29.5t29.5 11.5q21 0 34 -15.5t13 -40.5q0 -42 -18 -81t-46 -57l-26 22q19 13 31.5 38.5t12.5 51.5z" />
    <glyph glyph-name="hyphen" unicode="-" horiz-adv-x="512" 
d="M51 340h410v-52h-410v52z" />
    <glyph glyph-name="period" unicode="." horiz-adv-x="185" 
d="M93 -11q-19 0 -30.5 11.5t-11.5 30.5q0 17 11.5 29t30.5 12q18 0 30 -11.5t12 -29.5q0 -19 -12 -30.5t-30 -11.5z" />
    <glyph glyph-name="slash" unicode="/" horiz-adv-x="430" 
d="M338 703h56l-302 -933h-56z" />
    <glyph glyph-name="zero" unicode="0" horiz-adv-x="723" 
d="M361 -25q-128 0 -209 106t-81 270t81 270.5t209 106.5t209.5 -106.5t81.5 -270.5t-81.5 -270t-209.5 -106zM361 674q-102 0 -166.5 -91t-64.5 -232t64.5 -231.5t166.5 -90.5t167 90.5t65 231.5t-65 232t-167 91z" />
    <glyph glyph-name="one" unicode="1" horiz-adv-x="362" 
d="M201 0v621l-166 -132v72l180 142h45v-703h-59z" />
    <glyph glyph-name="two" unicode="2" horiz-adv-x="594" 
d="M125 497l-56 11q12 96 78.5 158t156.5 62q95 0 157 -63t62 -159q0 -71 -33 -124t-111 -126l-210 -202h344v-54h-441v37l278 268q57 55 85.5 100.5t28.5 100.5q0 73 -45 120.5t-114 47.5t-119.5 -49t-60.5 -128z" />
    <glyph glyph-name="three" unicode="3" horiz-adv-x="620" 
d="M422 649h-322v54h410v-40l-204 -227q105 0 174.5 -62t69.5 -166q0 -101 -68.5 -167t-174.5 -66q-99 0 -169.5 66t-77.5 166l53 9q8 -81 62 -134t130 -53q81 0 134 50.5t53 128.5t-53.5 128.5t-135.5 50.5q-48 0 -75 -16l-19 42z" />
    <glyph glyph-name="four" unicode="4" horiz-adv-x="571" 
d="M29 188v38l305 477h88v-461h88v-54h-88v-188h-59v188h-334zM363 242v406l-257 -406h257z" />
    <glyph glyph-name="five" unicode="5" horiz-adv-x="627" 
d="M286 389h-159l31 314h347v-54h-298l-19 -206h102q119 0 193.5 -65.5t74.5 -168.5q0 -102 -68.5 -168t-174.5 -66q-100 0 -169.5 65t-77.5 166l54 10q6 -81 60 -134t132 -53q81 0 133.5 50.5t52.5 128.5q0 79 -59.5 130t-154.5 51z" />
    <glyph glyph-name="six" unicode="6" horiz-adv-x="593" 
d="M102 373l256 330h73l-201 -257q41 18 85 18q99 -1 163 -69t64 -172q0 -108 -68.5 -178t-173.5 -70q-109 0 -179 69t-70 175q0 38 14.5 81.5t36.5 72.5zM301 29q79 0 130.5 55t51.5 139q0 82 -51.5 135t-130.5 53q-83 1 -137 -52.5t-54 -135.5q0 -85 54 -139.5t137 -54.5z
" />
    <glyph glyph-name="seven" unicode="7" horiz-adv-x="509" 
d="M488 666l-280 -666h-64l273 649h-402v54h473v-37z" />
    <glyph glyph-name="eight" unicode="8" horiz-adv-x="659" 
d="M330 728q99 0 163.5 -52t64.5 -133q0 -61 -37 -107t-96 -60q72 -14 117.5 -68t45.5 -125q0 -91 -72.5 -149.5t-185.5 -58.5t-186 58.5t-73 149.5q0 71 45.5 125t117.5 68q-59 14 -96 60t-37 107q0 81 64.5 133t164.5 52zM330 347q-85 0 -140.5 -45t-55.5 -115
t55.5 -115.5t140.5 -45.5t140 45.5t55 115.5t-55 115t-140 45zM330 674q-74 0 -122 -38.5t-48 -97.5t48 -98t122 -39q73 0 121 39t48 98t-47.5 97.5t-121.5 38.5z" />
    <glyph glyph-name="nine" unicode="9" horiz-adv-x="593" 
d="M491 330l-256 -330h-73l201 257q-38 -18 -85 -18q-99 0 -163 68t-64 173q0 108 68.5 177.5t173.5 69.5q109 0 179 -68.5t70 -174.5q0 -39 -14.5 -82.5t-36.5 -71.5zM292 674q-80 -1 -131 -55.5t-51 -138.5q0 -82 51.5 -135.5t130.5 -53.5q83 0 137 53.5t54 135.5
q0 84 -54 139t-137 55z" />
    <glyph glyph-name="colon" unicode=":" horiz-adv-x="185" 
d="M93 -11q-19 0 -30.5 11.5t-11.5 30.5q0 17 11.5 29t30.5 12q18 0 30 -11.5t12 -29.5q0 -19 -12 -30.5t-30 -11.5zM93 392q-19 0 -30.5 11.5t-11.5 30.5q0 18 11.5 29.5t30.5 11.5q18 0 30 -11.5t12 -29.5q0 -19 -12 -30.5t-30 -11.5z" />
    <glyph glyph-name="semicolon" unicode=";" horiz-adv-x="192" 
d="M93 392q-19 0 -30.5 11.5t-11.5 30.5q0 18 11.5 29.5t30.5 11.5q18 0 30 -11.5t12 -29.5q0 -19 -12 -30.5t-30 -11.5zM95 -11q-19 0 -30.5 11.5t-11.5 29.5t11.5 29.5t29.5 11.5q21 0 34 -15.5t13 -40.5q0 -42 -18 -81t-46 -57l-26 22q19 13 31.5 38.5t12.5 51.5z" />
    <glyph glyph-name="less" unicode="&#x3c;" horiz-adv-x="470" 
d="M84 251l324 -196v-55l-372 225v52l372 226v-56z" />
    <glyph glyph-name="equal" unicode="=" horiz-adv-x="572" 
d="M51 216h470v-52h-470v52zM51 467h470v-52h-470v52z" />
    <glyph glyph-name="greater" unicode="&#x3e;" horiz-adv-x="469" 
d="M433 277v-52l-372 -225v55l324 196l-324 196v56z" />
    <glyph glyph-name="question" unicode="?" horiz-adv-x="586" 
d="M282 -12q-18 0 -30 11.5t-12 30.5q0 18 12 30t30 12q19 0 30.5 -12t11.5 -30t-11.5 -30t-30.5 -12zM310 170h-56q0 77 25.5 118.5t86.5 81.5q25 17 38 27t30 28t24.5 39t7.5 48q0 69 -48 115.5t-121 46.5q-75 0 -122.5 -50.5t-57.5 -132.5l-56 11q12 100 76 163t161 63
t162 -62t65 -154q0 -35 -9 -62.5t-30 -50t-38 -36t-50 -35.5q-50 -32 -69 -64t-19 -94z" />
    <glyph glyph-name="at" unicode="@" horiz-adv-x="1015" 
d="M507 645q-170 0 -281 -109t-111 -276q0 -166 102.5 -274t260.5 -108q82 0 138 36v-54q-59 -31 -138 -31q-180 0 -298.5 122.5t-118.5 308.5q0 189 126 312t320 123q195 0 321 -123t126 -312q0 -120 -40.5 -193.5t-114.5 -73.5q-52 0 -85 38t-35 111q-21 -45 -71 -72.5
t-112 -27.5q-90 0 -148 62t-58 156q0 96 61.5 158t156.5 62q94 0 155.5 -59t61.5 -150v-127q0 -49 20 -76.5t53 -27.5q50 0 75.5 61t25.5 159q0 168 -110.5 276.5t-281.5 108.5zM670 259q0 77 -44.5 124t-117.5 47q-72 0 -117 -47.5t-45 -123.5q0 -74 45 -120.5t117 -46.5
q70 0 116 47t46 120z" />
    <glyph glyph-name="A" unicode="A" horiz-adv-x="674" 
d="M88 0h-63l270 703h83l270 -703h-62l-59 151h-381zM163 200h348l-174 449z" />
    <glyph glyph-name="B" unicode="B" horiz-adv-x="676" 
d="M368 0h-275v703h280q92 0 152 -50.5t60 -127.5q0 -54 -34.5 -95.5t-89.5 -55.5q63 -13 103.5 -61.5t40.5 -113.5q0 -86 -67 -142.5t-170 -56.5zM546 201q0 64 -52 105t-132 41h-210v-293h210q80 0 132 41.5t52 105.5zM368 649h-216v-248h216q69 0 113.5 34.5t44.5 88.5
q0 55 -44.5 90t-113.5 35z" />
    <glyph glyph-name="C" unicode="C" horiz-adv-x="821" 
d="M429 29q99 0 176 58t98 145l56 -12q-24 -105 -117 -175t-213 -70q-160 0 -264 106t-104 270t104 270.5t264 106.5q120 0 213 -73t117 -183l-58 -8q-20 90 -97 150t-175 60q-135 0 -222 -91t-87 -232q0 -140 87.5 -231t221.5 -91z" />
    <glyph glyph-name="D" unicode="D" horiz-adv-x="759" 
d="M93 0v703h195q184 0 297 -97t113 -255t-112.5 -254.5t-297.5 -96.5h-195zM639 351q0 135 -96.5 216.5t-254.5 81.5h-136v-595h136q158 0 254.5 81t96.5 216z" />
    <glyph glyph-name="E" unicode="E" horiz-adv-x="635" 
d="M151 339v-285h428v-54h-486v703h476v-54h-418v-258h378v-52h-378z" />
    <glyph glyph-name="F" unicode="F" horiz-adv-x="568" 
d="M467 298h-315v-298h-59v703h434v-54h-375v-300h315v-51z" />
    <glyph glyph-name="G" unicode="G" horiz-adv-x="861" 
d="M436 29q131 0 217.5 86.5t86.5 218.5h-305v51h364q11 -178 -91.5 -294t-271.5 -116q-163 0 -269 106t-106 270t106 270.5t269 106.5q121 0 215 -70.5t116 -179.5l-55 -10q-23 89 -101 147.5t-175 58.5q-138 0 -227 -91t-89 -232q0 -139 89 -230.5t227 -91.5z" />
    <glyph glyph-name="H" unicode="H" horiz-adv-x="719" 
d="M151 0h-59v703h59v-310h417v310h59v-703h-59v339h-417v-339z" />
    <glyph glyph-name="I" unicode="I" horiz-adv-x="245" 
d="M93 703h59v-703h-59v703z" />
    <glyph glyph-name="J" unicode="J" horiz-adv-x="453" 
d="M301 211v492h59l1 -492q0 -107 -57 -169t-147 -62q-59 0 -122 20v53q63 -19 115 -19q68 0 110 46t41 131z" />
    <glyph glyph-name="K" unicode="K" horiz-adv-x="583" 
d="M93 0v703h59v-306l316 306h80l-346 -332l354 -371h-78l-326 345v-345h-59z" />
    <glyph glyph-name="L" unicode="L" horiz-adv-x="566" 
d="M531 0h-438v703h59v-649h379v-54z" />
    <glyph glyph-name="M" unicode="M" horiz-adv-x="921" 
d="M152 626v-626h-59v703h85l282 -625l282 625h86v-703h-59v627l-283 -627h-51z" />
    <glyph glyph-name="N" unicode="N" horiz-adv-x="722" 
d="M171 703l399 -630v630h59v-703h-78l-399 629v-629h-59v703h78z" />
    <glyph glyph-name="O" unicode="O" horiz-adv-x="872" 
d="M436 -25q-164 0 -269.5 106t-105.5 270t105.5 270.5t269.5 106.5q163 0 269 -106.5t106 -270.5t-105.5 -270t-269.5 -106zM436 674q-138 0 -227 -91t-89 -232q0 -140 89 -231t227 -91t227 91t89 231q0 141 -89 232t-227 91z" />
    <glyph glyph-name="P" unicode="P" horiz-adv-x="655" 
d="M329 232h-178v-232h-58v703h236q122 0 198.5 -66t76.5 -170t-76.5 -169.5t-198.5 -65.5zM323 649h-172v-362h172q99 0 161 50t61 130q0 81 -61.5 131.5t-160.5 50.5z" />
    <glyph glyph-name="Q" unicode="Q" horiz-adv-x="872" 
d="M811 351q0 -99 -41 -180t-113 -131l123 -150h-72l-101 123q-78 -38 -171 -38q-164 0 -269.5 106t-105.5 270t105.5 270.5t269.5 106.5q163 0 269 -106.5t106 -270.5zM436 674q-138 0 -227 -91t-89 -232q0 -140 89 -231t227 -91q137 0 226.5 91t89.5 231q0 141 -89 232
t-227 91z" />
    <glyph glyph-name="R" unicode="R" horiz-adv-x="708" 
d="M152 0h-59v703h301q110 0 179.5 -60.5t69.5 -156.5q0 -78 -50 -134t-131 -71l181 -281h-70l-172 273l-249 -1v-272zM391 649h-239v-323h239q86 0 139.5 44.5t53.5 115.5q0 74 -53.5 118.5t-139.5 44.5z" />
    <glyph glyph-name="S" unicode="S" horiz-adv-x="696" 
d="M627 200q0 -100 -75 -162.5t-197 -62.5q-125 0 -206 70.5t-81 179.5h59q0 -86 64.5 -141t165.5 -55q95 0 153 45.5t58 119.5q0 25 -7.5 44.5t-25 33t-34 22t-47.5 15.5t-50.5 10t-57.5 8q-49 6 -79 11.5t-70 19t-62 31.5t-38.5 50t-16.5 75q0 93 72.5 153.5t188.5 60.5
q119 0 197 -66.5t78 -167.5l-57 -1q0 79 -62 130t-157 51q-90 -1 -145.5 -44t-55.5 -111q0 -30 13 -53t30.5 -35.5t51.5 -22.5t58.5 -14t69.5 -10q42 -6 66 -10t59.5 -13t56.5 -21.5t42.5 -31t31 -46t9.5 -62.5z" />
    <glyph glyph-name="T" unicode="T" horiz-adv-x="585" 
d="M263 0v649h-242v54h543v-54h-242v-649h-59z" />
    <glyph glyph-name="U" unicode="U" horiz-adv-x="723" 
d="M579 283v420h59v-420q0 -136 -77 -222t-199 -86q-123 0 -200 85.5t-77 222.5v420h59v-420q0 -111 60 -182.5t158 -71.5t157.5 70t59.5 184z" />
    <glyph glyph-name="V" unicode="V" horiz-adv-x="669" 
d="M25 703h63l247 -654l246 654h63l-267 -703h-85z" />
    <glyph glyph-name="W" unicode="W" horiz-adv-x="1030" 
d="M558 703l179 -656l193 656h60l-208 -703h-90l-177 638l-176 -638h-92l-208 703h61l193 -656l181 656h84z" />
    <glyph glyph-name="X" unicode="X" horiz-adv-x="648" 
d="M35 0l244 371l-235 332h72l207 -294l210 294h71l-238 -332l247 -371h-71l-220 332l-217 -332h-70z" />
    <glyph glyph-name="Y" unicode="Y" horiz-adv-x="605" 
d="M273 0v275l-248 428h66l212 -370l210 370h67l-248 -428v-275h-59z" />
    <glyph glyph-name="Z" unicode="Z" horiz-adv-x="627" 
d="M39 39l457 612h-447v52h529v-39l-456 -613h466v-51h-549v39z" />
    <glyph glyph-name="bracketleft" unicode="[" horiz-adv-x="442" 
d="M147 687v-822h258v-45h-312v913h312v-46h-258z" />
    <glyph glyph-name="backslash" unicode="\" horiz-adv-x="430" 
d="M92 703l302 -933h-56l-302 933h56z" />
    <glyph glyph-name="bracketright" unicode="]" horiz-adv-x="442" 
d="M349 -180h-312l-1 45h259v822h-259v46h313v-913z" />
    <glyph glyph-name="asciicircum" unicode="^" horiz-adv-x="571" 
d="M286 664l-182 -264h-59l209 303h63l209 -303h-59z" />
    <glyph glyph-name="underscore" unicode="_" horiz-adv-x="500" 
d="M0 0h500v-49h-500v49z" />
    <glyph glyph-name="grave" unicode="`" horiz-adv-x="284" 
d="M51 732l64 1l118 -163h-60z" />
    <glyph glyph-name="a" unicode="a" horiz-adv-x="666" 
d="M526 503h55v-503h-55v108q-30 -59 -86.5 -93.5t-128.5 -34.5q-113 0 -186.5 76.5t-73.5 194.5t73.5 195t186.5 77q72 0 128.5 -34.5t86.5 -94.5v109zM316 31q90 0 150 62.5t60 157.5t-60 157.5t-150 62.5q-92 0 -151 -62t-59 -158q0 -95 59.5 -157.5t150.5 -62.5z" />
    <glyph glyph-name="b" unicode="b" horiz-adv-x="664" 
d="M613 251q0 -118 -73.5 -194.5t-186.5 -76.5q-72 0 -128 34t-87 93v-107h-54v733h56v-336q30 59 86 92.5t127 33.5q113 0 186.5 -77t73.5 -195zM348 469q-91 0 -150.5 -61.5t-59.5 -156.5t59.5 -156t150.5 -61t150.5 61.5t59.5 155.5q0 95 -59.5 156.5t-150.5 61.5z" />
    <glyph glyph-name="c" unicode="c" horiz-adv-x="603" 
d="M312 523q88 0 155.5 -51t83.5 -130l-54 -8q-15 61 -67 100t-117 39q-89 0 -148 -62.5t-59 -159.5q0 -96 58.5 -158.5t147.5 -62.5q67 0 118.5 37t66.5 95l55 -8q-18 -76 -85.5 -125t-154.5 -49q-113 0 -187 76.5t-74 194.5t74 195t187 77z" />
    <glyph glyph-name="d" unicode="d" horiz-adv-x="664" 
d="M51 251q0 118 73.5 195t186.5 77q71 0 127.5 -33.5t86.5 -92.5v336h55v-733h-54v107q-31 -59 -87 -93t-128 -34q-113 0 -186.5 76.5t-73.5 194.5zM316 469q-91 0 -150.5 -61.5t-59.5 -156.5q0 -94 59.5 -155.5t150.5 -61.5t150.5 61t59.5 156t-59.5 156.5t-150.5 61.5z
" />
    <glyph glyph-name="e" unicode="e" horiz-adv-x="633" 
d="M51 254q0 117 76 193t193 76q115 0 188.5 -76t73.5 -193v-21h-475q6 -89 65 -145.5t147 -56.5q65 0 120 36.5t74 91.5l54 -9q-24 -74 -93.5 -122t-152.5 -48q-118 0 -194 77.5t-76 196.5zM108 283h417q-8 83 -65.5 135.5t-141.5 52.5q-85 0 -143.5 -52.5t-66.5 -135.5z
" />
    <glyph glyph-name="f" unicode="f" horiz-adv-x="361" 
d="M186 615v-112h134v-48h-134v-455h-55v455h-86v48h86v116q0 63 33.5 98.5t88.5 35.5q39 0 73 -12v-49q-31 9 -63 9q-35 0 -56 -22t-21 -64z" />
    <glyph glyph-name="g" unicode="g" horiz-adv-x="664" 
d="M323 -199q89 0 145 56t56 147v102q-32 -58 -87 -90.5t-125 -32.5q-114 0 -187.5 76t-73.5 192q0 118 73.5 194.5t187.5 76.5q70 0 125.5 -33t87.5 -90v104h55v-499q0 -114 -71.5 -184t-183.5 -70q-100 0 -173 55.5t-86 141.5l54 7q10 -67 68 -110t135 -43zM316 34
q91 0 150.5 61.5t59.5 155.5q0 96 -59.5 158t-150.5 62q-92 0 -151 -62t-59 -158q0 -94 60 -155.5t150 -61.5z" />
    <glyph glyph-name="h" unicode="h" 
d="M84 733h56v-316q24 48 73.5 77t108.5 29q94 0 150.5 -63.5t56.5 -163.5v-296h-55v296q0 78 -43 126.5t-116 48.5t-124 -49.5t-51 -124.5v-297h-56v733z" />
    <glyph glyph-name="i" unicode="i" horiz-adv-x="241" 
d="M93 503h55v-503h-55v503zM121 604q-19 0 -30.5 11.5t-11.5 30.5q0 18 11.5 29.5t30.5 11.5q18 0 30 -11.5t12 -29.5q0 -19 -12 -30.5t-30 -11.5z" />
    <glyph glyph-name="j" unicode="j" horiz-adv-x="238" 
d="M90 -91v594h55v-598q0 -56 -33.5 -92t-86.5 -36q-39 0 -76 13v51q33 -12 65 -12q34 0 55 22.5t21 57.5zM117 604q-18 0 -30 11.5t-12 30.5q0 18 11.5 29.5t30.5 11.5q18 0 30 -11.5t12 -29.5q0 -19 -12 -30.5t-30 -11.5z" />
    <glyph glyph-name="k" unicode="k" horiz-adv-x="505" 
d="M84 0v733h56v-442l241 212h77l-270 -237l279 -266h-76l-251 240v-240h-56z" />
    <glyph glyph-name="l" unicode="l" horiz-adv-x="222" 
d="M84 733h55v-733h-55v733z" />
    <glyph glyph-name="m" unicode="m" horiz-adv-x="925" 
d="M140 0h-56v503h54v-72q23 43 64.5 67.5t95.5 24.5q64 0 111.5 -32.5t64.5 -86.5q20 55 68 86.5t112 31.5q87 0 142 -60t55 -156v-306h-56v306q0 74 -40.5 119.5t-105.5 45.5q-69 0 -112 -46t-43 -119v-306h-55v306q0 74 -40 119.5t-105 45.5q-70 0 -112 -45.5t-42 -119.5
v-306z" />
    <glyph glyph-name="n" unicode="n" 
d="M84 503h56v-84q25 47 76 75.5t110 28.5q94 0 148.5 -63t54.5 -164v-296h-55v296q0 79 -40 127t-112 48q-74 0 -128 -50t-54 -124v-297h-56v503z" />
    <glyph glyph-name="o" unicode="o" horiz-adv-x="630" 
d="M315 523q115 0 190 -76.5t75 -195.5q0 -118 -74.5 -194.5t-190.5 -76.5t-190.5 76t-74.5 195t74.5 195.5t190.5 76.5zM315 31q91 0 150.5 62.5t59.5 157.5q0 96 -59 158t-151 62t-151 -62t-59 -158q0 -95 59.5 -157.5t150.5 -62.5z" />
    <glyph glyph-name="p" unicode="p" horiz-adv-x="664" 
d="M613 251q0 -118 -73.5 -194.5t-186.5 -76.5q-71 0 -127 33.5t-86 92.5v-336h-56v733h54v-108q30 59 86.5 93.5t128.5 34.5q113 0 186.5 -77t73.5 -195zM348 34q91 0 150.5 61t59.5 156t-59.5 156.5t-150.5 61.5t-150.5 -61.5t-59.5 -156.5t59.5 -156t150.5 -61z" />
    <glyph glyph-name="q" unicode="q" horiz-adv-x="664" 
d="M51 251q0 118 73.5 195t186.5 77q72 0 128.5 -34.5t86.5 -93.5v108h54v-733h-55v336q-30 -59 -86.5 -92.5t-127.5 -33.5q-113 0 -186.5 76.5t-73.5 194.5zM316 34q91 0 150.5 61t59.5 156t-59.5 156.5t-150.5 61.5t-150.5 -61.5t-59.5 -156.5t59.5 -156t150.5 -61z" />
    <glyph glyph-name="r" unicode="r" horiz-adv-x="388" 
d="M84 503h54v-79q43 98 141 98q36 0 73 -16v-53q-39 18 -76 18q-62 0 -99 -51t-37 -134v-286h-56v503z" />
    <glyph glyph-name="s" unicode="s" horiz-adv-x="526" 
d="M473 140q0 -70 -57 -115t-145 -45q-94 0 -155 51.5t-61 131.5h54q0 -58 45.5 -95t116.5 -37q64 0 106 30t42 75q0 25 -14 43t-40.5 28.5t-49 15.5t-54.5 9q-37 5 -60.5 10t-51.5 15t-43.5 24t-26.5 37t-11 53q0 66 53.5 109t134.5 43q89 0 147.5 -48t58.5 -121l-55 1
q0 51 -42.5 83.5t-108.5 32.5q-57 0 -95.5 -28.5t-38.5 -72.5q0 -39 34.5 -57t110.5 -29q35 -5 57.5 -10t53.5 -16t49.5 -25t32 -38t13.5 -55z" />
    <glyph glyph-name="t" unicode="t" horiz-adv-x="371" 
d="M121 114v341h-86v47h88l6 116h47v-116h135v-47h-135v-340q0 -38 21.5 -61.5t57.5 -24.5q32 0 65 10v-48q-31 -11 -75 -11q-56 0 -90 36.5t-34 97.5z" />
    <glyph glyph-name="u" unicode="u" 
d="M519 0h-55v84q-25 -48 -76 -76t-111 -28q-94 0 -148.5 63t-54.5 163v297h56v-297q0 -78 40 -126.5t112 -48.5q74 0 128 50t54 124v298h55v-503z" />
    <glyph glyph-name="v" unicode="v" horiz-adv-x="560" 
d="M318 0h-76l-206 503h60l184 -457l184 457h60z" />
    <glyph glyph-name="w" unicode="w" horiz-adv-x="873" 
d="M295 0h-74l-175 503h59l154 -447l144 447h66l147 -448l153 448h58l-175 -503h-74l-142 439z" />
    <glyph glyph-name="x" unicode="x" horiz-adv-x="527" 
d="M114 0h-68l178 262l-168 241h67l140 -206l142 206h65l-167 -241l177 -262h-66l-151 224z" />
    <glyph glyph-name="y" unicode="y" horiz-adv-x="565" 
d="M63 -209v50q36 -12 63 -12q32 0 58 24.5t38 47.5t37 82q6 13 9 20l-232 500h62l198 -432l173 432h59l-205 -507q-18 -45 -30 -71t-30.5 -58t-36 -48.5t-42 -28.5t-53.5 -12q-37 0 -68 13z" />
    <glyph glyph-name="z" unicode="z" horiz-adv-x="549" 
d="M51 36l353 415h-343v52h427v-37l-353 -415h363v-51h-447v36z" />
    <glyph glyph-name="braceleft" unicode="{" horiz-adv-x="354" 
d="M263 -135h55l-1 -45h-72q-49 0 -80 33t-31 84v241q0 31 -17.5 51t-45.5 20h-10v64h10q28 0 45.5 20t17.5 51v231q0 52 31 85t80 33h73v-46h-55q-33 0 -54 -22.5t-21 -58.5v-226q0 -40 -22 -67.5t-57 -30.5l-10 -1l10 -1q34 -2 56.5 -29.5t22.5 -67.5v-237q0 -35 21 -58
t54 -23z" />
    <glyph glyph-name="bar" unicode="|" horiz-adv-x="239" 
d="M93 733h53v-963h-53v963z" />
    <glyph glyph-name="braceright" unicode="}" horiz-adv-x="354" 
d="M109 -180h-72l-1 45h55q33 0 54 23t21 58v237q0 40 22.5 67.5t56.5 29.5l10 1l-10 1q-35 3 -57 30.5t-22 67.5v226q0 36 -21 58.5t-54 22.5h-55v46h73q49 0 80 -33t31 -85v-231q0 -31 17.5 -51t45.5 -20h10v-64h-10q-28 0 -45.5 -20t-17.5 -51v-241q0 -51 -31 -84
t-80 -33z" />
    <glyph glyph-name="asciitilde" unicode="~" horiz-adv-x="617" 
d="M77 293l-26 37q25 30 61.5 48t70.5 18q32 0 70.5 -18.5t67.5 -40t64.5 -40t62.5 -18.5q51 0 92 47l26 -37q-53 -61 -121 -61q-40 0 -88.5 29.5t-95 59t-81.5 29.5q-55 0 -103 -53z" />
    <glyph glyph-name="exclamdown" unicode="&#xa1;" horiz-adv-x="207" 
d="M73 -230v183l10 322h40l10 -322v-183h-60zM103 484q19 0 30.5 -11.5t11.5 -30.5q0 -18 -11.5 -30t-30.5 -12q-18 0 -30 12t-12 30t12 30t30 12z" />
    <glyph glyph-name="cent" unicode="&#xa2;" horiz-adv-x="603" 
d="M343 -18v-86h-55v85q-105 9 -171 84t-66 186t66 186.5t171 84.5v82h55v-83q78 -9 136 -58.5t72 -120.5l-54 -8q-15 61 -67 100t-117 39q-89 0 -148 -62.5t-59 -159.5q0 -96 58.5 -158.5t147.5 -62.5q67 0 118.5 37t66.5 95l55 -8q-16 -69 -74 -116.5t-135 -55.5z" />
    <glyph glyph-name="sterling" unicode="&#xa3;" horiz-adv-x="585" 
d="M532 517l-54 -9q-5 74 -42.5 122t-95.5 48q-55 0 -89 -42.5t-34 -109.5v-148h260v-52h-262q-2 -127 -29 -190t-75 -85h422v-51h-482v71q52 8 80 63t29 192h-99v52h100v148q0 89 49 145.5t129 56.5q82 0 133.5 -58.5t59.5 -152.5z" />
    <glyph glyph-name="currency" unicode="&#xa4;" horiz-adv-x="748" 
d="M549 451l103 100l34 -37l-101 -99q54 -70 54 -164t-54 -164l102 -99l-35 -37l-103 100q-71 -60 -175 -60q-103 0 -174 60l-103 -100l-36 36l102 100q-54 70 -54 164t54 164l-101 100l35 36l103 -99q72 59 174 59q104 0 175 -60zM374 39q91 0 150.5 60t59.5 152
q0 93 -59 153t-151 60q-90 0 -149.5 -60t-59.5 -153t58.5 -152.5t150.5 -59.5z" />
    <glyph glyph-name="yen" unicode="&#xa5;" horiz-adv-x="662" 
d="M53 285h232l-250 417l68 1l229 -390l227 390h68l-249 -418h231v-51h-248v-107h248v-51h-248v-76h-59v76h-249v51h249v107h-249v51z" />
    <glyph glyph-name="section" unicode="&#xa7;" 
d="M98 537q0 73 57 120.5t143 47.5q82 0 140 -50.5t65 -128.5l-56 -6q-4 57 -46 94t-103 37q-64 0 -104 -31t-40 -79q0 -25 11 -43.5t25 -29.5t42 -19.5t46.5 -12t54.5 -9.5q39 -6 60 -10.5t52.5 -15t48 -24t29 -37t12.5 -54.5q0 -49 -33.5 -83.5t-91.5 -44.5
q47 -13 75 -47.5t28 -86.5q0 -79 -60 -129t-152 -50q-86 0 -146 50.5t-67 127.5l58 7q4 -58 47.5 -94.5t109.5 -36.5q67 0 109.5 33t42.5 87q0 27 -11.5 46.5t-25 30.5t-43 19t-47.5 11t-56 8t-60.5 9.5t-53 14.5t-47.5 24t-29.5 37.5t-12.5 54.5q0 48 33.5 83.5t91.5 45.5
q-44 14 -70 48t-26 86zM479 279q0 73 -106 92q-18 3 -53 7l-10 1q-20 2 -31 4q-71 -3 -113 -31t-42 -69q0 -23 10.5 -40.5t24 -27t39.5 -16.5t43 -9.5t49 -6.5q8 -2 32 -4q73 2 115 29t42 71z" />
    <glyph glyph-name="dieresis" unicode="&#xa8;" horiz-adv-x="416" 
d="M93 594q-19 0 -30.5 11.5t-11.5 29.5q0 19 11.5 30t30.5 11t30.5 -11t11.5 -30q0 -18 -11.5 -29.5t-30.5 -11.5zM323 594q-19 0 -30.5 11.5t-11.5 29.5q0 19 11.5 30t30.5 11t30.5 -11t11.5 -30q0 -18 -11.5 -29.5t-30.5 -11.5z" />
    <glyph glyph-name="copyright" unicode="&#xa9;" horiz-adv-x="912" 
d="M456 -141q-173 0 -284 110.5t-111 282.5q0 168 111.5 279.5t283.5 111.5q173 0 284 -110t111 -281q0 -172 -111 -282.5t-284 -110.5zM456 600q-152 0 -251 -99.5t-99 -248.5q0 -153 98.5 -251.5t251.5 -98.5t251.5 98.5t98.5 251.5q0 149 -99 248.5t-251 99.5zM460 521
q82 0 148.5 -46t85.5 -116l-42 -11q-20 58 -73.5 93.5t-119.5 35.5q-94 0 -155 -63.5t-61 -162.5t61 -162.5t156 -63.5q67 0 122.5 38t74.5 97l38 -12q-21 -73 -87.5 -120t-148.5 -47q-115 0 -189 76t-74 194t74.5 194t189.5 76z" />
    <glyph glyph-name="guillemotleft" unicode="&#xab;" horiz-adv-x="607" 
d="M317 503l-206 -252l206 -251h-68l-204 251l205 252h67zM546 503l-206 -252l206 -251h-68l-205 251l205 252h68z" />
    <glyph glyph-name="logicalnot" unicode="&#xac;" horiz-adv-x="635" 
d="M528 70v227h-477v50h523v-277h-46z" />
    <glyph glyph-name="registered" unicode="&#xae;" horiz-adv-x="912" 
d="M456 -139q-172 0 -283.5 110.5t-111.5 281.5q0 169 111.5 280.5t283.5 111.5q173 0 284 -110t111 -282q0 -171 -111.5 -281.5t-283.5 -110.5zM106 253q0 -152 98.5 -251t251.5 -99t251.5 99t98.5 251q0 150 -99 249.5t-251 99.5t-251 -99.5t-99 -249.5zM537 214l120 -202
h-53l-117 198h-142v-198h-47v492h210q67 0 110.5 -41.5t43.5 -105.5q0 -55 -34.5 -95t-90.5 -48zM501 464h-156v-214h158q49 0 81 30.5t32 77.5q0 48 -32 77t-83 29z" />
    <glyph glyph-name="macron" unicode="&#xaf;" horiz-adv-x="416" 
d="M365 664v-43h-314v43h314z" />
    <glyph glyph-name="degree" unicode="&#xb0;" horiz-adv-x="503" 
d="M252 347q-91 0 -146 53.5t-55 140.5q0 88 55 141.5t146 53.5q90 0 145 -53.5t55 -141.5q0 -87 -55 -140.5t-145 -53.5zM252 692q-70 0 -112.5 -41.5t-42.5 -109.5q0 -67 42.5 -108.5t112.5 -41.5q69 0 111.5 41.5t42.5 108.5q0 68 -42.5 109.5t-111.5 41.5z" />
    <glyph glyph-name="plusminus" unicode="&#xb1;" horiz-adv-x="560" 
d="M51 52h458v-52h-458v52zM308 186h-56v137h-201v53h201v127h56v-127h201v-53h-201v-137z" />
    <glyph glyph-name="acute" unicode="&#xb4;" horiz-adv-x="284" 
d="M233 732l-122 -162h-60l119 163z" />
    <glyph glyph-name="paragraph" unicode="&#xb6;" horiz-adv-x="680" 
d="M597 656h-91v-882h-51v882h-132v-882h-51v558q-100 0 -161 51t-60 134q0 83 61 134.5t160 51.5h325v-47z" />
    <glyph glyph-name="periodcentered" unicode="&#xb7;" horiz-adv-x="185" 
d="M93 247q-19 0 -30.5 11.5t-11.5 29.5q0 19 11.5 30.5t30.5 11.5q18 0 30 -11.5t12 -30.5q0 -18 -12 -29.5t-30 -11.5z" />
    <glyph glyph-name="cedilla" unicode="&#xb8;" horiz-adv-x="315" 
d="M144 -95h-39l13 101h40l-8 -69q52 0 83.5 -29.5t31.5 -77.5q0 -44 -30 -72t-77 -28q-41 0 -70.5 23t-36.5 60l36 9q7 -25 26 -40t44 -15q29 0 47.5 18t18.5 46q0 34 -21.5 54t-57.5 20z" />
    <glyph glyph-name="guillemotright" unicode="&#xbb;" horiz-adv-x="605" 
d="M332 251l-204 -251h-68l206 251l-206 252h68zM561 251l-205 -251h-68l206 251l-206 252h68z" />
    <glyph glyph-name="questiondown" unicode="&#xbf;" horiz-adv-x="586" 
d="M276 319h55q0 -77 -25 -118.5t-86 -81.5q-25 -17 -38 -27t-30 -28t-24.5 -39t-7.5 -48q0 -69 48 -115.5t121 -46.5q75 0 122.5 50.5t57.5 132.5l56 -11q-12 -100 -76.5 -163t-161.5 -63t-161.5 62t-64.5 154q0 35 9 62.5t29.5 50t38 36t50.5 35.5q50 32 69 64t19 94z
M304 501q19 0 30.5 -11.5t11.5 -30.5q0 -18 -11.5 -30t-30.5 -12q-18 0 -30 12t-12 30t12 30t30 12z" />
    <glyph glyph-name="Agrave" unicode="&#xc0;" horiz-adv-x="674" 
d="M88 0h-63l270 703h83l270 -703h-62l-59 151h-381zM163 200h348l-174 449zM196 915h66l107 -142h-64z" />
    <glyph glyph-name="Aacute" unicode="&#xc1;" horiz-adv-x="674" 
d="M88 0h-63l270 703h83l270 -703h-62l-59 151h-381zM163 200h348l-174 449zM408 915h66l-109 -142h-64z" />
    <glyph glyph-name="Acircumflex" unicode="&#xc2;" horiz-adv-x="674" 
d="M88 0h-63l270 703h83l270 -703h-62l-59 151h-381zM163 200h348l-174 449zM241 773h-61l126 142h63l126 -142h-60l-98 109z" />
    <glyph glyph-name="Atilde" unicode="&#xc3;" horiz-adv-x="674" 
d="M88 0h-63l270 703h83l270 -703h-62l-59 151h-381zM163 200h348l-174 449zM211 807l-34 24q12 26 40 42.5t61 16.5q35 0 74 -26.5t64 -26.5q47 0 66 41l36 -22q-12 -27 -40.5 -44t-64.5 -17q-38 0 -76 26.5t-60 26.5q-42 0 -66 -41z" />
    <glyph glyph-name="Adieresis" unicode="&#xc4;" horiz-adv-x="674" 
d="M88 0h-63l270 703h83l270 -703h-62l-59 151h-381zM163 200h348l-174 449zM233 783q-19 0 -30.5 11.5t-11.5 29.5t11.5 29.5t30.5 11.5q18 0 30 -11.5t12 -29.5t-12 -29.5t-30 -11.5zM443 783q-18 0 -30 11.5t-12 29.5t12 29.5t30 11.5t30 -11.5t12 -29.5t-12 -29.5
t-30 -11.5z" />
    <glyph glyph-name="Aring" unicode="&#xc5;" horiz-adv-x="674" 
d="M88 0h-63l270 703h83l270 -703h-62l-59 151h-381zM163 200h348l-174 449zM336 753q-39 0 -64.5 24.5t-25.5 62.5q0 37 25.5 61.5t64.5 24.5t64 -24t25 -62t-25.5 -62.5t-63.5 -24.5zM336 887q-21 0 -34.5 -13t-13.5 -34t13.5 -34.5t34.5 -13.5t35 13.5t14 34.5t-13.5 34
t-35.5 13z" />
    <glyph glyph-name="AE" unicode="&#xc6;" horiz-adv-x="909" 
d="M853 54v-54h-418v151h-265l-79 -151h-66l368 703h450v-54h-353v-267h313v-51h-313v-277h363zM435 203v454l-239 -454h239z" />
    <glyph glyph-name="Ccedilla" unicode="&#xc7;" horiz-adv-x="821" 
d="M437 -95h-38l9 71q-153 8 -250 112.5t-97 262.5q0 164 104 270.5t264 106.5q120 0 213 -73t117 -183l-58 -8q-20 90 -97 150t-175 60q-135 0 -222 -91t-87 -232q0 -140 87.5 -231t221.5 -91q99 0 176 58t98 145l56 -12q-23 -100 -110 -169.5t-201 -75.5l-5 -38
q53 0 84 -29.5t31 -77.5q0 -44 -30 -72t-77 -28q-41 0 -70 23t-37 60l37 9q7 -25 25.5 -40t43.5 -15q30 0 48 17.5t18 46.5q0 34 -21 54t-58 20z" />
    <glyph glyph-name="Egrave" unicode="&#xc8;" horiz-adv-x="635" 
d="M151 339v-285h428v-54h-486v703h476v-54h-418v-258h378v-52h-378zM194 915h66l107 -142h-65z" />
    <glyph glyph-name="Eacute" unicode="&#xc9;" horiz-adv-x="635" 
d="M151 339v-285h428v-54h-486v703h476v-54h-418v-258h378v-52h-378zM405 915h66l-109 -142h-64z" />
    <glyph glyph-name="Ecircumflex" unicode="&#xca;" horiz-adv-x="635" 
d="M151 339v-285h428v-54h-486v703h476v-54h-418v-258h378v-52h-378zM238 773h-61l126 142h63l126 -142h-60l-97 109z" />
    <glyph glyph-name="Edieresis" unicode="&#xcb;" horiz-adv-x="635" 
d="M151 339v-285h428v-54h-486v703h476v-54h-418v-258h378v-52h-378zM230 783q-18 0 -30 11.5t-12 29.5t12 29.5t30 11.5t30 -11.5t12 -29.5t-12 -29.5t-30 -11.5zM440 783q-18 0 -30 11.5t-12 29.5t12 29.5t30 11.5t30 -11.5t12 -29.5t-12 -29.5t-30 -11.5z" />
    <glyph glyph-name="Igrave" unicode="&#xcc;" horiz-adv-x="249" 
d="M93 703h59v-703h-59v703zM-19 915h66l107 -142h-64z" />
    <glyph glyph-name="Iacute" unicode="&#xcd;" horiz-adv-x="247" 
d="M96 703h59v-703h-59v703zM196 915h66l-109 -142h-64z" />
    <glyph glyph-name="Icircumflex" unicode="&#xce;" horiz-adv-x="249" 
d="M96 703h59v-703h-59v703zM28 773h-61l126 142h63l126 -142h-60l-97 109z" />
    <glyph glyph-name="Idieresis" unicode="&#xcf;" horiz-adv-x="246" 
d="M93 703h59v-703h-59v703zM18 783q-19 0 -30.5 11.5t-11.5 29.5t11.5 29.5t30.5 11.5q18 0 30 -11.5t12 -29.5t-12 -29.5t-30 -11.5zM228 783q-18 0 -30 11.5t-12 29.5t12 29.5t30 11.5t30 -11.5t12 -29.5t-12 -29.5t-30 -11.5z" />
    <glyph glyph-name="Ntilde" unicode="&#xd1;" horiz-adv-x="722" 
d="M171 703l399 -630v630h59v-703h-78l-399 629v-629h-59v703h78zM232 807l-34 24q11 26 39 42.5t62 16.5q35 0 74 -26.5t64 -26.5q45 0 66 41l35 -22q-12 -27 -40.5 -44t-64.5 -17q-37 0 -75 26.5t-61 26.5q-43 0 -65 -41z" />
    <glyph glyph-name="Ograve" unicode="&#xd2;" horiz-adv-x="872" 
d="M436 -25q-164 0 -269.5 106t-105.5 270t105.5 270.5t269.5 106.5q163 0 269 -106.5t106 -270.5t-105.5 -270t-269.5 -106zM436 674q-138 0 -227 -91t-89 -232q0 -140 89 -231t227 -91t227 91t89 231q0 141 -89 232t-227 91zM295 915h66l107 -142h-65z" />
    <glyph glyph-name="Oacute" unicode="&#xd3;" horiz-adv-x="872" 
d="M436 -25q-164 0 -269.5 106t-105.5 270t105.5 270.5t269.5 106.5q163 0 269 -106.5t106 -270.5t-105.5 -270t-269.5 -106zM436 674q-138 0 -227 -91t-89 -232q0 -140 89 -231t227 -91t227 91t89 231q0 141 -89 232t-227 91zM506 915h66l-109 -142h-64z" />
    <glyph glyph-name="Ocircumflex" unicode="&#xd4;" horiz-adv-x="872" 
d="M436 -25q-164 0 -269.5 106t-105.5 270t105.5 270.5t269.5 106.5q163 0 269 -106.5t106 -270.5t-105.5 -270t-269.5 -106zM436 674q-138 0 -227 -91t-89 -232q0 -140 89 -231t227 -91t227 91t89 231q0 141 -89 232t-227 91zM339 773h-61l126 142h63l126 -142h-60l-97 109
z" />
    <glyph glyph-name="Otilde" unicode="&#xd5;" horiz-adv-x="872" 
d="M436 -25q-164 0 -269.5 106t-105.5 270t105.5 270.5t269.5 106.5q163 0 269 -106.5t106 -270.5t-105.5 -270t-269.5 -106zM436 674q-138 0 -227 -91t-89 -232q0 -140 89 -231t227 -91t227 91t89 231q0 141 -89 232t-227 91zM304 807l-34 24q11 26 39 42.5t62 16.5
t73 -26.5t65 -26.5q45 0 66 41l35 -22q-12 -27 -40.5 -44t-64.5 -17q-37 0 -75 26.5t-61 26.5q-43 0 -65 -41z" />
    <glyph glyph-name="Odieresis" unicode="&#xd6;" horiz-adv-x="872" 
d="M436 -25q-164 0 -269.5 106t-105.5 270t105.5 270.5t269.5 106.5q163 0 269 -106.5t106 -270.5t-105.5 -270t-269.5 -106zM436 674q-138 0 -227 -91t-89 -232q0 -140 89 -231t227 -91t227 91t89 231q0 141 -89 232t-227 91zM331 783q-18 0 -30 11.5t-12 29.5t12 29.5
t30 11.5t30 -11.5t12 -29.5t-12 -29.5t-30 -11.5zM541 783q-18 0 -30 11.5t-12 29.5t12 29.5t30 11.5t30 -11.5t12 -29.5t-12 -29.5t-30 -11.5z" />
    <glyph glyph-name="multiply" unicode="&#xd7;" horiz-adv-x="381" 
d="M86 150l-35 34l106 114l-106 114l35 34l104 -112l105 112l35 -34l-106 -114l106 -114l-35 -34l-105 112z" />
    <glyph glyph-name="Oslash" unicode="&#xd8;" horiz-adv-x="852" 
d="M221 -140h-59l81 161q-85 46 -133.5 133t-48.5 197q0 164 103 270.5t262 106.5q84 0 157 -34l83 166h59l-96 -190q76 -50 119 -133t43 -186q0 -164 -103 -270t-262 -106q-69 0 -136 24zM426 674q-133 0 -219.5 -91.5t-86.5 -231.5q0 -92 39.5 -165.5t108.5 -113.5
l290 573q-63 29 -132 29zM426 29q133 0 219.5 90.5t86.5 231.5q0 86 -34.5 155.5t-94.5 112.5l-288 -570q52 -20 111 -20z" />
    <glyph glyph-name="Ugrave" unicode="&#xd9;" horiz-adv-x="723" 
d="M579 283v420h59v-420q0 -136 -77 -222t-199 -86q-123 0 -200 85.5t-77 222.5v420h59v-420q0 -111 60 -182.5t158 -71.5t157.5 70t59.5 184zM226 915h66l107 -142h-64z" />
    <glyph glyph-name="Uacute" unicode="&#xda;" horiz-adv-x="723" 
d="M579 283v420h59v-420q0 -136 -77 -222t-199 -86q-123 0 -200 85.5t-77 222.5v420h59v-420q0 -111 60 -182.5t158 -71.5t157.5 70t59.5 184zM426 915h66l-109 -142h-64z" />
    <glyph glyph-name="Ucircumflex" unicode="&#xdb;" horiz-adv-x="723" 
d="M579 283v420h59v-420q0 -136 -77 -222t-199 -86q-123 0 -200 85.5t-77 222.5v420h59v-420q0 -111 60 -182.5t158 -71.5t157.5 70t59.5 184zM264 773h-60l126 142h63l126 -142h-60l-98 109z" />
    <glyph glyph-name="Udieresis" unicode="&#xdc;" horiz-adv-x="723" 
d="M579 283v420h59v-420q0 -136 -77 -222t-199 -86q-123 0 -200 85.5t-77 222.5v420h59v-420q0 -111 60 -182.5t158 -71.5t157.5 70t59.5 184zM256 783q-18 0 -30 11.5t-12 29.5t12 29.5t30 11.5q19 0 30.5 -11.5t11.5 -29.5t-11.5 -29.5t-30.5 -11.5zM467 783
q-19 0 -30.5 11.5t-11.5 29.5t11.5 29.5t30.5 11.5q18 0 30 -11.5t12 -29.5t-12 -29.5t-30 -11.5z" />
    <glyph glyph-name="Yacute" unicode="&#xdd;" horiz-adv-x="605" 
d="M273 0v275l-248 428h66l212 -370l210 370h67l-248 -428v-275h-59zM367 915h66l-109 -142h-64z" />
    <glyph glyph-name="germandbls" unicode="&#xdf;" horiz-adv-x="660" 
d="M142 476v-476h-59v480q0 104 65.5 171.5t167.5 67.5q92 0 152.5 -54t60.5 -133q0 -63 -37 -104.5t-99 -51.5q89 -11 143 -65t53 -137q0 -87 -58 -143t-147 -56q-85 0 -159 49l19 51q63 -47 137 -47q66 0 107.5 42t41.5 108q0 78 -57.5 124.5t-156.5 46.5h-37v52h39
q67 0 109.5 35t42.5 93t-44 97t-111 39q-76 0 -124.5 -52.5t-48.5 -136.5z" />
    <glyph glyph-name="agrave" unicode="&#xe0;" horiz-adv-x="666" 
d="M526 503h55v-503h-55v108q-30 -59 -86.5 -93.5t-128.5 -34.5q-113 0 -186.5 76.5t-73.5 194.5t73.5 195t186.5 77q72 0 128.5 -34.5t86.5 -94.5v109zM316 31q90 0 150 62.5t60 157.5t-60 157.5t-150 62.5q-92 0 -151 -62t-59 -158q0 -95 59.5 -157.5t150.5 -62.5z
M161 725h64l119 -162h-61z" />
    <glyph glyph-name="aacute" unicode="&#xe1;" horiz-adv-x="666" 
d="M526 503h55v-503h-55v108q-30 -59 -86.5 -93.5t-128.5 -34.5q-113 0 -186.5 76.5t-73.5 194.5t73.5 195t186.5 77q72 0 128.5 -34.5t86.5 -94.5v109zM316 31q90 0 150 62.5t60 157.5t-60 157.5t-150 62.5q-92 0 -151 -62t-59 -158q0 -95 59.5 -157.5t150.5 -62.5z
M395 725h64l-122 -162h-60z" />
    <glyph glyph-name="acircumflex" unicode="&#xe2;" horiz-adv-x="666" 
d="M526 503h55v-503h-55v108q-30 -59 -86.5 -93.5t-128.5 -34.5q-113 0 -186.5 76.5t-73.5 194.5t73.5 195t186.5 77q72 0 128.5 -34.5t86.5 -94.5v109zM316 31q90 0 150 62.5t60 157.5t-60 157.5t-150 62.5q-92 0 -151 -62t-59 -158q0 -95 59.5 -157.5t150.5 -62.5z
M214 563h-56l122 162h62l123 -162h-57l-97 128z" />
    <glyph glyph-name="atilde" unicode="&#xe3;" horiz-adv-x="666" 
d="M526 503h55v-503h-55v108q-30 -59 -86.5 -93.5t-128.5 -34.5q-113 0 -186.5 76.5t-73.5 194.5t73.5 195t186.5 77q72 0 128.5 -34.5t86.5 -94.5v109zM316 31q90 0 150 62.5t60 157.5t-60 157.5t-150 62.5q-92 0 -151 -62t-59 -158q0 -95 59.5 -157.5t150.5 -62.5z
M196 595l-34 19q13 26 40 42.5t57 16.5q34 0 77.5 -29.5t66.5 -29.5q21 0 38.5 10.5t25.5 27.5l36 -18q-12 -27 -40.5 -44.5t-62.5 -17.5q-37 0 -79 29.5t-64 29.5q-40 0 -61 -36z" />
    <glyph glyph-name="adieresis" unicode="&#xe4;" horiz-adv-x="666" 
d="M526 503h55v-503h-55v108q-30 -59 -86.5 -93.5t-128.5 -34.5q-113 0 -186.5 76.5t-73.5 194.5t73.5 195t186.5 77q72 0 128.5 -34.5t86.5 -94.5v109zM316 31q90 0 150 62.5t60 157.5t-60 157.5t-150 62.5q-92 0 -151 -62t-59 -158q0 -95 59.5 -157.5t150.5 -62.5z
M196 583q-19 0 -30.5 11.5t-11.5 30.5q0 18 11.5 29.5t30.5 11.5t30.5 -11.5t11.5 -29.5q0 -19 -11.5 -30.5t-30.5 -11.5zM426 583q-19 0 -30.5 11.5t-11.5 30.5q0 18 11.5 29.5t30.5 11.5t30.5 -11.5t11.5 -29.5q0 -19 -11.5 -30.5t-30.5 -11.5z" />
    <glyph glyph-name="aring" unicode="&#xe5;" horiz-adv-x="666" 
d="M526 503h55v-503h-55v108q-30 -59 -86.5 -93.5t-128.5 -34.5q-113 0 -186.5 76.5t-73.5 194.5t73.5 195t186.5 77q72 0 128.5 -34.5t86.5 -94.5v109zM316 31q90 0 150 62.5t60 157.5t-60 157.5t-150 62.5q-92 0 -151 -62t-59 -158q0 -95 59.5 -157.5t150.5 -62.5z
M311 553q-52 0 -85 32.5t-33 82.5t33 82.5t85 32.5q51 0 83.5 -32.5t32.5 -82.5t-32.5 -82.5t-83.5 -32.5zM311 744q-34 0 -55.5 -21.5t-21.5 -54.5t21.5 -54.5t55.5 -21.5q32 0 53.5 21.5t21.5 54.5t-21.5 54.5t-53.5 21.5z" />
    <glyph glyph-name="ae" unicode="&#xe6;" horiz-adv-x="1091" 
d="M523 398v105h47v-105q29 58 83.5 91t124.5 33q115 0 189 -74t74 -188q0 -14 -2 -38h-461q11 -86 66.5 -138.5t137.5 -52.5q65 0 118.5 35.5t70.5 90.5l51 -10q-16 -73 -84 -120t-154 -47q-72 0 -129 35t-85 95v-110h-47v104q-32 -58 -88 -91t-126 -33q-112 0 -185 76.5
t-73 194.5t73 194.5t185 76.5q70 0 126 -33t88 -91zM316 474q-92 0 -151 -63t-59 -160q0 -96 59.5 -159t150.5 -63t150.5 62t59.5 160q0 97 -59.5 160t-150.5 63zM576 270h409q-1 87 -60 144t-148 57q-85 0 -141 -57.5t-60 -143.5z" />
    <glyph glyph-name="ccedilla" unicode="&#xe7;" horiz-adv-x="603" 
d="M326 -95h-39l9 75q-107 6 -176 82t-69 189q0 118 74 195t187 77q88 0 155.5 -51t83.5 -130l-54 -8q-15 61 -67 100t-117 39q-89 0 -148 -62.5t-59 -159.5q0 -96 58.5 -158.5t147.5 -62.5q67 0 118.5 37t66.5 95l55 -8q-16 -70 -76 -118t-139 -55l-6 -44q53 0 84 -29.5
t31 -77.5q0 -44 -29.5 -72t-77.5 -28q-40 0 -69.5 23t-37.5 60l37 9q7 -25 25.5 -40t43.5 -15q30 0 48.5 17.5t18.5 46.5q0 34 -21.5 54t-57.5 20z" />
    <glyph glyph-name="egrave" unicode="&#xe8;" horiz-adv-x="633" 
d="M51 254q0 117 76 193t193 76q115 0 188.5 -76t73.5 -193v-21h-475q6 -89 65 -145.5t147 -56.5q65 0 120 36.5t74 91.5l54 -9q-24 -74 -93.5 -122t-152.5 -48q-118 0 -194 77.5t-76 196.5zM108 283h417q-8 83 -65.5 135.5t-141.5 52.5q-85 0 -143.5 -52.5t-66.5 -135.5z
M171 725h64l118 -162h-60z" />
    <glyph glyph-name="eacute" unicode="&#xe9;" horiz-adv-x="633" 
d="M51 254q0 117 76 193t193 76q115 0 188.5 -76t73.5 -193v-21h-475q6 -89 65 -145.5t147 -56.5q65 0 120 36.5t74 91.5l54 -9q-24 -74 -93.5 -122t-152.5 -48q-118 0 -194 77.5t-76 196.5zM108 283h417q-8 83 -65.5 135.5t-141.5 52.5q-85 0 -143.5 -52.5t-66.5 -135.5z
M405 725h64l-122 -162h-60z" />
    <glyph glyph-name="ecircumflex" unicode="&#xea;" horiz-adv-x="633" 
d="M51 254q0 117 76 193t193 76q115 0 188.5 -76t73.5 -193v-21h-475q6 -89 65 -145.5t147 -56.5q65 0 120 36.5t74 91.5l54 -9q-24 -74 -93.5 -122t-152.5 -48q-118 0 -194 77.5t-76 196.5zM108 283h417q-8 83 -65.5 135.5t-141.5 52.5q-85 0 -143.5 -52.5t-66.5 -135.5z
M224 563h-57l123 162h62l123 -162h-57l-97 128z" />
    <glyph glyph-name="edieresis" unicode="&#xeb;" horiz-adv-x="633" 
d="M51 254q0 117 76 193t193 76q115 0 188.5 -76t73.5 -193v-21h-475q6 -89 65 -145.5t147 -56.5q65 0 120 36.5t74 91.5l54 -9q-24 -74 -93.5 -122t-152.5 -48q-118 0 -194 77.5t-76 196.5zM108 283h417q-8 83 -65.5 135.5t-141.5 52.5q-85 0 -143.5 -52.5t-66.5 -135.5z
M206 583q-19 0 -30.5 11.5t-11.5 30.5q0 18 11.5 29.5t30.5 11.5q18 0 30 -11.5t12 -29.5q0 -19 -12 -30.5t-30 -11.5zM436 583q-19 0 -30.5 11.5t-11.5 30.5q0 18 11.5 29.5t30.5 11.5t30.5 -11.5t11.5 -29.5q0 -19 -11.5 -30.5t-30.5 -11.5z" />
    <glyph glyph-name="igrave" unicode="&#xec;" horiz-adv-x="216" 
d="M80 503h55v-503h-55v503zM-43 725h64l119 -162h-60z" />
    <glyph glyph-name="iacute" unicode="&#xed;" horiz-adv-x="219" 
d="M83 503h55v-503h-55v503zM195 725h64l-122 -162h-61z" />
    <glyph glyph-name="icircumflex" unicode="&#xee;" horiz-adv-x="214" 
d="M79 503h55v-503h-55v503zM9 563h-56l122 162h63l123 -162h-58l-96 128z" />
    <glyph glyph-name="idieresis" unicode="&#xef;" horiz-adv-x="218" 
d="M81 503h55v-503h-55v503zM-7 583q-18 0 -30 11.5t-12 30.5q0 18 12 29.5t30 11.5q19 0 30.5 -11.5t11.5 -29.5q0 -19 -11.5 -30.5t-30.5 -11.5zM224 583q-19 0 -30.5 11.5t-11.5 30.5q0 18 11.5 29.5t30.5 11.5t30.5 -11.5t11.5 -29.5q0 -19 -11.5 -30.5t-30.5 -11.5z
" />
    <glyph glyph-name="ntilde" unicode="&#xf1;" 
d="M84 503h56v-84q25 47 76 75.5t110 28.5q94 0 148.5 -63t54.5 -164v-296h-55v296q0 79 -40 127t-112 48q-74 0 -128 -50t-54 -124v-297h-56v503zM166 595l-34 19q13 26 39.5 42.5t57.5 16.5q34 0 77.5 -29.5t66.5 -29.5q21 0 38.5 10.5t25.5 27.5l35 -18
q-11 -27 -39.5 -44.5t-62.5 -17.5q-37 0 -79 29.5t-64 29.5q-40 0 -61 -36z" />
    <glyph glyph-name="ograve" unicode="&#xf2;" horiz-adv-x="632" 
d="M316 523q115 0 190 -76.5t75 -195.5q0 -118 -74.5 -194.5t-190.5 -76.5t-190.5 76t-74.5 195t74.5 195.5t190.5 76.5zM316 31q91 0 150.5 62.5t59.5 157.5q0 96 -59 158t-151 62t-151 -62t-59 -158q0 -95 59.5 -157.5t150.5 -62.5zM166 725h64l119 -162h-61z" />
    <glyph glyph-name="oacute" unicode="&#xf3;" horiz-adv-x="632" 
d="M316 523q115 0 190 -76.5t75 -195.5q0 -118 -74.5 -194.5t-190.5 -76.5t-190.5 76t-74.5 195t74.5 195.5t190.5 76.5zM316 31q91 0 150.5 62.5t59.5 157.5q0 96 -59 158t-151 62t-151 -62t-59 -158q0 -95 59.5 -157.5t150.5 -62.5zM400 725h64l-122 -162h-60z" />
    <glyph glyph-name="ocircumflex" unicode="&#xf4;" horiz-adv-x="632" 
d="M316 523q115 0 190 -76.5t75 -195.5q0 -118 -74.5 -194.5t-190.5 -76.5t-190.5 76t-74.5 195t74.5 195.5t190.5 76.5zM316 31q91 0 150.5 62.5t59.5 157.5q0 96 -59 158t-151 62t-151 -62t-59 -158q0 -95 59.5 -157.5t150.5 -62.5zM219 563h-56l122 162h62l123 -162h-57
l-97 128z" />
    <glyph glyph-name="otilde" unicode="&#xf5;" horiz-adv-x="632" 
d="M316 523q115 0 190 -76.5t75 -195.5q0 -118 -74.5 -194.5t-190.5 -76.5t-190.5 76t-74.5 195t74.5 195.5t190.5 76.5zM316 31q91 0 150.5 62.5t59.5 157.5q0 96 -59 158t-151 62t-151 -62t-59 -158q0 -95 59.5 -157.5t150.5 -62.5zM191 595l-34 19q13 26 40 42.5t57 16.5
q34 0 77.5 -29.5t66.5 -29.5q21 0 38.5 10.5t25.5 27.5l36 -18q-12 -27 -40.5 -44.5t-62.5 -17.5q-36 0 -78.5 29.5t-64.5 29.5q-40 0 -61 -36z" />
    <glyph glyph-name="odieresis" unicode="&#xf6;" horiz-adv-x="632" 
d="M316 523q115 0 190 -76.5t75 -195.5q0 -118 -74.5 -194.5t-190.5 -76.5t-190.5 76t-74.5 195t74.5 195.5t190.5 76.5zM316 31q91 0 150.5 62.5t59.5 157.5q0 96 -59 158t-151 62t-151 -62t-59 -158q0 -95 59.5 -157.5t150.5 -62.5zM201 583q-19 0 -30.5 11.5t-11.5 30.5
q0 18 11.5 29.5t30.5 11.5t30.5 -11.5t11.5 -29.5q0 -19 -11.5 -30.5t-30.5 -11.5zM431 583q-19 0 -30.5 11.5t-11.5 30.5q0 18 11.5 29.5t30.5 11.5t30.5 -11.5t11.5 -29.5q0 -19 -11.5 -30.5t-30.5 -11.5z" />
    <glyph glyph-name="divide" unicode="&#xf7;" horiz-adv-x="552" 
d="M276 20q-17 0 -28.5 11t-11.5 28t11.5 27.5t28.5 10.5t28 -10.5t11 -27.5t-11 -28t-28 -11zM276 414q-17 0 -28.5 11t-11.5 28q0 16 11.5 27t28.5 11t28 -10.5t11 -27.5t-11 -28t-28 -11zM51 290h450v-51h-450v51z" />
    <glyph glyph-name="oslash" unicode="&#xf8;" horiz-adv-x="634" 
d="M228 -6l-37 -74h-56l47 93q-61 34 -96 96.5t-35 141.5q0 119 75 195.5t191 76.5q60 0 111 -23l51 100h55l-62 -123q53 -36 82.5 -95t29.5 -131q0 -118 -75.5 -194.5t-191.5 -76.5q-47 0 -89 14zM317 476q-94 0 -154.5 -63.5t-60.5 -161.5q0 -63 27.5 -114t74.5 -80
l203 400q-39 19 -90 19zM317 26q94 0 154.5 63.5t60.5 161.5q0 116 -83 181l-200 -396q35 -10 68 -10z" />
    <glyph glyph-name="ugrave" unicode="&#xf9;" 
d="M519 0h-55v84q-25 -48 -76 -76t-111 -28q-94 0 -148.5 63t-54.5 163v297h56v-297q0 -78 40 -126.5t112 -48.5q74 0 128 50t54 124v298h55v-503zM157 725h63l119 -163h-60z" />
    <glyph glyph-name="uacute" unicode="&#xfa;" 
d="M519 0h-55v84q-25 -48 -76 -76t-111 -28q-94 0 -148.5 63t-54.5 163v297h56v-297q0 -78 40 -126.5t112 -48.5q74 0 128 50t54 124v298h55v-503zM375 725h64l-122 -163h-60z" />
    <glyph glyph-name="ucircumflex" unicode="&#xfb;" 
d="M519 0h-55v84q-25 -48 -76 -76t-111 -28q-94 0 -148.5 63t-54.5 163v297h56v-297q0 -78 40 -126.5t112 -48.5q74 0 128 50t54 124v298h55v-503zM200 562h-57l123 163h62l123 -163h-57l-97 128z" />
    <glyph glyph-name="udieresis" unicode="&#xfc;" 
d="M519 0h-55v84q-25 -48 -76 -76t-111 -28q-94 0 -148.5 63t-54.5 163v297h56v-297q0 -78 40 -126.5t112 -48.5q74 0 128 50t54 124v298h55v-503zM181 583q-18 0 -29.5 11.5t-11.5 29.5q0 19 11.5 30t29.5 11q19 0 30.5 -11t11.5 -30q0 -18 -11.5 -29.5t-30.5 -11.5z
M412 583q-19 0 -30.5 11.5t-11.5 29.5q0 19 11.5 30t30.5 11t30.5 -11t11.5 -30q0 -18 -11.5 -29.5t-30.5 -11.5z" />
    <glyph glyph-name="yacute" unicode="&#xfd;" horiz-adv-x="565" 
d="M63 -209v50q36 -12 63 -12q32 0 58 24.5t38 47.5t37 82q6 13 9 20l-232 500h62l198 -432l173 432h59l-205 -507q-18 -45 -30 -71t-30.5 -58t-36 -48.5t-42 -28.5t-53.5 -12q-37 0 -68 13zM362 725h64l-123 -162h-60z" />
    <glyph glyph-name="ydieresis" unicode="&#xff;" horiz-adv-x="565" 
d="M63 -209v50q36 -12 63 -12q32 0 58 24.5t38 47.5t37 82q6 13 9 20l-232 500h62l198 -432l173 432h59l-205 -507q-18 -45 -30 -71t-30.5 -58t-36 -48.5t-42 -28.5t-53.5 -12q-37 0 -68 13zM168 583q-19 0 -30.5 11.5t-11.5 30.5q0 18 11.5 29.5t30.5 11.5t30.5 -11.5
t11.5 -29.5q0 -19 -11.5 -30.5t-30.5 -11.5zM398 583q-19 0 -30.5 11.5t-11.5 30.5q0 18 11.5 29.5t30.5 11.5t30.5 -11.5t11.5 -29.5q0 -19 -11.5 -30.5t-30.5 -11.5z" />
    <glyph glyph-name="Amacron" unicode="&#x100;" horiz-adv-x="674" 
d="M88 0h-63l270 703h83l270 -703h-62l-59 151h-381zM163 200h348l-174 449zM495 845v-42h-314v42h314z" />
    <glyph glyph-name="amacron" unicode="&#x101;" horiz-adv-x="666" 
d="M526 503h55v-503h-55v108q-30 -59 -86.5 -93.5t-128.5 -34.5q-113 0 -186.5 76.5t-73.5 194.5t73.5 195t186.5 77q72 0 128.5 -34.5t86.5 -94.5v109zM316 31q90 0 150 62.5t60 157.5t-60 157.5t-150 62.5q-92 0 -151 -62t-59 -158q0 -95 59.5 -157.5t150.5 -62.5z
M468 635v-42h-314v42h314z" />
    <glyph glyph-name="Abreve" unicode="&#x102;" horiz-adv-x="674" 
d="M88 0h-63l270 703h83l270 -703h-62l-59 151h-381zM163 200h348l-174 449zM418 909h46q0 -60 -34 -98t-92 -38t-92.5 38t-34.5 98h47q0 -41 22.5 -66.5t57.5 -25.5t57.5 25.5t22.5 66.5z" />
    <glyph glyph-name="abreve" unicode="&#x103;" horiz-adv-x="666" 
d="M526 503h55v-503h-55v108q-30 -59 -86.5 -93.5t-128.5 -34.5q-113 0 -186.5 76.5t-73.5 194.5t73.5 195t186.5 77q72 0 128.5 -34.5t86.5 -94.5v109zM316 31q90 0 150 62.5t60 157.5t-60 157.5t-150 62.5q-92 0 -151 -62t-59 -158q0 -95 59.5 -157.5t150.5 -62.5z
M390 714h47q0 -65 -33.5 -108t-92.5 -43t-93 43t-34 108h47q0 -47 22.5 -77t57.5 -30q34 0 56.5 30t22.5 77z" />
    <glyph glyph-name="Aogonek" unicode="&#x104;" horiz-adv-x="721" 
d="M582 11l-55 140h-381l-58 -151h-63l270 703h83l270 -703h-20q-51 -14 -77 -43.5t-26 -66.5q-1 -54 47 -88.5t124 -36.5v-44q-93 0 -153 46t-60 117q0 42 27 76t72 51zM163 200h348l-174 449z" />
    <glyph glyph-name="aogonek" unicode="&#x105;" horiz-adv-x="721" 
d="M526 11v97q-30 -59 -86.5 -93.5t-128.5 -34.5q-113 0 -186.5 76.5t-73.5 194.5t73.5 195t186.5 77q72 0 128.5 -34.5t86.5 -94.5v109h55v-503h-11q-51 -15 -77.5 -44t-26.5 -66q-1 -55 47 -89.5t124 -35.5v-45q-93 0 -153 46t-60 117q0 43 27.5 77.5t74.5 50.5zM316 31
q90 0 150 62.5t60 157.5t-60 157.5t-150 62.5q-92 0 -151 -62t-59 -158q0 -95 59.5 -157.5t150.5 -62.5z" />
    <glyph glyph-name="Cacute" unicode="&#x106;" horiz-adv-x="821" 
d="M429 29q99 0 176 58t98 145l56 -12q-24 -105 -117 -175t-213 -70q-160 0 -264 106t-104 270t104 270.5t264 106.5q120 0 213 -73t117 -183l-58 -8q-20 90 -97 150t-175 60q-135 0 -222 -91t-87 -232q0 -140 87.5 -231t221.5 -91zM490 915h66l-109 -142h-64z" />
    <glyph glyph-name="cacute" unicode="&#x107;" horiz-adv-x="603" 
d="M312 523q88 0 155.5 -51t83.5 -130l-54 -8q-15 61 -67 100t-117 39q-89 0 -148 -62.5t-59 -159.5q0 -96 58.5 -158.5t147.5 -62.5q67 0 118.5 37t66.5 95l55 -8q-18 -76 -85.5 -125t-154.5 -49q-113 0 -187 76.5t-74 194.5t74 195t187 77zM397 725h64l-122 -162h-61z" />
    <glyph glyph-name="Ccircumflex" unicode="&#x108;" horiz-adv-x="821" 
d="M429 29q99 0 176 58t98 145l56 -12q-24 -105 -117 -175t-213 -70q-160 0 -264 106t-104 270t104 270.5t264 106.5q120 0 213 -73t117 -183l-58 -8q-20 90 -97 150t-175 60q-135 0 -222 -91t-87 -232q0 -140 87.5 -231t221.5 -91zM323 773h-61l126 142h63l126 -142h-60
l-97 109z" />
    <glyph glyph-name="ccircumflex" unicode="&#x109;" horiz-adv-x="603" 
d="M312 523q88 0 155.5 -51t83.5 -130l-54 -8q-15 61 -67 100t-117 39q-89 0 -148 -62.5t-59 -159.5q0 -96 58.5 -158.5t147.5 -62.5q67 0 118.5 37t66.5 95l55 -8q-18 -76 -85.5 -125t-154.5 -49q-113 0 -187 76.5t-74 194.5t74 195t187 77zM216 563h-57l122 162h63
l123 -162h-57l-97 128z" />
    <glyph glyph-name="Cdotaccent" unicode="&#x10a;" horiz-adv-x="821" 
d="M429 29q99 0 176 58t98 145l56 -12q-24 -105 -117 -175t-213 -70q-160 0 -264 106t-104 270t104 270.5t264 106.5q120 0 213 -73t117 -183l-58 -8q-20 90 -97 150t-175 60q-135 0 -222 -91t-87 -232q0 -140 87.5 -231t221.5 -91zM420 788q-19 0 -30.5 11t-11.5 29
q1 18 12.5 29t29.5 11q19 0 30.5 -11t11.5 -29t-11.5 -29t-30.5 -11z" />
    <glyph glyph-name="cdotaccent" unicode="&#x10b;" horiz-adv-x="603" 
d="M312 523q88 0 155.5 -51t83.5 -130l-54 -8q-15 61 -67 100t-117 39q-89 0 -148 -62.5t-59 -159.5q0 -96 58.5 -158.5t147.5 -62.5q67 0 118.5 37t66.5 95l55 -8q-18 -76 -85.5 -125t-154.5 -49q-113 0 -187 76.5t-74 194.5t74 195t187 77zM313 593q-19 0 -30.5 11.5
t-11.5 30.5q0 18 11.5 29.5t30.5 11.5q18 0 30 -11.5t12 -29.5q0 -19 -12 -30.5t-30 -11.5z" />
    <glyph glyph-name="Ccaron" unicode="&#x10c;" horiz-adv-x="821" 
d="M429 29q99 0 176 58t98 145l56 -12q-24 -105 -117 -175t-213 -70q-160 0 -264 106t-104 270t104 270.5t264 106.5q120 0 213 -73t117 -183l-58 -8q-20 90 -97 150t-175 60q-135 0 -222 -91t-87 -232q0 -140 87.5 -231t221.5 -91zM517 936h57l-123 -163h-62l-123 162l57 1
l97 -128z" />
    <glyph glyph-name="ccaron" unicode="&#x10d;" horiz-adv-x="603" 
d="M312 523q88 0 155.5 -51t83.5 -130l-54 -8q-15 61 -67 100t-117 39q-89 0 -148 -62.5t-59 -159.5q0 -96 58.5 -158.5t147.5 -62.5q67 0 118.5 37t66.5 95l55 -8q-18 -76 -85.5 -125t-154.5 -49q-113 0 -187 76.5t-74 194.5t74 195t187 77zM409 725h57l-122 -162h-63
l-122 162h56l97 -128z" />
    <glyph glyph-name="Dcaron" unicode="&#x10e;" horiz-adv-x="759" 
d="M93 0v703h195q184 0 297 -97t113 -255t-112.5 -254.5t-297.5 -96.5h-195zM639 351q0 135 -96.5 216.5t-254.5 81.5h-136v-595h136q158 0 254.5 81t96.5 216zM442 929h58l-123 -162h-63l-122 162h56l98 -128z" />
    <glyph glyph-name="dcaron" unicode="&#x10f;" horiz-adv-x="754" 
d="M51 251q0 118 73.5 195t186.5 77q71 0 127.5 -33.5t86.5 -92.5v336h55v-733h-54v107q-31 -59 -87 -93t-128 -34q-113 0 -186.5 76.5t-73.5 194.5zM316 469q-91 0 -150.5 -61.5t-59.5 -156.5q0 -94 59.5 -155.5t150.5 -61.5t150.5 61t59.5 156t-59.5 156.5t-150.5 61.5z
M685 641q-18 0 -28.5 10t-10.5 28q0 17 10 27.5t27 10.5q19 0 31 -15t12 -38q0 -65 -52 -114l-22 18q33 35 33 73z" />
    <glyph glyph-name="Dcroat" unicode="&#x110;" horiz-adv-x="807" 
d="M141 432v271h195q184 0 297 -97t113 -255t-112.5 -254.5t-297.5 -96.5h-195v380h-116v52h116zM687 351q0 135 -96.5 216.5t-254.5 81.5h-136v-217h225v-52h-225v-326h136q158 0 254.5 81t96.5 216z" />
    <glyph glyph-name="dcroat" unicode="&#x111;" horiz-adv-x="715" 
d="M525 397v212h-229v45h229v79h55v-79h98v-45h-98v-609h-54v107q-31 -59 -87 -93t-128 -34q-113 0 -186.5 76.5t-73.5 194.5t73.5 195t186.5 77q71 0 127.5 -33.5t86.5 -92.5zM316 469q-91 0 -150.5 -61.5t-59.5 -156.5q0 -94 59.5 -155.5t150.5 -61.5t150.5 61t59.5 156
t-59.5 156.5t-150.5 61.5z" />
    <glyph glyph-name="Emacron" unicode="&#x112;" horiz-adv-x="635" 
d="M151 339v-285h428v-54h-486v703h476v-54h-418v-258h378v-52h-378zM492 845v-42h-314v42h314z" />
    <glyph glyph-name="emacron" unicode="&#x113;" horiz-adv-x="633" 
d="M51 254q0 117 76 193t193 76q115 0 188.5 -76t73.5 -193v-21h-475q6 -89 65 -145.5t147 -56.5q65 0 120 36.5t74 91.5l54 -9q-24 -74 -93.5 -122t-152.5 -48q-118 0 -194 77.5t-76 196.5zM108 283h417q-8 83 -65.5 135.5t-141.5 52.5q-85 0 -143.5 -52.5t-66.5 -135.5z
M478 635v-42h-314v42h314z" />
    <glyph glyph-name="Ebreve" unicode="&#x114;" horiz-adv-x="635" 
d="M151 339v-285h428v-54h-486v703h476v-54h-418v-258h378v-52h-378zM415 909h46q0 -60 -34 -98t-92 -38t-92 38t-34 98h46q0 -41 22.5 -66.5t57.5 -25.5t57.5 25.5t22.5 66.5z" />
    <glyph glyph-name="ebreve" unicode="&#x115;" horiz-adv-x="633" 
d="M51 254q0 117 76 193t193 76q115 0 188.5 -76t73.5 -193v-21h-475q6 -89 65 -145.5t147 -56.5q65 0 120 36.5t74 91.5l54 -9q-24 -74 -93.5 -122t-152.5 -48q-118 0 -194 77.5t-76 196.5zM108 283h417q-8 83 -65.5 135.5t-141.5 52.5q-85 0 -143.5 -52.5t-66.5 -135.5z
M400 714h47q0 -65 -33.5 -108t-92.5 -43t-93 43t-34 108h47q0 -47 22.5 -77t57.5 -30q34 0 56.5 30t22.5 77z" />
    <glyph glyph-name="Edotaccent" unicode="&#x116;" horiz-adv-x="635" 
d="M151 339v-285h428v-54h-486v703h476v-54h-418v-258h378v-52h-378zM335 788q-19 0 -30.5 11t-11.5 29q1 18 12.5 29t29.5 11q19 0 30.5 -11t11.5 -29t-11.5 -29t-30.5 -11z" />
    <glyph glyph-name="edotaccent" unicode="&#x117;" horiz-adv-x="633" 
d="M51 254q0 117 76 193t193 76q115 0 188.5 -76t73.5 -193v-21h-475q6 -89 65 -145.5t147 -56.5q65 0 120 36.5t74 91.5l54 -9q-24 -74 -93.5 -122t-152.5 -48q-118 0 -194 77.5t-76 196.5zM108 283h417q-8 83 -65.5 135.5t-141.5 52.5q-85 0 -143.5 -52.5t-66.5 -135.5z
M321 593q-18 0 -30 11.5t-12 30.5q0 18 12 29.5t30 11.5q19 0 30.5 -11.5t11.5 -29.5q0 -19 -11.5 -30.5t-30.5 -11.5z" />
    <glyph glyph-name="Eogonek" unicode="&#x118;" horiz-adv-x="635" 
d="M442 0h-349v703h476v-54h-418v-258h378v-52h-378v-285h428v-54h-68q-50 -15 -76.5 -44t-26.5 -66q0 -54 48 -88.5t123 -36.5v-44q-93 0 -153 46t-60 117q2 76 76 116z" />
    <glyph glyph-name="eogonek" unicode="&#x119;" horiz-adv-x="633" 
d="M318 -20q-116 1 -191.5 78t-75.5 196q0 117 76 193t193 76q115 0 188.5 -76t73.5 -193v-21h-475q6 -89 65 -145.5t147 -56.5q65 0 120 36.5t74 91.5l54 -9q-19 -59 -68.5 -102.5t-113.5 -59.5q-72 -32 -72 -99q-1 -54 47 -88.5t124 -36.5v-44q-93 0 -153 46t-60 117
q0 58 47 97zM108 283h417q-8 83 -65.5 135.5t-141.5 52.5q-85 0 -143.5 -52.5t-66.5 -135.5z" />
    <glyph glyph-name="Ecaron" unicode="&#x11a;" horiz-adv-x="635" 
d="M151 339v-285h428v-54h-486v703h476v-54h-418v-258h378v-52h-378zM432 935h57l-123 -162h-63l-122 162h57l97 -128z" />
    <glyph glyph-name="ecaron" unicode="&#x11b;" horiz-adv-x="633" 
d="M51 254q0 117 76 193t193 76q115 0 188.5 -76t73.5 -193v-21h-475q6 -89 65 -145.5t147 -56.5q65 0 120 36.5t74 91.5l54 -9q-24 -74 -93.5 -122t-152.5 -48q-118 0 -194 77.5t-76 196.5zM108 283h417q-8 83 -65.5 135.5t-141.5 52.5q-85 0 -143.5 -52.5t-66.5 -135.5z
M418 725h57l-123 -162h-63l-122 162h57l97 -128z" />
    <glyph glyph-name="Gcircumflex" unicode="&#x11c;" horiz-adv-x="861" 
d="M436 29q131 0 217.5 86.5t86.5 218.5h-305v51h364q11 -178 -91.5 -294t-271.5 -116q-163 0 -269 106t-106 270t106 270.5t269 106.5q121 0 215 -70.5t116 -179.5l-55 -10q-23 89 -101 147.5t-175 58.5q-138 0 -227 -91t-89 -232q0 -139 89 -230.5t227 -91.5zM339 773h-61
l126 142h63l126 -142h-60l-98 109z" />
    <glyph glyph-name="gcircumflex" unicode="&#x11d;" horiz-adv-x="664" 
d="M323 -199q89 0 145 56t56 147v102q-32 -58 -87 -90.5t-125 -32.5q-114 0 -187.5 76t-73.5 192q0 118 73.5 194.5t187.5 76.5q70 0 125.5 -33t87.5 -90v104h55v-499q0 -114 -71.5 -184t-183.5 -70q-100 0 -173 55.5t-86 141.5l54 7q10 -67 68 -110t135 -43zM316 34
q91 0 150.5 61.5t59.5 155.5q0 96 -59.5 158t-150.5 62q-92 0 -151 -62t-59 -158q0 -94 60 -155.5t150 -61.5zM218 563h-56l122 162h63l123 -162h-58l-96 128z" />
    <glyph glyph-name="Gbreve" unicode="&#x11e;" horiz-adv-x="861" 
d="M436 29q131 0 217.5 86.5t86.5 218.5h-305v51h364q11 -178 -91.5 -294t-271.5 -116q-163 0 -269 106t-106 270t106 270.5t269 106.5q121 0 215 -70.5t116 -179.5l-55 -10q-23 89 -101 147.5t-175 58.5q-138 0 -227 -91t-89 -232q0 -139 89 -230.5t227 -91.5zM516 909h46
q0 -60 -34 -98t-92 -38t-92.5 38t-34.5 98h47q0 -41 22.5 -66.5t57.5 -25.5t57.5 25.5t22.5 66.5z" />
    <glyph glyph-name="gbreve" unicode="&#x11f;" horiz-adv-x="664" 
d="M323 -199q89 0 145 56t56 147v102q-32 -58 -87 -90.5t-125 -32.5q-114 0 -187.5 76t-73.5 192q0 118 73.5 194.5t187.5 76.5q70 0 125.5 -33t87.5 -90v104h55v-499q0 -114 -71.5 -184t-183.5 -70q-100 0 -173 55.5t-86 141.5l54 7q10 -67 68 -110t135 -43zM316 34
q91 0 150.5 61.5t59.5 155.5q0 96 -59.5 158t-150.5 62q-92 0 -151 -62t-59 -158q0 -94 60 -155.5t150 -61.5zM395 714h46q0 -65 -33.5 -108t-92.5 -43t-92.5 43t-33.5 108h46q0 -47 22.5 -77t57.5 -30t57.5 30.5t22.5 76.5z" />
    <glyph glyph-name="Gdotaccent" unicode="&#x120;" horiz-adv-x="861" 
d="M436 29q131 0 217.5 86.5t86.5 218.5h-305v51h364q11 -178 -91.5 -294t-271.5 -116q-163 0 -269 106t-106 270t106 270.5t269 106.5q121 0 215 -70.5t116 -179.5l-55 -10q-23 89 -101 147.5t-175 58.5q-138 0 -227 -91t-89 -232q0 -139 89 -230.5t227 -91.5zM436 788
q-19 0 -30.5 11t-11.5 29t11.5 29t30.5 11t30.5 -11t11.5 -29t-11.5 -29t-30.5 -11z" />
    <glyph glyph-name="gdotaccent" unicode="&#x121;" horiz-adv-x="664" 
d="M323 -199q89 0 145 56t56 147v102q-32 -58 -87 -90.5t-125 -32.5q-114 0 -187.5 76t-73.5 192q0 118 73.5 194.5t187.5 76.5q70 0 125.5 -33t87.5 -90v104h55v-499q0 -114 -71.5 -184t-183.5 -70q-100 0 -173 55.5t-86 141.5l54 7q10 -67 68 -110t135 -43zM316 34
q91 0 150.5 61.5t59.5 155.5q0 96 -59.5 158t-150.5 62q-92 0 -151 -62t-59 -158q0 -94 60 -155.5t150 -61.5zM316 593q-19 0 -30.5 11.5t-11.5 30.5q0 18 11.5 29.5t30.5 11.5q18 0 30 -11.5t12 -29.5q0 -19 -12 -30.5t-30 -11.5z" />
    <glyph glyph-name="Gcommaaccent" unicode="&#x122;" horiz-adv-x="861" 
d="M436 29q131 0 217.5 86.5t86.5 218.5h-305v51h364q11 -178 -91.5 -294t-271.5 -116q-163 0 -269 106t-106 270t106 270.5t269 106.5q121 0 215 -70.5t116 -179.5l-55 -10q-23 89 -101 147.5t-175 58.5q-138 0 -227 -91t-89 -232q0 -139 89 -230.5t227 -91.5zM439 -157
q-17 0 -28.5 11t-11.5 28t10.5 27.5t26.5 10.5q19 0 31 -15t12 -39q0 -65 -51 -113l-22 17q33 36 33 73z" />
    <glyph glyph-name="gcommaaccent" unicode="&#x123;" horiz-adv-x="664" 
d="M323 -199q89 0 145 56t56 147v102q-32 -58 -87 -90.5t-125 -32.5q-114 0 -187.5 76t-73.5 192q0 118 73.5 194.5t187.5 76.5q70 0 125.5 -33t87.5 -90v104h55v-499q0 -114 -71.5 -184t-183.5 -70q-100 0 -173 55.5t-86 141.5l54 7q10 -67 68 -110t135 -43zM316 34
q91 0 150.5 61.5t59.5 155.5q0 96 -59.5 158t-150.5 62q-92 0 -151 -62t-59 -158q0 -94 60 -155.5t150 -61.5zM318 639q18 0 28.5 -10.5t10.5 -28.5q0 -17 -10 -27.5t-26 -10.5q-19 0 -31 15t-12 39q-1 64 51 113l22 -17q-33 -36 -33 -73z" />
    <glyph glyph-name="Itilde" unicode="&#x128;" horiz-adv-x="254" 
d="M93 703h59v-703h-59v703zM-10 807l-34 24q12 26 40 42.5t61 16.5q35 0 74 -26.5t64 -26.5q47 0 67 41l35 -22q-12 -27 -40.5 -44t-64.5 -17q-38 0 -76 26.5t-60 26.5q-42 0 -66 -41z" />
    <glyph glyph-name="itilde" unicode="&#x129;" horiz-adv-x="236" 
d="M79 503h55v-503h-55v503zM-18 595l-34 19q12 26 39 42.5t58 16.5q34 0 77.5 -29.5t66.5 -29.5q21 0 38 10.5t25 27.5l36 -18q-12 -27 -40 -44.5t-62 -17.5q-37 0 -79 29.5t-65 29.5q-41 0 -60 -36z" />
    <glyph glyph-name="Imacron" unicode="&#x12a;" horiz-adv-x="242" 
d="M91 703h59v-703h-59v703zM278 845v-42h-314v42h314z" />
    <glyph glyph-name="imacron" unicode="&#x12b;" horiz-adv-x="213" 
d="M79 503h55v-503h-55v503zM263 635v-42h-314v42h314z" />
    <glyph glyph-name="Iogonek" unicode="&#x12e;" horiz-adv-x="245" 
d="M92 7v696h59v-703h-4q-52 -15 -78.5 -44t-26.5 -66q0 -55 48 -89.5t124 -35.5v-45q-93 0 -153 46t-60 117q0 41 24.5 74t66.5 50z" />
    <glyph glyph-name="iogonek" unicode="&#x12f;" horiz-adv-x="225" 
d="M88 9v494h55v-503h-3q-52 -14 -79 -43.5t-27 -67.5q0 -54 48 -88.5t123 -36.5v-44q-93 0 -153 46t-60 117q0 41 26 75t70 51zM115 604q-18 0 -30 11.5t-12 30.5q0 18 12 29.5t30 11.5q19 0 30.5 -11.5t11.5 -29.5q0 -19 -11.5 -30.5t-30.5 -11.5z" />
    <glyph glyph-name="Idotaccent" unicode="&#x130;" horiz-adv-x="245" 
d="M93 703h59v-703h-59v703zM122 788q-19 0 -30.5 11t-11.5 29q1 18 12.5 29t29.5 11q19 0 30.5 -11t11.5 -29t-11.5 -29t-30.5 -11z" />
    <glyph glyph-name="dotlessi" unicode="&#x131;" horiz-adv-x="212" 
d="M79 503h55v-503h-55v503z" />
    <glyph glyph-name="IJ" unicode="&#x132;" horiz-adv-x="668" 
d="M93 703h59v-703h-59v703zM522 211v492h59v-492q0 -107 -56.5 -169t-146.5 -62q-59 0 -122 20v53q62 -19 114 -19q69 0 110.5 46t41.5 131z" />
    <glyph glyph-name="ij" unicode="&#x133;" horiz-adv-x="409" 
d="M93 503h55v-503h-55v503zM301 -91v594h56v-598q0 -56 -33.5 -92t-86.5 -36q-40 0 -77 13l1 51q33 -12 65 -12q34 0 54.5 22.5t20.5 57.5zM121 604q-19 0 -30.5 11.5t-11.5 30.5q0 18 11.5 29.5t30.5 11.5q18 0 30 -11.5t12 -29.5q0 -19 -12 -30.5t-30 -11.5zM329 604
q-18 0 -30 11.5t-12 30.5q0 18 11.5 29.5t30.5 11.5q18 0 30 -11.5t12 -29.5q0 -19 -12 -30.5t-30 -11.5z" />
    <glyph glyph-name="Kcommaaccent" unicode="&#x136;" horiz-adv-x="583" 
d="M93 0v703h59v-306l316 306h80l-346 -332l354 -371h-78l-326 345v-345h-59zM308 -161q-18 0 -28.5 10t-10.5 28q0 17 10 27.5t27 10.5q19 0 31 -15t12 -38q0 -65 -52 -114l-22 18q33 35 33 73z" />
    <glyph glyph-name="kcommaaccent" unicode="&#x137;" horiz-adv-x="505" 
d="M84 0v733h56v-442l241 212h77l-270 -237l279 -266h-76l-251 240v-240h-56zM271 -153q-17 0 -28 11t-11 28t10 27.5t27 10.5q19 0 31 -15t12 -38q0 -66 -51 -114l-23 18q33 35 33 72z" />
    <glyph glyph-name="Lacute" unicode="&#x139;" horiz-adv-x="566" 
d="M531 0h-438v703h59v-649h379v-54zM200 915h66l-109 -142h-64z" />
    <glyph glyph-name="lacute" unicode="&#x13a;" horiz-adv-x="331" 
d="M84 733h56v-733h-56v733zM186 918h66l-109 -143h-64z" />
    <glyph glyph-name="Lcommaaccent" unicode="&#x13b;" horiz-adv-x="566" 
d="M531 0h-438v703h59v-649h379v-54zM317 -161q-18 0 -28.5 10t-10.5 28q0 17 10 27.5t27 10.5q19 0 31 -15t12 -38q0 -65 -52 -114l-22 18q33 35 33 73z" />
    <glyph glyph-name="lcommaaccent" unicode="&#x13c;" horiz-adv-x="230" 
d="M84 733h56v-733h-56v733zM115 -156q-18 0 -29 10t-11 28q0 17 10 27.5t27 10.5q19 0 31 -15t12 -38q0 -66 -51 -114l-22 18q33 35 33 73z" />
    <glyph glyph-name="Lcaron" unicode="&#x13d;" horiz-adv-x="566" 
d="M531 0h-438v703h59v-649h379v-54zM307 644q-17 0 -28 11t-11 28t10 27.5t26 10.5q19 0 31 -15t12 -39q0 -65 -51 -113l-22 17q33 36 33 73z" />
    <glyph glyph-name="lcaron" unicode="&#x13e;" horiz-adv-x="319" 
d="M84 733h56v-733h-56v733zM250 640q-17 0 -28 11t-11 28t10.5 27.5t26.5 10.5q19 0 31 -15t12 -39q0 -65 -51 -113l-23 17q33 36 33 73z" />
    <glyph glyph-name="Lslash" unicode="&#x141;" horiz-adv-x="498" 
d="M25 254l110 72v377h59v-338l360 234v-58l-360 -234v-253h379v-54h-438v268l-110 -71v57z" />
    <glyph glyph-name="lslash" unicode="&#x142;" horiz-adv-x="404" 
d="M391 487l-162 -105v-382h-55v347l-161 -105v58l161 104v329h55v-293l162 105v-58z" />
    <glyph glyph-name="Nacute" unicode="&#x143;" horiz-adv-x="722" 
d="M171 703l399 -630v630h59v-703h-78l-399 629v-629h-59v703h78zM434 915h66l-109 -142h-64z" />
    <glyph glyph-name="nacute" unicode="&#x144;" 
d="M84 503h56v-84q25 47 76 75.5t110 28.5q94 0 148.5 -63t54.5 -164v-296h-55v296q0 79 -40 127t-112 48q-74 0 -128 -50t-54 -124v-297h-56v503zM395 725h64l-122 -162h-60z" />
    <glyph glyph-name="Ncommaaccent" unicode="&#x145;" horiz-adv-x="722" 
d="M171 703l399 -630v630h59v-703h-78l-399 629v-629h-59v703h78zM364 -162q-18 0 -29 10t-11 28q0 17 10 27.5t27 10.5q19 0 31 -15t12 -38q0 -66 -51 -114l-23 18q34 36 34 73z" />
    <glyph glyph-name="ncommaaccent" unicode="&#x146;" 
d="M84 503h56v-84q25 47 76 75.5t110 28.5q94 0 148.5 -63t54.5 -164v-296h-55v296q0 79 -40 127t-112 48q-74 0 -128 -50t-54 -124v-297h-56v503zM312 -163q-17 0 -28 11t-11 28t10 27.5t27 10.5q19 0 31 -15t12 -38q0 -66 -51 -114l-23 18q33 33 33 72z" />
    <glyph glyph-name="Ncaron" unicode="&#x147;" horiz-adv-x="722" 
d="M171 703l399 -630v630h59v-703h-78l-399 629v-629h-59v703h78zM461 935h57l-123 -162h-63l-122 162h57l97 -128z" />
    <glyph glyph-name="ncaron" unicode="&#x148;" 
d="M84 503h56v-84q25 47 76 75.5t110 28.5q94 0 148.5 -63t54.5 -164v-296h-55v296q0 79 -40 127t-112 48q-74 0 -128 -50t-54 -124v-297h-56v503zM413 725h57l-122 -162h-63l-122 162h56l97 -128z" />
    <glyph glyph-name="Omacron" unicode="&#x14c;" horiz-adv-x="872" 
d="M436 -25q-164 0 -269.5 106t-105.5 270t105.5 270.5t269.5 106.5q163 0 269 -106.5t106 -270.5t-105.5 -270t-269.5 -106zM436 674q-138 0 -227 -91t-89 -232q0 -140 89 -231t227 -91t227 91t89 231q0 141 -89 232t-227 91zM593 845v-42h-314v42h314z" />
    <glyph glyph-name="omacron" unicode="&#x14d;" horiz-adv-x="632" 
d="M316 523q115 0 190 -76.5t75 -195.5q0 -118 -74.5 -194.5t-190.5 -76.5t-190.5 76t-74.5 195t74.5 195.5t190.5 76.5zM316 31q91 0 150.5 62.5t59.5 157.5q0 96 -59 158t-151 62t-151 -62t-59 -158q0 -95 59.5 -157.5t150.5 -62.5zM473 635v-42h-314v42h314z" />
    <glyph glyph-name="Obreve" unicode="&#x14e;" horiz-adv-x="872" 
d="M436 -25q-164 0 -269.5 106t-105.5 270t105.5 270.5t269.5 106.5q163 0 269 -106.5t106 -270.5t-105.5 -270t-269.5 -106zM436 674q-138 0 -227 -91t-89 -232q0 -140 89 -231t227 -91t227 91t89 231q0 141 -89 232t-227 91zM516 909h46q0 -60 -34 -98t-92 -38t-92 38
t-34 98h46q0 -41 22.5 -66.5t57.5 -25.5t57.5 25.5t22.5 66.5z" />
    <glyph glyph-name="obreve" unicode="&#x14f;" horiz-adv-x="632" 
d="M316 523q115 0 190 -76.5t75 -195.5q0 -118 -74.5 -194.5t-190.5 -76.5t-190.5 76t-74.5 195t74.5 195.5t190.5 76.5zM316 31q91 0 150.5 62.5t59.5 157.5q0 96 -59 158t-151 62t-151 -62t-59 -158q0 -95 59.5 -157.5t150.5 -62.5zM395 714h47q0 -65 -33.5 -108
t-92.5 -43t-93 43t-34 108h47q0 -47 22.5 -77t57.5 -30q34 0 56.5 30t22.5 77z" />
    <glyph glyph-name="Ohungarumlaut" unicode="&#x150;" horiz-adv-x="872" 
d="M436 -25q-164 0 -269.5 106t-105.5 270t105.5 270.5t269.5 106.5q163 0 269 -106.5t106 -270.5t-105.5 -270t-269.5 -106zM436 674q-138 0 -227 -91t-89 -232q0 -140 89 -231t227 -91t227 91t89 231q0 141 -89 232t-227 91zM429 915h61l-112 -142h-55zM581 915h60
l-115 -142h-54z" />
    <glyph glyph-name="ohungarumlaut" unicode="&#x151;" horiz-adv-x="630" 
d="M315 523q115 0 190 -76.5t75 -195.5q0 -118 -74.5 -194.5t-190.5 -76.5t-190.5 76t-74.5 195t74.5 195.5t190.5 76.5zM315 31q91 0 150.5 62.5t59.5 157.5q0 96 -59 158t-151 62t-151 -62t-59 -158q0 -95 59.5 -157.5t150.5 -62.5zM329 743h63l-134 -180h-56zM481 743
l61 -1l-135 -179h-56z" />
    <glyph glyph-name="OE" unicode="&#x152;" horiz-adv-x="1061" 
d="M61 351q0 163 104 267.5t266 104.5q66 0 124 -20h441v-54h-386v-267h346v-51h-346v-277h396v-54h-451q-58 -21 -124 -21q-162 0 -266 104.5t-104 267.5zM551 54v594q-52 21 -118 21q-136 0 -224.5 -89t-88.5 -229q0 -139 87.5 -228t221.5 -89q73 0 122 20z" />
    <glyph glyph-name="oe" unicode="&#x153;" horiz-adv-x="1109" 
d="M554 126q-31 -68 -94 -107t-144 -39q-116 0 -190.5 76t-74.5 195t74.5 195.5t190.5 76.5q80 0 142.5 -38.5t95.5 -106.5q32 67 96 106t145 39q115 0 189 -76t74 -193q0 -14 -1 -21h-474q6 -89 65 -145.5t146 -56.5q65 0 119.5 36t74.5 92l54 -9q-23 -74 -93 -122
t-153 -48q-82 0 -145.5 39t-96.5 107zM316 31q91 0 150.5 62.5t59.5 157.5q0 96 -59 158t-151 62t-151 -62t-59 -158q0 -95 59.5 -157.5t150.5 -62.5zM583 283h417q-8 83 -65 135.5t-141 52.5q-86 0 -144 -52t-67 -136z" />
    <glyph glyph-name="Racute" unicode="&#x154;" horiz-adv-x="708" 
d="M152 0h-59v703h301q110 0 179.5 -60.5t69.5 -156.5q0 -78 -50 -134t-131 -71l181 -281h-70l-172 273l-249 -1v-272zM391 649h-239v-323h239q86 0 139.5 44.5t53.5 115.5q0 74 -53.5 118.5t-139.5 44.5zM427 915h66l-109 -142h-64z" />
    <glyph glyph-name="racute" unicode="&#x155;" horiz-adv-x="403" 
d="M84 503h54v-79q43 98 141 98q36 0 73 -16v-53q-39 18 -76 18q-62 0 -99 -51t-37 -134v-286h-56v503zM303 725h64l-123 -162h-60z" />
    <glyph glyph-name="Rcommaaccent" unicode="&#x156;" horiz-adv-x="708" 
d="M152 0h-59v703h301q110 0 179.5 -60.5t69.5 -156.5q0 -78 -50 -134t-131 -71l181 -281h-70l-172 273l-249 -1v-272zM391 649h-239v-323h239q86 0 139.5 44.5t53.5 115.5q0 74 -53.5 118.5t-139.5 44.5zM360 -162q-18 0 -28.5 10.5t-10.5 28.5q0 17 10 27.5t26 10.5
q19 0 31 -15t12 -39q0 -65 -51 -113l-22 17q33 36 33 73z" />
    <glyph glyph-name="rcommaaccent" unicode="&#x157;" horiz-adv-x="379" 
d="M84 503h54v-79q43 98 141 98q36 0 73 -16v-53q-39 18 -76 18q-62 0 -99 -51t-37 -134v-286h-56v503zM115 -156q-18 0 -29 10t-11 28q0 17 10.5 28t26.5 11q19 0 31 -15.5t12 -38.5q0 -66 -51 -114l-23 18q34 36 34 73z" />
    <glyph glyph-name="Rcaron" unicode="&#x158;" horiz-adv-x="708" 
d="M152 0h-59v703h301q110 0 179.5 -60.5t69.5 -156.5q0 -78 -50 -134t-131 -71l181 -281h-70l-172 273l-249 -1v-272zM391 649h-239v-323h239q86 0 139.5 44.5t53.5 115.5q0 74 -53.5 118.5t-139.5 44.5zM454 935h57l-123 -162h-63l-122 162h57l97 -128z" />
    <glyph glyph-name="rcaron" unicode="&#x159;" horiz-adv-x="388" 
d="M84 503h54v-79q43 98 141 98q36 0 73 -16v-53q-39 18 -76 18q-62 0 -99 -51t-37 -134v-286h-56v503zM315 725h57l-123 -162h-62l-123 162h57l97 -128z" />
    <glyph glyph-name="Sacute" unicode="&#x15a;" horiz-adv-x="696" 
d="M627 200q0 -100 -75 -162.5t-197 -62.5q-125 0 -206 70.5t-81 179.5h59q0 -86 64.5 -141t165.5 -55q95 0 153 45.5t58 119.5q0 25 -7.5 44.5t-25 33t-34 22t-47.5 15.5t-50.5 10t-57.5 8q-49 6 -79 11.5t-70 19t-62 31.5t-38.5 50t-16.5 75q0 93 72.5 153.5t188.5 60.5
q119 0 197 -66.5t78 -167.5l-57 -1q0 79 -62 130t-157 51q-90 -1 -145.5 -44t-55.5 -111q0 -30 13 -53t30.5 -35.5t51.5 -22.5t58.5 -14t69.5 -10q42 -6 66 -10t59.5 -13t56.5 -21.5t42.5 -31t31 -46t9.5 -62.5zM414 915h66l-108 -142h-65z" />
    <glyph glyph-name="sacute" unicode="&#x15b;" horiz-adv-x="526" 
d="M473 140q0 -70 -57 -115t-145 -45q-94 0 -155 51.5t-61 131.5h54q0 -58 45.5 -95t116.5 -37q64 0 106 30t42 75q0 25 -14 43t-40.5 28.5t-49 15.5t-54.5 9q-37 5 -60.5 10t-51.5 15t-43.5 24t-26.5 37t-11 53q0 66 53.5 109t134.5 43q89 0 147.5 -48t58.5 -121l-55 1
q0 51 -42.5 83.5t-108.5 32.5q-57 0 -95.5 -28.5t-38.5 -72.5q0 -39 34.5 -57t110.5 -29q35 -5 57.5 -10t53.5 -16t49.5 -25t32 -38t13.5 -55zM339 725h64l-122 -162h-61z" />
    <glyph glyph-name="Scircumflex" unicode="&#x15c;" horiz-adv-x="696" 
d="M627 200q0 -100 -75 -162.5t-197 -62.5q-125 0 -206 70.5t-81 179.5h59q0 -86 64.5 -141t165.5 -55q95 0 153 45.5t58 119.5q0 25 -7.5 44.5t-25 33t-34 22t-47.5 15.5t-50.5 10t-57.5 8q-49 6 -79 11.5t-70 19t-62 31.5t-38.5 50t-16.5 75q0 93 72.5 153.5t188.5 60.5
q119 0 197 -66.5t78 -167.5l-57 -1q0 79 -62 130t-157 51q-90 -1 -145.5 -44t-55.5 -111q0 -30 13 -53t30.5 -35.5t51.5 -22.5t58.5 -14t69.5 -10q42 -6 66 -10t59.5 -13t56.5 -21.5t42.5 -31t31 -46t9.5 -62.5zM247 773h-61l126 142h64l125 -142h-59l-98 109z" />
    <glyph glyph-name="scircumflex" unicode="&#x15d;" horiz-adv-x="526" 
d="M473 140q0 -70 -57 -115t-145 -45q-94 0 -155 51.5t-61 131.5h54q0 -58 45.5 -95t116.5 -37q64 0 106 30t42 75q0 25 -14 43t-40.5 28.5t-49 15.5t-54.5 9q-37 5 -60.5 10t-51.5 15t-43.5 24t-26.5 37t-11 53q0 66 53.5 109t134.5 43q89 0 147.5 -48t58.5 -121l-55 1
q0 51 -42.5 83.5t-108.5 32.5q-57 0 -95.5 -28.5t-38.5 -72.5q0 -39 34.5 -57t110.5 -29q35 -5 57.5 -10t53.5 -16t49.5 -25t32 -38t13.5 -55zM158 563h-57l123 162h62l123 -162h-57l-97 128z" />
    <glyph glyph-name="Scedilla" unicode="&#x15e;" horiz-adv-x="696" 
d="M349 -95h-38l8 72q-111 11 -181 79.5t-70 168.5h59q0 -86 64.5 -141t165.5 -55q95 0 153 45.5t58 119.5q0 25 -7.5 44.5t-25 33t-34 22t-47.5 15.5t-50.5 10t-57.5 8q-49 6 -79 11.5t-70 19t-62 31.5t-38.5 50t-16.5 75q0 93 72.5 153.5t188.5 60.5q119 0 197 -66.5
t78 -167.5l-57 -1q0 79 -62 130t-157 51q-90 -1 -145.5 -44t-55.5 -111q0 -30 13 -53t30.5 -35.5t51.5 -22.5t58.5 -14t69.5 -10q42 -6 66 -10t59.5 -13t56.5 -21.5t42.5 -31t31 -46t9.5 -62.5q0 -99 -74 -161.5t-194 -63.5l-4 -38q52 0 83.5 -29.5t31.5 -77.5
q0 -44 -30 -72t-77 -28q-41 0 -70 23t-37 60l36 9q7 -25 26 -40t44 -15q29 0 47.5 18t18.5 46q0 34 -21.5 54t-57.5 20z" />
    <glyph glyph-name="scedilla" unicode="&#x15f;" horiz-adv-x="526" 
d="M272 -95h-38l9 76q-84 8 -136 58.5t-52 123.5h54q0 -58 45.5 -95t116.5 -37q64 0 106 30t42 75q0 25 -14 43t-40.5 28.5t-49 15.5t-54.5 9q-37 5 -60.5 10t-51.5 15t-43.5 24t-26.5 37t-11 53q0 66 53.5 109t134.5 43q89 0 147.5 -48t58.5 -121l-55 1q0 51 -42.5 83.5
t-108.5 32.5q-57 0 -95.5 -28.5t-38.5 -72.5q0 -39 34.5 -57t110.5 -29q35 -5 57.5 -10t53.5 -16t49.5 -25t32 -38t13.5 -55q0 -67 -53 -111.5t-137 -48.5l-5 -43q52 0 83.5 -29.5t31.5 -77.5q0 -44 -30 -72t-77 -28q-41 0 -70 23t-37 60l36 9q7 -25 26 -40t44 -15
q29 0 47.5 18t18.5 46q0 34 -21.5 54t-57.5 20z" />
    <glyph glyph-name="Scaron" unicode="&#x160;" horiz-adv-x="696" 
d="M627 200q0 -100 -75 -162.5t-197 -62.5q-125 0 -206 70.5t-81 179.5h59q0 -86 64.5 -141t165.5 -55q95 0 153 45.5t58 119.5q0 25 -7.5 44.5t-25 33t-34 22t-47.5 15.5t-50.5 10t-57.5 8q-49 6 -79 11.5t-70 19t-62 31.5t-38.5 50t-16.5 75q0 93 72.5 153.5t188.5 60.5
q119 0 197 -66.5t78 -167.5l-57 -1q0 79 -62 130t-157 51q-90 -1 -145.5 -44t-55.5 -111q0 -30 13 -53t30.5 -35.5t51.5 -22.5t58.5 -14t69.5 -10q42 -6 66 -10t59.5 -13t56.5 -21.5t42.5 -31t31 -46t9.5 -62.5zM441 935h57l-123 -162h-62l-122 162h56l97 -128z" />
    <glyph glyph-name="scaron" unicode="&#x161;" horiz-adv-x="526" 
d="M473 140q0 -70 -57 -115t-145 -45q-94 0 -155 51.5t-61 131.5h54q0 -58 45.5 -95t116.5 -37q64 0 106 30t42 75q0 25 -14 43t-40.5 28.5t-49 15.5t-54.5 9q-37 5 -60.5 10t-51.5 15t-43.5 24t-26.5 37t-11 53q0 66 53.5 109t134.5 43q89 0 147.5 -48t58.5 -121l-55 1
q0 51 -42.5 83.5t-108.5 32.5q-57 0 -95.5 -28.5t-38.5 -72.5q0 -39 34.5 -57t110.5 -29q35 -5 57.5 -10t53.5 -16t49.5 -25t32 -38t13.5 -55zM351 725h58l-123 -162h-63l-122 162h56l98 -128z" />
    <glyph glyph-name="Tcommaaccent" unicode="&#x162;" horiz-adv-x="585" 
d="M263 0v649h-242v54h543v-54h-242v-649h-59zM294 -163q-18 0 -29 11t-11 28t10 27.5t27 10.5q19 0 31 -15t12 -38q0 -66 -51 -114l-23 18q34 34 34 72z" />
    <glyph glyph-name="tcommaaccent" unicode="&#x163;" horiz-adv-x="371" 
d="M121 114v341h-86v47h88l6 116h47v-116h135v-47h-135v-340q0 -38 21.5 -61.5t57.5 -24.5q32 0 65 10v-48q-31 -11 -75 -11q-56 0 -90 36.5t-34 97.5zM231 -163q-17 0 -28 11t-11 28t10 27.5t27 10.5q19 0 31 -15t12 -38q0 -65 -52 -114l-22 18q33 35 33 72z" />
    <glyph glyph-name="Tcaron" unicode="&#x164;" horiz-adv-x="585" 
d="M263 0v649h-242v54h543v-54h-242v-649h-59zM389 918h58l-123 -163h-63l-122 163h56l98 -128z" />
    <glyph glyph-name="tcaron" unicode="&#x165;" horiz-adv-x="367" 
d="M121 114v341h-86v47h88l6 116h47v-116h135v-47h-135v-340q0 -38 21.5 -61.5t57.5 -24.5q32 0 65 10v-48q-31 -11 -75 -11q-56 0 -90 36.5t-34 97.5zM274 641q-18 0 -29 10.5t-11 28.5q0 17 10.5 27.5t26.5 10.5q19 0 31 -15.5t12 -38.5q0 -65 -51 -113l-22 17
q33 36 33 73z" />
    <glyph glyph-name="Utilde" unicode="&#x168;" horiz-adv-x="723" 
d="M579 283v420h59v-420q0 -136 -77 -222t-199 -86q-123 0 -200 85.5t-77 222.5v420h59v-420q0 -111 60 -182.5t158 -71.5t157.5 70t59.5 184zM229 807l-34 24q12 26 40 42.5t61 16.5q35 0 74 -26.5t64 -26.5q47 0 66 41l36 -22q-12 -27 -40.5 -44t-64.5 -17q-38 0 -76 26.5
t-60 26.5q-42 0 -66 -41z" />
    <glyph glyph-name="utilde" unicode="&#x169;" 
d="M519 0h-55v84q-25 -48 -76 -76t-111 -28q-94 0 -148.5 63t-54.5 163v297h56v-297q0 -78 40 -126.5t112 -48.5q74 0 128 50t54 124v298h55v-503zM172 594l-34 20q13 26 40 42.5t57 16.5q34 0 77.5 -29.5t66.5 -29.5q45 0 64 38l35 -18q-11 -27 -39.5 -44.5t-62.5 -17.5
q-37 0 -79 29.5t-65 29.5q-19 0 -35.5 -10t-24.5 -27z" />
    <glyph glyph-name="Umacron" unicode="&#x16a;" horiz-adv-x="723" 
d="M579 283v420h59v-420q0 -136 -77 -222t-199 -86q-123 0 -200 85.5t-77 222.5v420h59v-420q0 -111 60 -182.5t158 -71.5t157.5 70t59.5 184zM519 845v-42h-314v42h314z" />
    <glyph glyph-name="umacron" unicode="&#x16b;" 
d="M519 0h-55v84q-25 -48 -76 -76t-111 -28q-94 0 -148.5 63t-54.5 163v297h56v-297q0 -78 40 -126.5t112 -48.5q74 0 128 50t54 124v298h55v-503zM454 635v-43h-314v43h314z" />
    <glyph glyph-name="Ubreve" unicode="&#x16c;" horiz-adv-x="723" 
d="M579 283v420h59v-420q0 -136 -77 -222t-199 -86q-123 0 -200 85.5t-77 222.5v420h59v-420q0 -111 60 -182.5t158 -71.5t157.5 70t59.5 184zM442 909h45q1 -60 -33 -98t-92 -38t-92.5 38t-34.5 98h46q0 -40 23 -66t58 -26t57.5 26t22.5 66z" />
    <glyph glyph-name="ubreve" unicode="&#x16d;" 
d="M519 0h-55v84q-25 -48 -76 -76t-111 -28q-94 0 -148.5 63t-54.5 163v297h56v-297q0 -78 40 -126.5t112 -48.5q74 0 128 50t54 124v298h55v-503zM376 713h47q0 -64 -34 -107.5t-93 -43.5t-92.5 43.5t-33.5 107.5h47q0 -46 22 -76t57 -30t57.5 29.5t22.5 76.5z" />
    <glyph glyph-name="Uring" unicode="&#x16e;" horiz-adv-x="723" 
d="M579 283v420h59v-420q0 -136 -77 -222t-199 -86q-123 0 -200 85.5t-77 222.5v420h59v-420q0 -111 60 -182.5t158 -71.5t157.5 70t59.5 184zM362 763q-52 0 -85.5 32.5t-33.5 82.5t33.5 82.5t85.5 32.5q51 0 83.5 -32.5t32.5 -82.5t-32.5 -82.5t-83.5 -32.5zM361 954
q-33 0 -54.5 -21.5t-21.5 -54.5t21.5 -54.5t54.5 -21.5t54.5 21.5t21.5 54.5t-21.5 54.5t-54.5 21.5z" />
    <glyph glyph-name="uring" unicode="&#x16f;" 
d="M519 0h-55v84q-25 -48 -76 -76t-111 -28q-94 0 -148.5 63t-54.5 163v297h56v-297q0 -78 40 -126.5t112 -48.5q74 0 128 50t54 124v298h55v-503zM297 552q-52 0 -85 32.5t-33 82.5t33 82.5t85 32.5q51 0 83.5 -32.5t32.5 -82.5t-32.5 -82.5t-83.5 -32.5zM296 743
q-33 0 -54.5 -21t-21.5 -55q0 -33 21.5 -54.5t54.5 -21.5t54.5 21.5t21.5 54.5q0 34 -21.5 55t-54.5 21z" />
    <glyph glyph-name="Uhungarumlaut" unicode="&#x170;" horiz-adv-x="723" 
d="M579 283v420h59v-420q0 -136 -77 -222t-199 -86q-123 0 -200 85.5t-77 222.5v420h59v-420q0 -111 60 -182.5t158 -71.5t157.5 70t59.5 184zM355 915h60l-112 -142h-54zM506 915h60l-114 -142h-54z" />
    <glyph glyph-name="uhungarumlaut" unicode="&#x171;" horiz-adv-x="591" 
d="M519 0h-55v84q-25 -48 -76 -76t-111 -28q-94 0 -148.5 63t-54.5 163v297h56v-297q0 -78 40 -126.5t112 -48.5q74 0 128 50t54 124v298h55v-503zM306 742h63l-134 -180h-55zM459 742h61l-136 -180h-55z" />
    <glyph glyph-name="Uogonek" unicode="&#x172;" horiz-adv-x="723" 
d="M366 -25q-126 0 -203.5 85.5t-77.5 222.5v420h59v-420q0 -111 60 -182.5t158 -71.5t157.5 70t59.5 184v420h59v-420q0 -116 -57 -197t-153 -103q-61 -34 -61 -94q0 -54 48 -88.5t123 -36.5v-44q-93 0 -153 46t-60 117q0 54 41 92z" />
    <glyph glyph-name="uogonek" unicode="&#x173;" horiz-adv-x="666" 
d="M464 10v74q-25 -48 -76 -76t-111 -28q-94 0 -148.5 63t-54.5 163v297h56v-297q0 -78 40 -126.5t112 -48.5q74 0 128 50t54 124v298h55v-503h-9q-49 -15 -74 -43.5t-25 -65.5q0 -54 48 -88.5t123 -36.5v-44q-93 0 -153 46t-60 117q0 41 25.5 74.5t69.5 50.5z" />
    <glyph glyph-name="Wcircumflex" unicode="&#x174;" horiz-adv-x="1030" 
d="M558 703l179 -656l193 656h60l-208 -703h-90l-177 638l-176 -638h-92l-208 703h61l193 -656l181 656h84zM417 773h-61l126 142h63l126 -142h-60l-98 109z" />
    <glyph glyph-name="wcircumflex" unicode="&#x175;" horiz-adv-x="873" 
d="M295 0h-74l-175 503h59l154 -447l144 447h66l147 -448l153 448h58l-175 -503h-74l-142 439zM340 563h-57l123 162h62l123 -162h-57l-97 128z" />
    <glyph glyph-name="Ycircumflex" unicode="&#x176;" horiz-adv-x="605" 
d="M273 0v275l-248 428h66l212 -370l210 370h67l-248 -428v-275h-59zM205 773h-60l126 142h63l125 -142h-59l-98 109z" />
    <glyph glyph-name="ycircumflex" unicode="&#x177;" horiz-adv-x="565" 
d="M63 -209v50q36 -12 63 -12q32 0 58 24.5t38 47.5t37 82q6 13 9 20l-232 500h62l198 -432l173 432h59l-205 -507q-18 -45 -30 -71t-30.5 -58t-36 -48.5t-42 -28.5t-53.5 -12q-37 0 -68 13zM186 563h-56l122 162h62l123 -162h-57l-97 128z" />
    <glyph glyph-name="Ydieresis" unicode="&#x178;" horiz-adv-x="605" 
d="M273 0v275l-248 428h66l212 -370l210 370h67l-248 -428v-275h-59zM197 783q-18 0 -30 11.5t-12 29.5t12 29.5t30 11.5q19 0 30.5 -11.5t11.5 -29.5t-11.5 -29.5t-30.5 -11.5zM408 783q-19 0 -30.5 11.5t-11.5 29.5t11.5 29.5t30.5 11.5q18 0 30 -11.5t12 -29.5t-12 -29.5
t-30 -11.5z" />
    <glyph glyph-name="Zacute" unicode="&#x179;" horiz-adv-x="627" 
d="M39 39l457 612h-447v52h529v-39l-456 -613h466v-51h-549v39zM384 915h66l-109 -142h-64z" />
    <glyph glyph-name="zacute" unicode="&#x17a;" horiz-adv-x="549" 
d="M51 36l353 415h-343v52h427v-37l-353 -415h363v-51h-447v36zM359 725h64l-122 -162h-61z" />
    <glyph glyph-name="Zdotaccent" unicode="&#x17b;" horiz-adv-x="627" 
d="M39 39l457 612h-447v52h529v-39l-456 -613h466v-51h-549v39zM314 788q-19 0 -30.5 11t-11.5 29t11.5 29t30.5 11q18 0 30 -11t12 -29t-12 -29t-30 -11z" />
    <glyph glyph-name="zdotaccent" unicode="&#x17c;" horiz-adv-x="549" 
d="M51 36l353 415h-343v52h427v-37l-353 -415h363v-51h-447v36zM275 593q-18 0 -30 11.5t-12 30.5q0 18 12 29.5t30 11.5q19 0 30.5 -11.5t11.5 -29.5q0 -19 -11.5 -30.5t-30.5 -11.5z" />
    <glyph glyph-name="Zcaron" unicode="&#x17d;" horiz-adv-x="627" 
d="M39 39l457 612h-447v52h529v-39l-456 -613h466v-51h-549v39zM410 935h58l-123 -162h-63l-122 162h56l98 -128z" />
    <glyph glyph-name="zcaron" unicode="&#x17e;" horiz-adv-x="549" 
d="M51 36l353 415h-343v52h427v-37l-353 -415h363v-51h-447v36zM371 725h58l-123 -162h-63l-122 162h57l97 -128z" />
    <glyph glyph-name="Aacutering" unicode="&#x1fa;" horiz-adv-x="674" 
d="M88 0h-63l270 703h83l270 -703h-62l-59 151h-381zM163 200h348l-174 449zM336 715q-39 0 -64.5 24.5t-25.5 62.5t25 62.5t64 24.5t64 -24.5t26 -62.5q0 -38 -25.5 -62.5t-63.5 -24.5zM336 850q-21 0 -34.5 -13.5t-14.5 -33.5q0 -22 13.5 -35.5t35.5 -13.5q20 0 34 14
t14 35q0 20 -13.5 33.5t-34.5 13.5zM382 995h66l-79 -96h-64z" />
    <glyph glyph-name="aacutering" unicode="&#x1fb;" horiz-adv-x="666" 
d="M526 503h55v-503h-55v108q-30 -59 -86.5 -93.5t-128.5 -34.5q-113 0 -186.5 76.5t-73.5 194.5t73.5 195t186.5 77q72 0 128.5 -34.5t86.5 -94.5v109zM316 31q90 0 150 62.5t60 157.5t-60 157.5t-150 62.5q-92 0 -151 -62t-59 -158q0 -95 59.5 -157.5t150.5 -62.5z
M327 563q-39 0 -64.5 24.5t-25.5 62.5t25.5 62.5t64.5 24.5q38 0 63.5 -25t25.5 -62t-25.5 -62t-63.5 -25zM327 698q-21 0 -34.5 -13.5t-14.5 -33.5q0 -21 14 -35t35 -14t34.5 14t13.5 35q0 20 -13.5 33.5t-34.5 13.5zM425 915h66l-109 -142h-64z" />
    <glyph glyph-name="AEacute" unicode="&#x1fc;" horiz-adv-x="909" 
d="M853 54v-54h-418v151h-265l-79 -151h-66l368 703h450v-54h-353v-267h313v-51h-313v-277h363zM435 203v454l-239 -454h239zM609 905h66l-109 -142h-64z" />
    <glyph glyph-name="aeacute" unicode="&#x1fd;" horiz-adv-x="1091" 
d="M523 398v105h47v-105q29 58 83.5 91t124.5 33q115 0 189 -74t74 -188q0 -14 -2 -38h-461q11 -86 66.5 -138.5t137.5 -52.5q65 0 118.5 35.5t70.5 90.5l51 -10q-16 -73 -84 -120t-154 -47q-72 0 -129 35t-85 95v-110h-47v104q-32 -58 -88 -91t-126 -33q-112 0 -185 76.5
t-73 194.5t73 194.5t185 76.5q70 0 126 -33t88 -91zM316 474q-92 0 -151 -63t-59 -160q0 -96 59.5 -159t150.5 -63t150.5 62t59.5 160q0 97 -59.5 160t-150.5 63zM576 270h409q-1 87 -60 144t-148 57q-85 0 -141 -57.5t-60 -143.5zM628 733l64 -1l-123 -162h-60z" />
    <glyph glyph-name="Oslashacute" unicode="&#x1fe;" horiz-adv-x="852" 
d="M221 -140h-59l81 161q-85 46 -133.5 133t-48.5 197q0 164 103 270.5t262 106.5q84 0 157 -34l83 166h59l-96 -190q76 -50 119 -133t43 -186q0 -164 -103 -270t-262 -106q-69 0 -136 24zM426 674q-133 0 -219.5 -91.5t-86.5 -231.5q0 -92 39.5 -165.5t108.5 -113.5
l290 573q-63 29 -132 29zM426 29q133 0 219.5 90.5t86.5 231.5q0 86 -34.5 155.5t-94.5 112.5l-288 -570q52 -20 111 -20zM516 905h66l-108 -142h-65z" />
    <glyph glyph-name="oslashacute" unicode="&#x1ff;" horiz-adv-x="634" 
d="M228 -6l-37 -74h-56l47 93q-61 34 -96 96.5t-35 141.5q0 119 75 195.5t191 76.5q60 0 111 -23l51 100h55l-62 -123q53 -36 82.5 -95t29.5 -131q0 -118 -75.5 -194.5t-191.5 -76.5q-47 0 -89 14zM317 476q-94 0 -154.5 -63.5t-60.5 -161.5q0 -63 27.5 -114t74.5 -80
l203 400q-39 19 -90 19zM317 26q94 0 154.5 63.5t60.5 161.5q0 116 -83 181l-200 -396q35 -10 68 -10zM467 725l-123 -162h-60l119 162h64z" />
    <glyph glyph-name="Scommaaccent" unicode="&#x218;" horiz-adv-x="696" 
d="M627 200q0 -100 -75 -162.5t-197 -62.5q-125 0 -206 70.5t-81 179.5h59q0 -86 64.5 -141t165.5 -55q95 0 153 45.5t58 119.5q0 25 -7.5 44.5t-25 33t-34 22t-47.5 15.5t-50.5 10t-57.5 8q-49 6 -79 11.5t-70 19t-62 31.5t-38.5 50t-16.5 75q0 93 72.5 153.5t188.5 60.5
q119 0 197 -66.5t78 -167.5l-57 -1q0 79 -62 130t-157 51q-90 -1 -145.5 -44t-55.5 -111q0 -30 13 -53t30.5 -35.5t51.5 -22.5t58.5 -14t69.5 -10q42 -6 66 -10t59.5 -13t56.5 -21.5t42.5 -31t31 -46t9.5 -62.5zM345 -162q-18 0 -28.5 10t-10.5 28q0 17 10 27.5t27 10.5
q19 0 31 -15t12 -38q0 -65 -51 -114l-23 18q33 35 33 73z" />
    <glyph glyph-name="scommaaccent" unicode="&#x219;" horiz-adv-x="526" 
d="M473 140q0 -70 -57 -115t-145 -45q-94 0 -155 51.5t-61 131.5h54q0 -58 45.5 -95t116.5 -37q64 0 106 30t42 75q0 25 -14 43t-40.5 28.5t-49 15.5t-54.5 9q-37 5 -60.5 10t-51.5 15t-43.5 24t-26.5 37t-11 53q0 66 53.5 109t134.5 43q89 0 147.5 -48t58.5 -121l-55 1
q0 51 -42.5 83.5t-108.5 32.5q-57 0 -95.5 -28.5t-38.5 -72.5q0 -39 34.5 -57t110.5 -29q35 -5 57.5 -10t53.5 -16t49.5 -25t32 -38t13.5 -55zM257 -163q-17 0 -28 11t-11 28t10 27.5t26 10.5q19 0 31 -15t12 -38q0 -66 -51 -114l-22 18q33 35 33 72z" />
    <glyph glyph-name="circumflex" unicode="&#x2c6;" horiz-adv-x="409" 
d="M51 570l122 163h63l123 -163h-58l-96 128l-98 -128h-56z" />
    <glyph glyph-name="caron" unicode="&#x2c7;" horiz-adv-x="409" 
d="M301 733h58l-123 -163h-63l-122 162l56 1l98 -128z" />
    <glyph glyph-name="breve" unicode="&#x2d8;" horiz-adv-x="354" 
d="M257 733h47q0 -65 -34 -108.5t-93 -43.5t-92.5 43.5t-33.5 108.5h46q0 -47 22.5 -77t57.5 -30t57.5 30t22.5 77z" />
    <glyph glyph-name="dotaccent" unicode="&#x2d9;" horiz-adv-x="185" 
d="M93 560q-19 0 -30.5 12t-11.5 30t11.5 29.5t30.5 11.5q18 0 30 -11.5t12 -29.5t-12 -30t-30 -12z" />
    <glyph glyph-name="ring" unicode="&#x2da;" horiz-adv-x="336" 
d="M169 540q-52 0 -85 32.5t-33 82.5t33 82.5t85 32.5q51 0 83.5 -32.5t32.5 -82.5t-32.5 -82.5t-83.5 -32.5zM169 731q-34 0 -55.5 -21.5t-21.5 -54.5t21.5 -54.5t55.5 -21.5q32 0 53.5 21.5t21.5 54.5t-21.5 54.5t-53.5 21.5z" />
    <glyph glyph-name="ogonek" unicode="&#x2db;" horiz-adv-x="314" 
d="M172 16l26 -16q-52 -14 -79 -44t-27 -67q0 -54 48 -88.5t124 -36.5v-44q-93 0 -153 46t-60 117q0 48 33 84t88 49z" />
    <glyph glyph-name="tilde" unicode="&#x2dc;" horiz-adv-x="442" 
d="M85 597l-34 19q12 26 39 42.5t58 16.5q34 0 77.5 -29.5t66.5 -29.5q21 0 38 10.5t25 27.5l36 -18q-12 -27 -40 -44.5t-62 -17.5q-37 0 -79 29.5t-65 29.5q-41 0 -60 -36z" />
    <glyph glyph-name="hungarumlaut" unicode="&#x2dd;" horiz-adv-x="442" 
d="M177 750h63l-134 -180h-55zM330 750h61l-136 -180h-55z" />
    <glyph glyph-name="Wgrave" unicode="&#x1e80;" horiz-adv-x="1030" 
d="M558 703l179 -656l193 656h60l-208 -703h-90l-177 638l-176 -638h-92l-208 703h61l193 -656l181 656h84zM373 915h65l108 -142h-65z" />
    <glyph glyph-name="wgrave" unicode="&#x1e81;" horiz-adv-x="873" 
d="M295 0h-74l-175 503h59l154 -447l144 447h66l147 -448l153 448h58l-175 -503h-74l-142 439zM287 725h64l118 -162h-60z" />
    <glyph glyph-name="Wacute" unicode="&#x1e82;" horiz-adv-x="1030" 
d="M558 703l179 -656l193 656h60l-208 -703h-90l-177 638l-176 -638h-92l-208 703h61l193 -656l181 656h84zM584 915h66l-109 -142h-64z" />
    <glyph glyph-name="wacute" unicode="&#x1e83;" horiz-adv-x="873" 
d="M295 0h-74l-175 503h59l154 -447l144 447h66l147 -448l153 448h58l-175 -503h-74l-142 439zM521 725h64l-122 -162h-60z" />
    <glyph glyph-name="Wdieresis" unicode="&#x1e84;" horiz-adv-x="1030" 
d="M558 703l179 -656l193 656h60l-208 -703h-90l-177 638l-176 -638h-92l-208 703h61l193 -656l181 656h84zM504 783q-18 0 -30 11.5t-12 29.5t12 29.5t30 11.5q7 0 10 -1q3 1 9 1q19 0 30.5 -11.5t11.5 -29.5t-11.5 -29.5t-30.5 -11.5q-6 0 -9 1q-3 -1 -10 -1z" />
    <glyph glyph-name="wdieresis" unicode="&#x1e85;" horiz-adv-x="873" 
d="M295 0h-74l-175 503h59l154 -447l144 447h66l147 -448l153 448h58l-175 -503h-74l-142 439zM322 583q-19 0 -30.5 11.5t-11.5 30.5q0 18 11.5 29.5t30.5 11.5q18 0 30 -11.5t12 -29.5q0 -19 -12 -30.5t-30 -11.5zM552 583q-19 0 -30.5 11.5t-11.5 30.5q0 18 11.5 29.5
t30.5 11.5t30.5 -11.5t11.5 -29.5q0 -19 -11.5 -30.5t-30.5 -11.5z" />
    <glyph glyph-name="Germandbls" unicode="&#x1e9e;" horiz-adv-x="660" 
d="M142 476v-476h-59v480q0 104 65.5 171.5t167.5 67.5q92 0 152.5 -54t60.5 -133q0 -63 -37 -104.5t-99 -51.5q89 -11 143 -65t53 -137q0 -87 -58 -143t-147 -56q-85 0 -159 49l19 51q63 -47 137 -47q66 0 107.5 42t41.5 108q0 78 -57.5 124.5t-156.5 46.5h-37v52h39
q67 0 109.5 35t42.5 93t-44 97t-111 39q-76 0 -124.5 -52.5t-48.5 -136.5z" />
    <glyph glyph-name="Ygrave" unicode="&#x1ef2;" horiz-adv-x="605" 
d="M273 0v275l-248 428h66l212 -370l210 370h67l-248 -428v-275h-59zM167 915h66l107 -142h-64z" />
    <glyph glyph-name="ygrave" unicode="&#x1ef3;" horiz-adv-x="541" 
d="M51 -209v50q36 -12 63 -12q32 0 58 24.5t38 47.5t37 82q6 13 9 20l-231 500h61l198 -432l173 432h59l-205 -507q-23 -56 -38 -87.5t-38.5 -66t-51.5 -49.5t-63 -15q-38 0 -69 13zM127 725h64l118 -162h-60z" />
    <glyph glyph-name="endash" unicode="&#x2013;" horiz-adv-x="660" 
d="M615 340v-52h-570v52h570z" />
    <glyph glyph-name="emdash" unicode="&#x2014;" horiz-adv-x="820" 
d="M25 340h770v-52h-770v52z" />
    <glyph glyph-name="quoteleft" unicode="&#x2018;" horiz-adv-x="192" 
d="M97 621q19 0 30.5 -11.5t11.5 -29.5q0 -19 -11.5 -30.5t-29.5 -11.5q-21 0 -34 16t-13 41q0 42 18 80.5t46 57.5l26 -22q-19 -13 -31.5 -38.5t-12.5 -51.5z" />
    <glyph glyph-name="quoteright" unicode="&#x2019;" horiz-adv-x="192" 
d="M95 639q-19 0 -30.5 11.5t-11.5 30.5q0 18 11.5 29.5t29.5 11.5q21 0 34 -16t13 -41q0 -42 -18 -80.5t-46 -56.5l-26 21q19 13 31.5 38.5t12.5 51.5z" />
    <glyph glyph-name="quotesinglbase" unicode="&#x201a;" horiz-adv-x="192" 
d="M95 -11q-19 0 -30.5 11.5t-11.5 29.5t11.5 29.5t29.5 11.5q21 0 34 -15.5t13 -40.5q0 -42 -18 -81t-46 -57l-26 22q19 13 31.5 38.5t12.5 51.5z" />
    <glyph glyph-name="quotedblleft" unicode="&#x201c;" horiz-adv-x="335" 
d="M141 580q0 -19 -11.5 -30.5t-29.5 -11.5q-21 0 -34 16t-13 41q0 42 18 80.5t46 57.5l27 -22q-20 -14 -32.5 -39t-12.5 -51q19 0 30.5 -11.5t11.5 -29.5zM280 580q0 -19 -11.5 -30.5t-29.5 -11.5q-21 0 -34 16t-13 41q0 42 18 80.5t46 57.5l26 -22q-19 -13 -31.5 -38.5
t-12.5 -51.5q19 0 30.5 -11.5t11.5 -29.5z" />
    <glyph glyph-name="quotedblright" unicode="&#x201d;" horiz-adv-x="332" 
d="M55 681q0 19 12 30.5t30 11.5q21 0 34 -16t13 -41q0 -42 -18 -80.5t-47 -57.5l-26 22q20 14 32.5 39t12.5 51q-19 0 -31 11.5t-12 29.5zM193 681q0 19 12 30.5t30 11.5q21 0 34 -16t13 -41q0 -42 -18 -80.5t-47 -57.5l-26 22q20 14 32.5 39t12.5 51q-19 0 -31 11.5
t-12 29.5z" />
    <glyph glyph-name="quotedblbase" unicode="&#x201e;" horiz-adv-x="332" 
d="M53 31q0 18 12 29.5t30 11.5q21 0 34 -16t13 -41q0 -42 -18 -80.5t-46 -56.5l-27 21q20 14 32.5 39t12.5 51q-19 0 -31 11.5t-12 30.5zM192 31q0 18 11.5 29.5t29.5 11.5q21 0 34 -16t13 -41q0 -42 -18 -80.5t-46 -56.5l-26 21q19 13 31.5 38.5t12.5 51.5
q-19 0 -30.5 11.5t-11.5 30.5z" />
    <glyph glyph-name="bullet" unicode="&#x2022;" horiz-adv-x="196" 
d="M98 264q-21 0 -34 13t-13 33t13 33t34 13q20 0 33.5 -13t13.5 -33t-13.5 -33t-33.5 -13z" />
    <glyph glyph-name="ellipsis" unicode="&#x2026;" horiz-adv-x="484" 
d="M93 -11q-19 0 -30.5 11.5t-11.5 30.5q0 17 11.5 29t30.5 12q18 0 30 -11.5t12 -29.5q0 -19 -12 -30.5t-30 -11.5zM242 -11q-18 0 -30 11.5t-12 30.5q0 17 12 29t30 12q19 0 30.5 -11.5t11.5 -29.5q0 -19 -11.5 -30.5t-30.5 -11.5zM392 -11q-19 0 -30.5 11.5t-11.5 30.5
q0 17 12 29t30 12t30 -11.5t12 -29.5q0 -19 -12 -30.5t-30 -11.5z" />
    <glyph glyph-name="perthousand" unicode="&#x2030;" horiz-adv-x="1489" 
d="M563 191q0 88 56.5 144.5t145.5 56.5t145 -56t56 -145t-56.5 -145t-145.5 -56q-88 0 -144.5 56.5t-56.5 144.5zM910 191q0 64 -40.5 104.5t-104.5 40.5q-65 0 -106 -40.5t-41 -104.5t41 -104.5t106 -40.5q64 0 104.5 40.5t40.5 104.5zM1034 190q0 88 56.5 144.5
t145.5 56.5t145.5 -56.5t56.5 -144.5t-56.5 -144.5t-145.5 -56.5q-88 0 -145 56.5t-57 144.5zM1382 191q0 63 -41 103.5t-105 40.5t-105 -40.5t-41 -103.5q0 -64 41 -104.5t105 -40.5t105 40.5t41 104.5zM51 542q0 88 57 144.5t145 56.5t145 -56.5t57 -144.5t-56.5 -144.5
t-145.5 -56.5t-145.5 56.5t-56.5 144.5zM398 542q0 64 -40.5 104t-104.5 40q-65 0 -106 -40t-41 -104t41 -104.5t106 -40.5q64 0 104.5 40.5t40.5 104.5zM725 733h66l-499 -733h-65z" />
    <glyph glyph-name="guilsinglleft" unicode="&#x2039;" horiz-adv-x="360" 
d="M309 503l-206 -252l206 -251h-68l-205 251l205 252h68z" />
    <glyph glyph-name="guilsinglright" unicode="&#x203a;" horiz-adv-x="360" 
d="M323 251l-204 -251h-68l206 251l-206 252h67z" />
    <glyph glyph-name="lira" unicode="&#x20a4;" horiz-adv-x="586" 
d="M343 677q-56 0 -91 -43t-35 -109v-139h260v-43h-260q0 -25 -2 -65h262v-44h-268q-17 -149 -98 -188h422v-46h-482v69q85 11 103 167h-94l-1 42h100q2 40 2 65h-102l1 43h101v139q0 88 50 145t130 57t133.5 -58.5t61.5 -150.5l-54 -9q-7 75 -44.5 121.5t-94.5 46.5z" />
    <glyph glyph-name="Euro" unicode="&#x20ac;" horiz-adv-x="897" 
d="M505 29q99 0 176.5 58t97.5 145l57 -12q-24 -105 -117.5 -175t-213.5 -70q-136 0 -234.5 79.5t-124.5 209.5h-95v45h88q-2 28 -2 42q0 25 3 51h-89v44h97q29 127 125.5 204.5t231.5 77.5q120 0 213.5 -73t117.5 -183l-58 -8q-21 90 -97.5 150t-175.5 60
q-109 0 -189.5 -62t-107.5 -166h345v-44h-354q-3 -25 -3 -51q0 -23 3 -42h353v-45h-346q26 -106 107 -170.5t192 -64.5z" />
    <glyph glyph-name="trademark" unicode="&#x2122;" horiz-adv-x="1074" 
d="M170 150v506h-155v47h360v-47h-155v-506h-50zM943 636l-197 -486h-42l-196 486v-486h-49v553h75l191 -481l190 481h76v-553h-48v486z" />
    <glyph glyph-name="minus" unicode="&#x2212;" horiz-adv-x="512" 
d="M51 340h410v-52h-410v52z" />
    <glyph glyph-name="approxequal" unicode="&#x2248;" horiz-adv-x="479" 
 />
    <glyph glyph-name="notequal" unicode="&#x2260;" horiz-adv-x="572" 
d="M51 216h177l72 193h-249v52h269l66 175h52l-66 -175h149v-52h-168l-72 -193h240v-52h-260l-76 -204h-53l76 204h-157v52z" />
    <glyph glyph-name="lessequal" unicode="&#x2264;" horiz-adv-x="437" 
d="M380 51v-51h-346v51h346zM34 345l346 171v-55l-297 -146l297 -147v-54l-346 171v60z" />
    <glyph glyph-name="greaterequal" unicode="&#x2265;" horiz-adv-x="437" 
d="M57 51h346v-51h-346v51zM57 168l297 147l-297 146l-1 55l347 -171v-60l-346 -171v54z" />
    <glyph glyph-name="commaaccent" unicode="&#xf6c3;" horiz-adv-x="181" 
d="M90 -18q-17 0 -28 11t-11 28t10 27.5t26 10.5q19 0 31 -15t12 -39q1 -64 -51 -113l-22 17q33 36 33 73z" />
    <glyph glyph-name="acute.case" horiz-adv-x="274" 
d="M224 733l-109 -143h-64l107 143h66z" />
    <glyph glyph-name="breve.case" horiz-adv-x="354" 
d="M257 733h46q0 -61 -34 -99t-92 -38t-92 38t-34 99h46q0 -41 22.5 -67t57.5 -26t57.5 26t22.5 67z" />
    <glyph glyph-name="caron.case" horiz-adv-x="416" 
d="M306 733h60l-126 -143h-63l-126 143h61l96 -109z" />
    <glyph glyph-name="circumflex.case" horiz-adv-x="416" 
d="M51 590l126 143h63l126 -143h-60l-98 109l-96 -109h-61z" />
    <glyph glyph-name="dieresis.case" horiz-adv-x="396" 
d="M93 573q-19 0 -30.5 11.5t-11.5 29.5t11.5 30t30.5 12q18 0 30 -12t12 -30t-12 -29.5t-30 -11.5zM303 573q-18 0 -30 11.5t-12 29.5t12 30t30 12t30 -12t12 -30t-12 -29.5t-30 -11.5z" />
    <glyph glyph-name="dotaccent.case" horiz-adv-x="185" 
d="M93 575q-19 0 -30.5 11.5t-11.5 29.5q0 17 11.5 28.5t30.5 11.5t30.5 -11.5t11.5 -28.5q0 -18 -11.5 -29.5t-30.5 -11.5z" />
    <glyph glyph-name="grave.case" horiz-adv-x="274" 
d="M51 738h66l107 -142h-65z" />
    <glyph glyph-name="hungarumlaut.case" horiz-adv-x="419" 
d="M157 733l60 -1l-112 -142h-54zM308 733l60 -1l-114 -142h-54z" />
    <glyph glyph-name="ijacute" horiz-adv-x="442" 
d="M86 503h55v-503h-55v503zM307 -93v596h55v-596q0 -56 -33.5 -91.5t-86.5 -35.5q-39 0 -76 13v46q33 -11 65 -11q34 0 55 22t21 57zM197 733l64 -1l-122 -162h-60zM415 733l64 -1l-122 -162h-60z" />
    <glyph glyph-name="ring.case" horiz-adv-x="280" 
d="M141 541q-39 0 -64.5 24.5t-25.5 62.5t25 62t64 24t64.5 -24.5t25.5 -61.5q0 -38 -25.5 -62.5t-63.5 -24.5zM141 675q-21 0 -34.5 -13t-14.5 -34q0 -21 13.5 -34.5t35.5 -13.5q21 0 34.5 13.5t13.5 34.5t-13.5 34t-34.5 13z" />
    <glyph glyph-name="tilde.case" horiz-adv-x="442" 
d="M85 605l-34 23q11 26 39 42.5t62 16.5t73 -26.5t65 -26.5q46 0 66 42l35 -22q-12 -27 -41 -44.5t-64 -17.5q-38 0 -76 26.5t-60 26.5q-42 0 -65 -40z" />
    </font>
</defs>
</svg>
