<?xml version="1.0" standalone="no"?>
<!DOCTYPE svg PUBLIC "-//W3C//DTD SVG 1.1//EN" "http://www.w3.org/Graphics/SVG/1.1/DTD/svg11.dtd" >
<svg xmlns="http://www.w3.org/2000/svg" xmlns:xlink="http://www.w3.org/1999/xlink" version="1.1">
<metadata>
Created by FontForge 20170731 at Mon Dec 25 18:01:37 2017
 By Aleksey,,,
Copyright (c) 2017 by Alexander Slobzheninov. All rights reserved.
</metadata>
<defs>
<font id="Objective-Regular" horiz-adv-x="605" >
  <font-face 
    font-family="Objective"
    font-weight="400"
    font-stretch="normal"
    units-per-em="1000"
    panose-1="0 0 0 0 0 0 0 0 0 0"
    ascent="800"
    descent="-200"
    x-height="505"
    cap-height="705"
    bbox="-53 -280 1431 1008"
    underline-thickness="50"
    underline-position="-225"
    unicode-range="U+000D-F6C3"
  />
<missing-glyph horiz-adv-x="500" 
 />
    <glyph glyph-name=".notdef" horiz-adv-x="500" 
 />
    <glyph glyph-name=".null" horiz-adv-x="0" 
 />
    <glyph glyph-name="nonmarkingreturn" horiz-adv-x="333" 
 />
    <glyph glyph-name="NULL" horiz-adv-x="731" 
d="M636 705v-705h-541v705h541zM164 62h402v580h-402v-580z" />
    <glyph glyph-name="NULL" horiz-adv-x="731" 
d="M636 705v-705h-541v705h541zM164 62h402v580h-402v-580z" />
    <glyph glyph-name="CR" unicode="&#xd;" horiz-adv-x="30" 
 />
    <glyph glyph-name="space" unicode=" " horiz-adv-x="308" 
 />
    <glyph glyph-name="exclam" unicode="!" horiz-adv-x="245" 
d="M122 -12q-23 0 -37.5 14.5t-14.5 37.5q0 22 15 36.5t37 14.5q23 0 37.5 -14.5t14.5 -36.5q0 -23 -14.5 -37.5t-37.5 -14.5zM165 705v-185l-18 -309h-49l-17 309v185h84z" />
    <glyph glyph-name="quotedbl" unicode="&#x22;" horiz-adv-x="325" 
d="M119 566l-7 -180h-54l-7 180v139h68v-139zM274 566l-6 -180h-54l-8 180v139h68v-139z" />
    <glyph glyph-name="numbersign" unicode="#" horiz-adv-x="950" 
d="M849 244h-262l-64 -244h-68l65 244h-176l-65 -244h-68l66 244h-226v58h241l41 154h-232v58h247l59 222h68l-59 -222h175l59 222h68l-59 -222h240v-58h-256l-41 -154h247v-58zM359 302h176l41 154h-176z" />
    <glyph glyph-name="dollar" unicode="$" horiz-adv-x="702" 
d="M388 -24v-97h-78v99q-109 15 -177 83.5t-68 166.5h83q0 -78 60.5 -128.5t155.5 -50.5q86 0 136.5 40.5t50.5 105.5q0 27 -12.5 47.5t-28.5 32t-48.5 20.5t-55 13t-64.5 9q-42 6 -66 10t-60 13.5t-57 22.5t-42.5 33t-31 49.5t-9.5 67.5q0 88 64.5 147.5t169.5 67.5v92h78
v-93q103 -13 167.5 -78t65.5 -158h-81q0 72 -56 118.5t-142 46.5q-82 0 -132 -38t-50 -98q0 -27 11.5 -47.5t27.5 -32.5t47 -21t54 -13t65 -10q36 -5 56 -8.5t53 -11t52 -15.5t42.5 -22.5t36 -32.5t21.5 -43.5t9 -57.5q0 -96 -67.5 -159t-179.5 -70z" />
    <glyph glyph-name="percent" unicode="%" horiz-adv-x="1017" 
d="M563 192q0 89 56 145t145 56t145.5 -56t56.5 -145q0 -90 -56 -146t-146 -56q-89 0 -145 56t-56 146zM888 192q0 55 -34.5 89t-89.5 34q-54 0 -88.5 -34t-34.5 -89t34.5 -89t88.5 -34q55 0 89.5 34t34.5 89zM51 543q0 89 56.5 145.5t145.5 56.5t145.5 -56.5t56.5 -145.5
t-56.5 -145t-145.5 -56t-145.5 56t-56.5 145zM376 543q0 55 -34 89t-89 34t-89.5 -34t-34.5 -89t34.5 -89t89.5 -34t89 34t34 89zM711 735h93l-497 -735h-94z" />
    <glyph glyph-name="ampersand" unicode="&#x26;" horiz-adv-x="791" 
d="M305 394q5 -5 108.5 -99t123.5 -112q48 64 79 157h79q-39 -117 -106 -204q3 -2 71 -64t79 -72h-112l-89 80q-108 -105 -238 -105q-101 0 -167 56.5t-66 144.5q0 76 39.5 122.5t110.5 79.5q-73 80 -73 164q0 77 55.5 128t139.5 52q80 0 136.5 -49t67.5 -126l-78 -15
q-6 51 -40 83.5t-84 32.5t-83 -30.5t-33 -79.5q0 -72 80 -144zM485 127q-142 133 -215 199q-59 -23 -90 -57.5t-31 -90.5t45.5 -92.5t115.5 -36.5q97 0 175 78z" />
    <glyph glyph-name="quotesingle" unicode="'" horiz-adv-x="169" 
d="M119 566l-7 -180h-54l-7 180v139h68v-139z" />
    <glyph glyph-name="parenleft" unicode="(" horiz-adv-x="333" 
d="M300 -180h-80q-71 71 -115 197.5t-44 261.5t44 261t115 197h80q-78 -77 -124 -200t-46 -258q0 -138 46 -261t124 -198z" />
    <glyph glyph-name="parenright" unicode=")" horiz-adv-x="333" 
d="M113 -180h-80q78 75 124 198t46 261q0 135 -46 258t-124 200h80q71 -71 115 -197t44 -261t-44 -261.5t-115 -197.5z" />
    <glyph glyph-name="asterisk" unicode="*" horiz-adv-x="512" 
d="M461 400l-29 -50l-149 88l2 -173h-58l2 173l-149 -88l-29 50l151 85l-151 85l29 50l149 -89l-2 174h58l-2 -174l149 89l29 -50l-152 -85z" />
    <glyph glyph-name="plus" unicode="+" horiz-adv-x="572" 
d="M325 90h-78v190h-196v70h196v180h78v-180h196v-70h-196v-190z" />
    <glyph glyph-name="comma" unicode="," horiz-adv-x="211" 
d="M102 -12q-22 0 -36 14t-14 37q0 22 14.5 36t36.5 14q26 0 41.5 -19t15.5 -51q0 -46 -20 -89t-52 -64l-37 27q23 16 37 42.5t14 52.5z" />
    <glyph glyph-name="hyphen" unicode="-" horiz-adv-x="512" 
d="M51 347h410v-70h-410v70z" />
    <glyph glyph-name="period" unicode="." horiz-adv-x="206" 
d="M103 -12q-23 0 -37.5 14.5t-14.5 37.5q0 22 14.5 36.5t37.5 14.5q22 0 37 -14.5t15 -36.5q0 -23 -14.5 -37.5t-37.5 -14.5z" />
    <glyph glyph-name="slash" unicode="/" horiz-adv-x="443" 
d="M334 705h76l-301 -935h-76z" />
    <glyph glyph-name="zero" unicode="0" horiz-adv-x="741" 
d="M370 -25q-133 0 -216 106t-83 271t83 271.5t216 106.5t216.5 -106.5t83.5 -271.5t-83.5 -271t-216.5 -106zM370 656q-97 0 -156.5 -85.5t-59.5 -218.5t59.5 -218t156.5 -85t157 85.5t60 217.5q0 133 -60 218.5t-157 85.5z" />
    <glyph glyph-name="one" unicode="1" horiz-adv-x="397" 
d="M209 0v594l-170 -131v99l187 143h67v-705h-84z" />
    <glyph glyph-name="two" unicode="2" horiz-adv-x="613" 
d="M147 486l-80 16q15 99 83.5 163.5t159.5 64.5q101 0 166.5 -64.5t65.5 -163.5q0 -72 -31.5 -123t-109.5 -124l-193 -181h323v-74h-458v51l279 263q53 49 80 91.5t27 96.5q0 67 -42 110.5t-106 43.5q-62 0 -108 -48t-56 -122z" />
    <glyph glyph-name="three" unicode="3" horiz-adv-x="628" 
d="M406 631h-315v74h436v-56l-191 -215q97 -5 159 -68.5t62 -159.5q0 -100 -70.5 -165.5t-179.5 -65.5q-102 0 -175 68.5t-81 173.5l74 13q9 -79 59.5 -130t119.5 -51q74 0 122.5 44.5t48.5 113.5q0 70 -48 115t-122 45q-39 0 -67 -14l-25 61z" />
    <glyph glyph-name="four" unicode="4" 
d="M36 178v54l301 473h119v-453h88v-74h-88v-178h-83v178h-337zM373 252v371l-231 -371h231z" />
    <glyph glyph-name="five" unicode="5" horiz-adv-x="638" 
d="M298 380h-179l36 325h361v-74h-293l-19 -177h102q119 0 192.5 -68t73.5 -173q0 -103 -70.5 -170.5t-178.5 -67.5q-103 0 -176 68.5t-81 173.5l74 13q6 -79 57 -130t122 -51q74 0 122.5 46t48.5 116q0 75 -52 122t-140 47z" />
    <glyph glyph-name="six" unicode="6" horiz-adv-x="611" 
d="M103 375l256 330h100l-196 -250q33 11 72 11q98 0 161.5 -68t63.5 -173q0 -109 -71.5 -179.5t-181.5 -70.5q-111 0 -183.5 69t-72.5 174q0 39 14.5 83.5t37.5 73.5zM310 49q72 1 119.5 50.5t47.5 125.5q0 74 -47.5 122t-119.5 49q-76 0 -126 -48.5t-50 -122.5
q0 -77 49.5 -126.5t126.5 -49.5z" />
    <glyph glyph-name="seven" unicode="7" horiz-adv-x="516" 
d="M495 655l-277 -655h-90l267 631h-376v74h476v-50z" />
    <glyph glyph-name="eight" unicode="8" horiz-adv-x="674" 
d="M337 731q103 0 169.5 -53t66.5 -136q0 -59 -34 -105t-87 -60q66 -15 108.5 -69t42.5 -123q0 -91 -75 -150t-191 -59t-191 59t-75 150q0 69 42 123t109 69q-53 14 -87 60t-34 105q0 82 66.5 135.5t169.5 53.5zM337 336q-76 0 -125.5 -40.5t-49.5 -102.5q0 -63 49.5 -103.5
t125.5 -40.5q77 0 126 40.5t49 103.5q0 62 -49.5 102.5t-125.5 40.5zM337 656q-66 0 -109 -34.5t-43 -87.5q0 -54 43 -89t109 -35t109 35t43 89q0 53 -43 87.5t-109 34.5z" />
    <glyph glyph-name="nine" unicode="9" horiz-adv-x="611" 
d="M508 330l-256 -330h-101l196 250q-36 -12 -71 -12q-98 0 -161.5 68.5t-63.5 173.5q0 109 71.5 179t181.5 70q111 0 183.5 -68.5t72.5 -173.5q0 -39 -14.5 -83.5t-37.5 -73.5zM301 655q-73 0 -120 -49.5t-47 -125.5q0 -74 47 -122.5t120 -48.5q76 -1 126 47.5t50 123.5
q0 77 -50 126.5t-126 48.5z" />
    <glyph glyph-name="colon" unicode=":" horiz-adv-x="206" 
d="M103 -12q-23 0 -37.5 14.5t-14.5 37.5q0 22 14.5 36.5t37.5 14.5q22 0 37 -14.5t15 -36.5q0 -23 -14.5 -37.5t-37.5 -14.5zM103 376q-23 0 -37.5 14.5t-14.5 37.5t14.5 37t37.5 14t37.5 -14.5t14.5 -36.5t-14.5 -37t-37.5 -15z" />
    <glyph glyph-name="semicolon" unicode=";" horiz-adv-x="211" 
d="M103 376q-23 0 -37.5 14.5t-14.5 37.5t14.5 37t37.5 14t37.5 -14.5t14.5 -36.5t-14.5 -37t-37.5 -15zM102 -12q-22 0 -36 14t-14 37q0 22 14.5 36t36.5 14q26 0 41.5 -19t15.5 -51q0 -46 -20 -89t-52 -64l-37 27q23 16 37 42.5t14 52.5z" />
    <glyph glyph-name="less" unicode="&#x3c;" horiz-adv-x="466" 
d="M91 252l314 -179v-73l-372 215v74l372 216v-74z" />
    <glyph glyph-name="equal" unicode="=" horiz-adv-x="572" 
d="M51 223h470v-70h-470v70zM51 474h470v-70h-470v70z" />
    <glyph glyph-name="greater" unicode="&#x3e;" horiz-adv-x="466" 
d="M433 289v-74l-372 -215v73l313 179l-313 179v74z" />
    <glyph glyph-name="question" unicode="?" horiz-adv-x="601" 
d="M295 -13q-23 0 -37.5 14.5t-14.5 37.5q0 22 14.5 36.5t37.5 14.5t37.5 -14.5t14.5 -36.5q0 -23 -14.5 -37.5t-37.5 -14.5zM334 179h-77q0 79 25 123t79 82q24 16 37 26.5t29 27t23 35.5t7 42q0 60 -43 100.5t-107 40.5q-69 0 -114.5 -47t-53.5 -121l-78 15
q12 100 80 163.5t167 63.5t166 -61t67 -153q0 -35 -9 -62t-29 -49t-38 -36t-50 -35q-45 -30 -63 -62.5t-18 -92.5z" />
    <glyph glyph-name="at" unicode="@" horiz-adv-x="1025" 
d="M513 629q-164 0 -270.5 -104t-106.5 -265q0 -159 98.5 -262.5t250.5 -103.5q83 0 142 34v-69q-58 -31 -142 -31q-181 0 -302.5 123t-121.5 309q0 189 127.5 312t324.5 123t324.5 -123t126.5 -312q0 -118 -44.5 -192.5t-118.5 -74.5q-54 0 -89 38.5t-36 101.5
q-19 -40 -71 -65.5t-114 -25.5q-88 0 -144.5 62t-56.5 156q0 96 63 158t160 62t159.5 -60t62.5 -152l1 -128q0 -38 18 -61.5t45 -23.5q42 0 66 57t24 148q0 160 -106 264.5t-270 104.5zM659 260q0 68 -41 111t-105 43t-105.5 -43.5t-41.5 -110.5q0 -66 41.5 -108.5
t105.5 -42.5q63 0 104.5 42.5t41.5 108.5z" />
    <glyph glyph-name="A" unicode="A" horiz-adv-x="704" 
d="M118 0h-89l263 705h120l263 -705h-89l-53 144h-361zM192 209h321l-160 422z" />
    <glyph glyph-name="B" unicode="B" horiz-adv-x="704" 
d="M391 0h-296v705h298q95 0 157.5 -52t62.5 -132q0 -52 -31.5 -93t-81.5 -54q59 -14 96 -62t37 -110q0 -88 -68.5 -145t-173.5 -57zM550 206q0 57 -48 93.5t-122 36.5h-202v-262h202q74 0 122 37.5t48 94.5zM383 631h-205v-221h205q65 0 106 30.5t41 79.5q0 48 -41.5 79.5
t-105.5 31.5z" />
    <glyph glyph-name="C" unicode="C" horiz-adv-x="821" 
d="M427 49q89 0 160 52.5t92 133.5l81 -15q-26 -106 -120 -175.5t-213 -69.5q-159 0 -262.5 106.5t-103.5 270.5t103.5 271t262.5 107q119 0 213 -73t120 -184l-82 -10q-20 83 -91 138t-160 55q-124 0 -203.5 -85.5t-79.5 -218.5q1 -132 80.5 -217.5t202.5 -85.5z" />
    <glyph glyph-name="D" unicode="D" horiz-adv-x="781" 
d="M95 0v705h215q185 0 297.5 -97t112.5 -256q0 -158 -113 -255t-297 -97h-215zM638 352q0 127 -90 203t-238 76h-132v-557h132q148 0 238 75.5t90 202.5z" />
    <glyph glyph-name="E" unicode="E" horiz-adv-x="645" 
d="M176 330v-256h410v-74h-491v705h481v-74h-400v-231h360v-70h-360z" />
    <glyph glyph-name="F" unicode="F" horiz-adv-x="581" 
d="M481 288h-303v-288h-83v705h445v-74h-362v-274h303v-69z" />
    <glyph glyph-name="G" unicode="G" horiz-adv-x="868" 
d="M440 49q120 0 201.5 78t81.5 193h-285v69h368q13 -180 -90.5 -297t-275.5 -117q-165 0 -272 106.5t-107 270.5t107 271t272 107q122 0 216.5 -70.5t118.5 -179.5l-79 -15q-22 83 -94.5 137t-161.5 54q-129 0 -212.5 -85.5t-83.5 -218.5q0 -131 83.5 -217t212.5 -86z" />
    <glyph glyph-name="H" unicode="H" horiz-adv-x="744" 
d="M177 0h-83v705h83v-301h390v301h83v-705h-83v330h-390v-330z" />
    <glyph glyph-name="I" unicode="I" horiz-adv-x="273" 
d="M95 705h83v-705h-83v705z" />
    <glyph glyph-name="J" unicode="J" horiz-adv-x="472" 
d="M293 211v494h84v-493q0 -104 -59.5 -168t-151.5 -64q-64 0 -127 20v72q61 -18 110 -18q65 0 105 42.5t39 114.5z" />
    <glyph glyph-name="K" unicode="K" horiz-adv-x="618" 
d="M95 0v705h83v-301l299 301h109l-334 -333l344 -372h-109l-309 341v-341h-83z" />
    <glyph glyph-name="L" unicode="L" horiz-adv-x="578" 
d="M539 0h-444v705h83v-631h361v-74z" />
    <glyph glyph-name="M" unicode="M" horiz-adv-x="946" 
d="M178 598v-598h-83v705h120l257 -592l259 592h120v-705h-83v599l-262 -599h-67z" />
    <glyph glyph-name="N" unicode="N" horiz-adv-x="747" 
d="M204 705l365 -603v603h84v-705h-109l-366 603v-603h-83v705h109z" />
    <glyph glyph-name="O" unicode="O" horiz-adv-x="880" 
d="M440 -25q-167 0 -273 105.5t-106 271.5t106.5 272t272.5 106q167 0 273.5 -106t106.5 -272t-106.5 -271.5t-273.5 -105.5zM440 656q-129 0 -212.5 -85.5t-83.5 -218.5q0 -132 83.5 -217t212.5 -86q130 0 213 85.5t83 217.5q0 133 -83 218.5t-213 85.5z" />
    <glyph glyph-name="P" unicode="P" horiz-adv-x="675" 
d="M344 226h-168v-226h-81v705h250q122 0 200.5 -67.5t78.5 -172.5q0 -104 -78.5 -171.5t-201.5 -67.5zM333 631h-157v-330h157q92 0 150 46t57 118q0 73 -58 119.5t-149 46.5z" />
    <glyph glyph-name="Q" unicode="Q" horiz-adv-x="880" 
d="M820 352q0 -98 -39.5 -178t-111.5 -130l118 -154h-98l-90 116q-74 -31 -159 -31q-167 0 -273 105.5t-106 271.5t106.5 272t272.5 106q167 0 273.5 -106t106.5 -272zM440 656q-129 0 -212.5 -85.5t-83.5 -218.5q0 -132 83.5 -217t212.5 -86q129 0 212.5 85.5t83.5 217.5
q0 133 -83 218.5t-213 85.5z" />
    <glyph glyph-name="R" unicode="R" horiz-adv-x="730" 
d="M178 0h-83v705h311q112 0 183.5 -62.5t71.5 -159.5q0 -74 -49 -131.5t-125 -73.5l180 -278h-97l-167 266h-225v-266zM400 631h-222v-291h222q78 0 128 40t50 103q0 68 -49.5 108t-128.5 40z" />
    <glyph glyph-name="S" unicode="S" horiz-adv-x="702" 
d="M635 205q0 -102 -74.5 -166t-197.5 -64q-130 0 -213.5 71.5t-84.5 181.5h83q0 -78 60.5 -128.5t155.5 -50.5q86 0 136.5 40.5t50.5 105.5q0 27 -12.5 47.5t-28.5 32t-48.5 20.5t-55 13t-64.5 9q-42 6 -66 10t-60 13.5t-57 22.5t-42.5 33t-31 49.5t-9.5 67.5q0 95 74 156
t192 61q121 0 199.5 -67.5t79.5 -171.5h-81q0 72 -56 118.5t-142 46.5q-82 0 -132 -38t-50 -98q0 -27 11.5 -47.5t27.5 -32.5t47 -21t54 -13t65 -10q36 -5 56 -8.5t53 -11t52 -15.5t42.5 -22.5t36 -32.5t21.5 -43.5t9 -57.5z" />
    <glyph glyph-name="T" unicode="T" horiz-adv-x="597" 
d="M257 0v631h-236v74h555v-74h-236v-631h-83z" />
    <glyph glyph-name="U" unicode="U" horiz-adv-x="749" 
d="M577 286v419h83v-419q0 -137 -80 -224t-205 -87q-126 0 -206 87t-80 224v419h83v-419q0 -99 56.5 -168t146.5 -69t146 66t56 171z" />
    <glyph glyph-name="V" unicode="V" horiz-adv-x="695" 
d="M29 705h88l231 -642l230 642h88l-256 -705h-124z" />
    <glyph glyph-name="W" unicode="W" horiz-adv-x="1076" 
d="M601 705l160 -649l182 649h86l-200 -705h-134l-157 618l-156 -618h-135l-201 705h87l182 -649l164 649h122z" />
    <glyph glyph-name="X" unicode="X" horiz-adv-x="697" 
d="M39 0l244 372l-235 333h101l197 -284l202 284h101l-240 -333l250 -372h-100l-213 321l-208 -321h-99z" />
    <glyph glyph-name="Y" unicode="Y" horiz-adv-x="647" 
d="M282 0v262l-253 443h92l203 -363l200 363h94l-252 -443v-262h-84z" />
    <glyph glyph-name="Z" unicode="Z" horiz-adv-x="649" 
d="M46 55l433 580h-423v70h536v-55l-432 -581h442v-69h-556v55z" />
    <glyph glyph-name="bracketleft" unicode="[" horiz-adv-x="450" 
d="M169 676v-798h249l-1 -58h-322v915h323v-59h-249z" />
    <glyph glyph-name="backslash" unicode="\" horiz-adv-x="443" 
d="M109 705l301 -935h-76l-301 935h76z" />
    <glyph glyph-name="bracketright" unicode="]" horiz-adv-x="450" 
d="M356 -180h-323v58h249v798h-249v59h323v-915z" />
    <glyph glyph-name="asciicircum" unicode="^" horiz-adv-x="573" 
d="M286 654l-159 -254h-78l196 305h83l196 -305h-77z" />
    <glyph glyph-name="underscore" unicode="_" horiz-adv-x="500" 
d="M0 0h500v-65h-500v65z" />
    <glyph glyph-name="grave" unicode="`" horiz-adv-x="312" 
d="M51 734l86 1l124 -165h-80z" />
    <glyph glyph-name="a" unicode="a" horiz-adv-x="669" 
d="M514 505h76v-505h-76v89q-33 -51 -86 -80t-117 -29q-113 0 -186.5 77t-73.5 195q0 119 73.5 196t186.5 77q64 0 117 -29t86 -81v90zM320 49q83 0 138 57.5t55 145.5t-55 145.5t-138 57.5q-84 0 -138.5 -57.5t-54.5 -145.5t54.5 -145.5t138.5 -57.5z" />
    <glyph glyph-name="b" unicode="b" horiz-adv-x="666" 
d="M615 252q0 -118 -73.5 -195t-186.5 -77q-132 0 -202 107v-87h-74v735h76v-315q33 50 84.5 77.5t115.5 27.5q113 0 186.5 -77t73.5 -196zM346 451q-84 0 -138.5 -56.5t-54.5 -142.5t54.5 -142t138.5 -56t138.5 55.5t54.5 142.5q0 86 -54.5 142.5t-138.5 56.5z" />
    <glyph glyph-name="c" unicode="c" horiz-adv-x="610" 
d="M314 525q92 0 161 -52.5t83 -132.5l-74 -10q-14 56 -62 92t-108 36q-80 0 -133.5 -58.5t-53.5 -147.5t53 -147t134 -58q61 0 108 35t62 90l75 -10q-17 -79 -86.5 -130.5t-158.5 -51.5q-115 0 -189 76.5t-74 195.5q0 118 74.5 195.5t188.5 77.5z" />
    <glyph glyph-name="d" unicode="d" horiz-adv-x="666" 
d="M51 252q0 118 74 195.5t187 77.5q63 0 114.5 -28t84.5 -77v315h76v-735h-74v87q-33 -50 -85 -78.5t-116 -28.5q-113 0 -187 77t-74 195zM320 451q-84 0 -138.5 -56.5t-54.5 -142.5q0 -87 54.5 -142.5t138.5 -55.5t138.5 56t54.5 142t-54.5 142.5t-138.5 56.5z" />
    <glyph glyph-name="e" unicode="e" horiz-adv-x="635" 
d="M51 258q0 116 75.5 191.5t192.5 75.5q115 0 190 -76t75 -192q0 -19 -1 -30l-454 1q9 -80 61 -129.5t127 -49.5q59 0 108.5 32.5t66.5 81.5l75 -12q-23 -74 -93 -122.5t-154 -48.5q-117 0 -193 78.5t-76 199.5zM131 294l373 -1q-11 72 -62 117t-126 45q-73 0 -123.5 -44.5
t-61.5 -116.5z" />
    <glyph glyph-name="f" unicode="f" horiz-adv-x="378" 
d="M208 602v-97h129v-63h-129v-442h-77v442h-82v63h82v105q1 66 37 105.5t95 39.5q39 0 76 -13v-66q-31 9 -57 9q-33 0 -53.5 -22t-20.5 -61z" />
    <glyph glyph-name="g" unicode="g" horiz-adv-x="666" 
d="M325 -181q83 0 134.5 50.5t51.5 138.5v80q-70 -102 -199 -102q-113 0 -187 75.5t-74 190.5q0 118 74 194.5t187 76.5q129 0 199 -102v84h76v-497q0 -119 -72 -188.5t-187 -69.5q-98 0 -171.5 56t-86.5 142l73 10q13 -61 64.5 -100t117.5 -39zM320 55q84 0 138.5 55.5
t54.5 141.5q0 88 -54.5 145.5t-138.5 57.5t-138.5 -57.5t-54.5 -145.5q0 -85 55 -141t138 -56z" />
    <glyph glyph-name="h" unicode="h" 
d="M79 735h76v-302q25 42 72 67t100 25q95 0 152 -62.5t57 -160.5v-302h-76v302q0 68 -38.5 110.5t-104.5 42.5q-67 0 -114.5 -45.5t-47.5 -114.5v-295h-76v735z" />
    <glyph glyph-name="i" unicode="i" horiz-adv-x="258" 
d="M91 505h76v-505h-76v505zM129 598q-23 0 -37.5 14.5t-14.5 37.5t14.5 37t37.5 14t37.5 -14.5t14.5 -36.5t-14.5 -37t-37.5 -15z" />
    <glyph glyph-name="j" unicode="j" horiz-adv-x="254" 
d="M88 -75v580h76v-588q0 -64 -36.5 -103t-95.5 -39q-48 0 -85 13v67q27 -10 65 -10q34 0 55 22t21 58zM126 598q-23 0 -37.5 14.5t-14.5 37.5t14.5 37t37.5 14t37.5 -14.5t14.5 -36.5t-15 -37t-37 -15z" />
    <glyph glyph-name="k" unicode="k" horiz-adv-x="515" 
d="M79 0v735h76v-434l220 204h103l-253 -235l263 -270h-103l-230 239v-239h-76z" />
    <glyph glyph-name="l" unicode="l" horiz-adv-x="233" 
d="M78 735h77v-735h-77v735z" />
    <glyph glyph-name="m" unicode="m" horiz-adv-x="928" 
d="M155 0h-76v505h74v-63q51 83 150 83q62 0 110 -29t69 -77q24 49 70 77t105 28q89 0 145.5 -62.5t56.5 -159.5v-302h-77v303q0 67 -37.5 109.5t-96.5 42.5q-63 0 -102.5 -42.5t-39.5 -109.5v-303h-76v303q0 68 -36.5 110t-97.5 42q-63 0 -102 -42t-39 -110v-303z" />
    <glyph glyph-name="n" unicode="n" 
d="M79 505h76v-71q26 42 73 66.5t100 24.5q95 0 151.5 -62.5t56.5 -160.5v-302h-76v302q0 68 -37.5 110.5t-102.5 42.5q-67 0 -116 -46t-49 -114v-295h-76v505z" />
    <glyph glyph-name="o" unicode="o" horiz-adv-x="639" 
d="M319 525q119 0 194.5 -76.5t75.5 -196.5q0 -119 -76 -195.5t-194 -76.5t-193.5 76.5t-75.5 195.5q0 120 75.5 196.5t193.5 76.5zM319 49q84 0 138.5 57.5t54.5 145.5t-54.5 145.5t-138.5 57.5t-138.5 -57.5t-54.5 -145.5t54.5 -145.5t138.5 -57.5z" />
    <glyph glyph-name="p" unicode="p" horiz-adv-x="666" 
d="M615 252q0 -118 -73.5 -195t-186.5 -77q-132 0 -200 105v-315h-76v735h74v-87q70 107 202 107q113 0 186.5 -77.5t73.5 -195.5zM346 54q84 0 138.5 56t54.5 142q0 87 -54.5 143t-138.5 56t-138.5 -56.5t-54.5 -142.5t54.5 -142t138.5 -56z" />
    <glyph glyph-name="q" unicode="q" horiz-adv-x="666" 
d="M51 252q0 118 74 195.5t187 77.5q64 0 116 -28.5t85 -78.5v87h74v-735h-76v315q-33 -50 -84.5 -77.5t-114.5 -27.5q-113 0 -187 77t-74 195zM320 54q84 0 138.5 56t54.5 142t-54.5 142.5t-138.5 56.5t-138.5 -56t-54.5 -143q0 -86 54.5 -142t138.5 -56z" />
    <glyph glyph-name="r" unicode="r" horiz-adv-x="394" 
d="M79 505h74v-70q48 88 140 88q32 0 68 -14v-70q-35 16 -75 16q-59 0 -95 -48t-36 -124v-283h-76v505z" />
    <glyph glyph-name="s" unicode="s" horiz-adv-x="544" 
d="M490 145q0 -71 -59 -118t-149 -47q-97 0 -160.5 53.5t-63.5 135.5h75q0 -52 41.5 -86t106.5 -34q58 0 96.5 25.5t38.5 63.5q0 22 -13.5 38t-39.5 25.5t-44.5 13.5t-46.5 8q-43 7 -66.5 11.5t-54 15.5t-45.5 25t-26 38.5t-11 57.5q0 66 55.5 110t137.5 44q94 0 155 -48.5
t62 -122.5l-75 1q-1 44 -41.5 72t-101.5 28q-49 0 -83.5 -24.5t-34.5 -61.5q0 -32 30 -47.5t104 -27.5q38 -7 59 -11t54.5 -16t52 -26t33 -39t14.5 -57z" />
    <glyph glyph-name="t" unicode="t" horiz-adv-x="388" 
d="M122 125v317h-83v63h86l11 118h62v-118h131v-63h-131v-314q0 -37 21 -59.5t57 -23.5q29 0 61 10v-63q-39 -12 -80 -12q-62 0 -98.5 39.5t-36.5 105.5z" />
    <glyph glyph-name="u" unicode="u" 
d="M526 0h-76v71q-25 -42 -72.5 -66.5t-100.5 -24.5q-95 0 -151.5 62.5t-56.5 160.5v302h76v-302q0 -68 37.5 -111t103.5 -43q67 0 115.5 46t48.5 114v296h76v-505z" />
    <glyph glyph-name="v" unicode="v" horiz-adv-x="564" 
d="M336 0h-107l-196 505h82l167 -444l167 444h82z" />
    <glyph glyph-name="w" unicode="w" horiz-adv-x="879" 
d="M318 0h-104l-171 505h80l144 -430l127 430h89l131 -430l142 430h80l-172 -505h-104l-121 416z" />
    <glyph glyph-name="x" unicode="x" horiz-adv-x="555" 
d="M136 0h-93l178 262l-168 243h90l134 -197l135 197h90l-168 -243l178 -262h-93l-142 214z" />
    <glyph glyph-name="y" unicode="y" horiz-adv-x="569" 
d="M64 -208v67q40 -14 67 -14q15 0 28 4t24 14t19 19t17 26.5t13.5 28t14 32.5t13.5 32l-227 504h84l180 -410l158 410h81l-201 -512q-22 -56 -35.5 -84.5t-37.5 -64.5t-53 -51.5t-67 -15.5q-40 0 -78 15z" />
    <glyph glyph-name="z" unicode="z" horiz-adv-x="556" 
d="M51 50l329 385h-319v70h434v-50l-330 -386h340v-69h-454v50z" />
    <glyph glyph-name="braceleft" unicode="{" horiz-adv-x="371" 
d="M280 -122h58v-58h-91q-50 0 -81.5 32t-31.5 83v242q0 29 -17.5 47.5t-45.5 18.5h-10v78h10q28 0 45.5 18.5t17.5 47.5v232q0 52 31.5 84t81.5 32h91v-59h-58q-32 0 -52 -20.5t-20 -53.5v-222q0 -40 -24 -67t-62 -30l-10 -1l10 -1q38 -2 62 -29t24 -67v-233
q0 -33 20 -53.5t52 -20.5z" />
    <glyph glyph-name="bar" unicode="|" horiz-adv-x="262" 
d="M95 735h72v-965h-72v965z" />
    <glyph glyph-name="braceright" unicode="}" horiz-adv-x="371" 
d="M124 -180h-91v58h58q32 0 52 20.5t20 53.5v233q0 41 23.5 67.5t62.5 28.5l10 1l-10 1q-39 3 -62.5 29.5t-23.5 67.5v222q0 33 -20 53.5t-52 20.5h-58v59h91q50 0 81.5 -32t31.5 -84v-232q0 -29 17.5 -47.5t45.5 -18.5h10v-78h-10q-28 0 -45.5 -18.5t-17.5 -47.5v-242
q0 -51 -31.5 -83t-81.5 -32z" />
    <glyph glyph-name="asciitilde" unicode="~" horiz-adv-x="651" 
d="M84 272l-33 46q25 37 67 60.5t81 23.5q40 0 89.5 -29t95.5 -58t79 -29q62 2 103 61l34 -47q-25 -36 -64.5 -58.5t-76.5 -22.5q-32 0 -70 18t-67 39.5t-64.5 39.5t-63.5 18q-61 0 -110 -62z" />
    <glyph glyph-name="exclamdown" unicode="&#xa1;" horiz-adv-x="245" 
d="M80 -230v185l18 308h49l17 -308v-185h-84zM122 487q23 0 37.5 -14.5t14.5 -37.5t-14.5 -37t-37.5 -14t-37.5 14.5t-14.5 36.5q0 23 14.5 37.5t37.5 14.5z" />
    <glyph glyph-name="cent" unicode="&#xa2;" horiz-adv-x="610" 
d="M354 -17v-91h-77v90q-100 13 -163 87.5t-63 182.5t63 182.5t163 87.5v86h77v-86q78 -11 134.5 -61t69.5 -121l-74 -10q-14 56 -62 92t-108 36q-80 0 -133.5 -58.5t-53.5 -147.5t53 -147t134 -58q61 0 108 35t62 90l75 -10q-15 -70 -71.5 -119t-133.5 -60z" />
    <glyph glyph-name="sterling" unicode="&#xa3;" 
d="M553 520l-74 -14q-5 71 -38 114t-89 43q-53 0 -82.5 -39t-29.5 -102v-138h251v-69h-255q-4 -116 -30.5 -170t-76.5 -76h423v-69h-501v89q34 6 55.5 23.5t37 67.5t15.5 135h-98v69h100v138q0 93 51 150.5t139 57.5t140.5 -58t61.5 -152z" />
    <glyph glyph-name="currency" unicode="&#xa4;" horiz-adv-x="749" 
d="M544 460l98 92l46 -50l-95 -90q51 -66 51 -160t-51 -160l96 -90l-47 -50l-98 93q-72 -53 -169 -53t-168 52l-98 -92l-48 49l96 91q-52 68 -52 160t52 160l-95 91l48 49l97 -92q71 52 168 52q98 0 169 -52zM375 55q84 0 138.5 55.5t54.5 141.5t-54.5 142t-138.5 56
q-83 0 -137.5 -56t-54.5 -142t53.5 -141.5t138.5 -55.5z" />
    <glyph glyph-name="yen" unicode="&#xa5;" horiz-adv-x="684" 
d="M62 289h218l-241 416h94l210 -374l206 374h96l-240 -416h218v-69h-238v-78h238v-70h-238v-72h-84v72h-239v70h239v78h-239v69z" />
    <glyph glyph-name="section" unicode="&#xa7;" horiz-adv-x="614" 
d="M96 534q0 74 59.5 122.5t149.5 48.5q81 0 142 -49.5t75 -126.5l-79 -9q-6 48 -45.5 79.5t-94.5 31.5q-57 0 -93.5 -25t-36.5 -64q0 -21 10 -37.5t23.5 -26.5t39.5 -18.5t44 -12.5t52 -10q39 -7 60.5 -12t53.5 -16.5t49 -25.5t30 -37.5t13 -54.5q0 -47 -34.5 -83
t-90.5 -47q44 -12 72.5 -48.5t28.5 -84.5q0 -81 -61.5 -132t-157.5 -51q-83 0 -144.5 49.5t-74.5 126.5l81 10q7 -49 46.5 -80.5t94.5 -31.5q59 0 96 26.5t37 72.5q0 23 -10.5 41t-23.5 28t-40 18t-45 11.5t-52 8.5q-35 5 -59.5 10.5t-54 16.5t-47.5 25.5t-30 38t-12 54.5
q0 47 33.5 83.5t87.5 46.5q-41 13 -66.5 49.5t-25.5 84.5zM469 278q0 28 -14.5 47t-44 28.5t-49 13t-53.5 6.5q-19 2 -29 4q-59 -3 -97 -29.5t-38 -61.5q0 -22 10.5 -38.5t23.5 -26t37.5 -16.5t40.5 -9.5t43 -5.5q4 0 15.5 -1.5t16.5 -2.5q62 3 100 28.5t38 63.5z" />
    <glyph glyph-name="dieresis" unicode="&#xa8;" horiz-adv-x="444" 
d="M103 588q-23 0 -37.5 14.5t-14.5 36.5q0 23 14.5 37t37.5 14t37.5 -14.5t14.5 -36.5t-15 -36.5t-37 -14.5zM342 588q-23 0 -37.5 14.5t-14.5 36.5q0 23 14.5 37t37.5 14t37.5 -14.5t14.5 -36.5t-15 -36.5t-37 -14.5z" />
    <glyph glyph-name="copyright" unicode="&#xa9;" horiz-adv-x="937" 
d="M468 -150q-179 0 -293 113t-114 290q0 174 114.5 287.5t292.5 113.5q179 0 294 -112.5t115 -288.5q0 -177 -115 -290t-294 -113zM469 601q-153 0 -251.5 -98.5t-98.5 -249.5q0 -153 98 -251.5t252 -98.5t252 98.5t98 251.5q0 151 -98.5 249.5t-251.5 98.5zM476 522
q85 0 152.5 -49.5t85.5 -126.5l-54 -12q-17 58 -69.5 95t-117.5 37q-88 0 -145 -60t-57 -154t57 -154t148 -60q67 0 121 40t70 101l48 -13q-17 -80 -85 -132t-155 -52q-117 0 -192 76t-75 194q0 119 75 194.5t193 75.5z" />
    <glyph glyph-name="guillemotleft" unicode="&#xab;" horiz-adv-x="638" 
d="M341 505l-203 -253l203 -252h-91l-201 252l201 253h91zM577 505l-204 -253l204 -252h-92l-201 252l201 253h92z" />
    <glyph glyph-name="logicalnot" unicode="&#xac;" horiz-adv-x="642" 
d="M521 70v218h-470v66h530v-284h-60z" />
    <glyph glyph-name="registered" unicode="&#xae;" horiz-adv-x="937" 
d="M468 -149q-179 0 -293 113t-114 290q0 173 114.5 287t292.5 114q179 0 294 -112.5t115 -288.5q0 -177 -115 -290t-294 -113zM119 254q0 -154 98 -252t252 -98t252 98t98 252q0 150 -98.5 248.5t-251.5 98.5t-251.5 -98.5t-98.5 -248.5zM557 214l118 -203h-68l-112 197
h-130v-197h-60v494h215q70 0 115 -42t45 -107q0 -55 -33.5 -93.5t-89.5 -48.5zM509 456h-144v-200h149q47 0 76.5 28.5t29.5 74.5q0 45 -30.5 71t-80.5 26z" />
    <glyph glyph-name="macron" unicode="&#xaf;" horiz-adv-x="416" 
d="M365 668v-54h-314v54h314z" />
    <glyph glyph-name="degree" unicode="&#xb0;" horiz-adv-x="503" 
d="M252 347q-91 0 -146 53.5t-55 140.5q0 88 55 141.5t146 53.5q90 0 145 -53.5t55 -141.5q0 -87 -55 -140.5t-145 -53.5zM252 681q-64 0 -102.5 -38.5t-38.5 -101.5q0 -62 38.5 -100.5t102.5 -38.5q63 0 101.5 38.5t38.5 100.5q0 63 -38.5 101.5t-101.5 38.5z" />
    <glyph glyph-name="plusminus" unicode="&#xb1;" horiz-adv-x="567" 
d="M51 71h465v-71h-465v71zM323 186h-79v128h-193v71h193v120h79v-120h193v-71h-193v-128z" />
    <glyph glyph-name="acute" unicode="&#xb4;" horiz-adv-x="312" 
d="M261 734l-130 -164h-80l123 165z" />
    <glyph glyph-name="paragraph" unicode="&#xb6;" horiz-adv-x="713" 
d="M628 645h-92v-868h-69v868h-125v-868h-69v549q-100 0 -161.5 52t-60.5 137t62 137.5t160 52.5h355v-60z" />
    <glyph glyph-name="periodcentered" unicode="&#xb7;" horiz-adv-x="206" 
d="M103 235q-23 0 -37.5 14.5t-14.5 36.5q0 23 14.5 37t37.5 14t37.5 -14.5t14.5 -36.5t-15 -36.5t-37 -14.5z" />
    <glyph glyph-name="cedilla" unicode="&#xb8;" horiz-adv-x="320" 
d="M144 -99h-41l15 109h49l-10 -76q51 0 82 -29t31 -76q0 -44 -30.5 -71.5t-79.5 -27.5q-42 0 -72 23t-37 59l42 11q8 -23 25.5 -37t38.5 -14q28 0 44.5 16.5t16.5 43.5q0 31 -20 50t-54 19z" />
    <glyph glyph-name="guillemotright" unicode="&#xbb;" horiz-adv-x="636" 
d="M353 252l-201 -252h-92l203 252l-203 253h92zM588 252l-201 -252h-92l204 252l-204 253h92z" />
    <glyph glyph-name="questiondown" unicode="&#xbf;" horiz-adv-x="601" 
d="M268 318h77q0 -79 -25 -123t-80 -82q-33 -23 -49 -36.5t-31.5 -39.5t-15.5 -56q0 -59 43.5 -99.5t107.5 -40.5q68 0 113.5 46.5t54.5 120.5l78 -15q-13 -100 -81 -163t-167 -63t-165.5 61t-66.5 153q0 34 8.5 61t28.5 49t38 36t50 36q45 30 63.5 63t18.5 92zM307 510
q23 0 37.5 -15t14.5 -37t-14.5 -37t-37.5 -15t-37.5 14.5t-14.5 37.5t14.5 37.5t37.5 14.5z" />
    <glyph glyph-name="Agrave" unicode="&#xc0;" horiz-adv-x="704" 
d="M118 0h-89l263 705h120l263 -705h-89l-53 144h-361zM192 209h321l-160 422zM195 919h91l110 -144h-87z" />
    <glyph glyph-name="Aacute" unicode="&#xc1;" horiz-adv-x="704" 
d="M118 0h-89l263 705h120l263 -705h-89l-53 144h-361zM192 209h321l-160 422zM414 919h90l-114 -144h-87z" />
    <glyph glyph-name="Acircumflex" unicode="&#xc2;" horiz-adv-x="704" 
d="M118 0h-89l263 705h120l263 -705h-89l-53 144h-361zM192 209h321l-160 422zM266 775h-77l124 145h82l124 -145h-76l-89 101z" />
    <glyph glyph-name="Atilde" unicode="&#xc3;" horiz-adv-x="704" 
d="M118 0h-89l263 705h120l263 -705h-89l-53 144h-361zM192 209h321l-160 422zM227 810l-42 30q14 30 43 48t65 18q38 0 77.5 -28t61.5 -28q42 0 65 45l42 -29q-13 -31 -43 -49.5t-68 -18.5q-32 0 -56.5 14t-43.5 28t-37 14q-39 0 -64 -44z" />
    <glyph glyph-name="Adieresis" unicode="&#xc4;" horiz-adv-x="704" 
d="M118 0h-89l263 705h120l263 -705h-89l-53 144h-361zM192 209h321l-160 422zM245 785q-23 0 -37.5 14.5t-14.5 36.5t14.5 36.5t37.5 14.5t37.5 -14t14.5 -37t-14.5 -37t-37.5 -14zM464 785q-23 0 -37.5 14.5t-14.5 36.5t14.5 36.5t37.5 14.5t37.5 -14t14.5 -37t-14.5 -37
t-37.5 -14z" />
    <glyph glyph-name="Aring" unicode="&#xc5;" horiz-adv-x="704" 
d="M118 0h-89l263 705h120l263 -705h-89l-53 144h-361zM192 209h321l-160 422zM352 754q-41 0 -67.5 25.5t-26.5 63.5q0 39 26 64t67 25q40 0 66.5 -25.5t26.5 -63.5q0 -39 -26 -64t-66 -25zM352 885q-19 0 -31 -11.5t-12 -29.5q0 -19 12 -31t31 -12q18 0 30 12t12 31
q0 18 -12 29.5t-30 11.5z" />
    <glyph glyph-name="AE" unicode="&#xc6;" horiz-adv-x="939" 
d="M880 74v-74h-426v143h-257l-75 -143h-93l365 705h477v-75h-340v-237h300v-70h-301v-249h350zM454 214v430l-223 -430h223z" />
    <glyph glyph-name="Ccedilla" unicode="&#xc7;" horiz-adv-x="821" 
d="M433 -99h-42l10 75q-150 9 -245 114t-95 262q0 164 103.5 271t262.5 107q119 0 213 -73t120 -184l-82 -10q-20 83 -91 138t-160 55q-124 0 -203.5 -85.5t-79.5 -218.5q1 -132 80.5 -217.5t202.5 -85.5q89 0 160 52.5t92 133.5l81 -15q-25 -101 -111.5 -169t-198.5 -75
l-5 -42q51 0 82 -29t31 -76q0 -44 -30.5 -71.5t-79.5 -27.5q-42 0 -72 23t-37 59l42 11q8 -23 25.5 -37t39.5 -14q27 0 44 16.5t17 43.5q0 31 -20 50t-54 19z" />
    <glyph glyph-name="Egrave" unicode="&#xc8;" horiz-adv-x="645" 
d="M176 330v-256h410v-74h-491v705h481v-74h-400v-231h360v-70h-360zM179 919h91l110 -144h-87z" />
    <glyph glyph-name="Eacute" unicode="&#xc9;" horiz-adv-x="645" 
d="M176 330v-256h410v-74h-491v705h481v-74h-400v-231h360v-70h-360zM398 919h90l-114 -144h-87z" />
    <glyph glyph-name="Ecircumflex" unicode="&#xca;" horiz-adv-x="645" 
d="M176 330v-256h410v-74h-491v705h481v-74h-400v-231h360v-70h-360zM250 775h-77l124 145h82l124 -145h-76l-89 101z" />
    <glyph glyph-name="Edieresis" unicode="&#xcb;" horiz-adv-x="645" 
d="M176 330v-256h410v-74h-491v705h481v-74h-400v-231h360v-70h-360zM229 785q-23 0 -37.5 14.5t-14.5 36.5t14.5 36.5t37.5 14.5t37.5 -14t14.5 -37t-14.5 -37t-37.5 -14zM448 785q-23 0 -37.5 14.5t-14.5 36.5t14.5 36.5t37.5 14.5t37.5 -14.5t14.5 -36.5t-14.5 -36.5
t-37.5 -14.5z" />
    <glyph glyph-name="Igrave" unicode="&#xcc;" horiz-adv-x="275" 
d="M95 705h84v-705h-84v705zM-22 919h90l111 -144h-87z" />
    <glyph glyph-name="Iacute" unicode="&#xcd;" horiz-adv-x="276" 
d="M96 705h84v-705h-84v705zM197 919h91l-114 -144h-87z" />
    <glyph glyph-name="Icircumflex" unicode="&#xce;" horiz-adv-x="275" 
d="M96 705h84v-705h-84v705zM49 775h-76l123 145h83l123 -145h-75l-90 101z" />
    <glyph glyph-name="Idieresis" unicode="&#xcf;" horiz-adv-x="275" 
d="M95 705h84v-705h-84v705zM28 785q-23 0 -37.5 14t-14.5 37t14.5 37t37.5 14t37.5 -14.5t14.5 -36.5t-14.5 -36.5t-37.5 -14.5zM247 785q-23 0 -37.5 14t-14.5 37t14.5 37t37.5 14t37.5 -14.5t14.5 -36.5t-14.5 -36.5t-37.5 -14.5z" />
    <glyph glyph-name="Ntilde" unicode="&#xd1;" horiz-adv-x="747" 
d="M204 705l365 -603v603h84v-705h-109l-366 603v-603h-83v705h109zM245 810l-41 30q13 30 42 48t65 18q37 0 77 -28t63 -28q43 0 65 45l42 -29q-14 -31 -44 -49.5t-68 -18.5q-40 0 -78 28t-58 28q-38 0 -65 -44z" />
    <glyph glyph-name="Ograve" unicode="&#xd2;" horiz-adv-x="880" 
d="M440 -25q-167 0 -273 105.5t-106 271.5t106.5 272t272.5 106q167 0 273.5 -106t106.5 -272t-106.5 -271.5t-273.5 -105.5zM440 656q-129 0 -212.5 -85.5t-83.5 -218.5q0 -132 83.5 -217t212.5 -86q130 0 213 85.5t83 217.5q0 133 -83 218.5t-213 85.5zM281 919h91
l110 -144h-87z" />
    <glyph glyph-name="Oacute" unicode="&#xd3;" horiz-adv-x="880" 
d="M440 -25q-167 0 -273 105.5t-106 271.5t106.5 272t272.5 106q167 0 273.5 -106t106.5 -272t-106.5 -271.5t-273.5 -105.5zM440 656q-129 0 -212.5 -85.5t-83.5 -218.5q0 -132 83.5 -217t212.5 -86q130 0 213 85.5t83 217.5q0 133 -83 218.5t-213 85.5zM499 919h91
l-114 -144h-87z" />
    <glyph glyph-name="Ocircumflex" unicode="&#xd4;" horiz-adv-x="880" 
d="M440 -25q-167 0 -273 105.5t-106 271.5t106.5 272t272.5 106q167 0 273.5 -106t106.5 -272t-106.5 -271.5t-273.5 -105.5zM440 656q-129 0 -212.5 -85.5t-83.5 -218.5q0 -132 83.5 -217t212.5 -86q130 0 213 85.5t83 217.5q0 133 -83 218.5t-213 85.5zM352 775h-77
l124 145h82l124 -145h-76l-89 101z" />
    <glyph glyph-name="Otilde" unicode="&#xd5;" horiz-adv-x="880" 
d="M440 -25q-167 0 -273 105.5t-106 271.5t106.5 272t272.5 106q167 0 273.5 -106t106.5 -272t-106.5 -271.5t-273.5 -105.5zM440 656q-129 0 -212.5 -85.5t-83.5 -218.5q0 -132 83.5 -217t212.5 -86q130 0 213 85.5t83 217.5q0 133 -83 218.5t-213 85.5zM310 810l-41 30
q14 30 43 48t65 18q37 0 76.5 -28t62.5 -28q42 0 65 45l42 -29q-14 -31 -44 -49.5t-68 -18.5q-32 0 -56 14t-43 28t-37 14q-38 0 -65 -44z" />
    <glyph glyph-name="Odieresis" unicode="&#xd6;" horiz-adv-x="880" 
d="M440 -25q-167 0 -273 105.5t-106 271.5t106.5 272t272.5 106q167 0 273.5 -106t106.5 -272t-106.5 -271.5t-273.5 -105.5zM440 656q-129 0 -212.5 -85.5t-83.5 -218.5q0 -132 83.5 -217t212.5 -86q130 0 213 85.5t83 217.5q0 133 -83 218.5t-213 85.5zM331 785
q-23 0 -37.5 14.5t-14.5 36.5t14.5 36.5t37.5 14.5t37.5 -14.5t14.5 -36.5t-14.5 -36.5t-37.5 -14.5zM550 785q-23 0 -37.5 14t-14.5 37t14.5 37t37.5 14t37.5 -14.5t14.5 -36.5t-14.5 -36.5t-37.5 -14.5z" />
    <glyph glyph-name="multiply" unicode="&#xd7;" horiz-adv-x="395" 
d="M97 141l-46 46l101 109l-101 109l47 46l99 -107l100 107l47 -46l-102 -109l102 -109l-47 -46l-100 107z" />
    <glyph glyph-name="Oslash" unicode="&#xd8;" horiz-adv-x="860" 
d="M234 -140h-79l83 165q-83 48 -130 133.5t-47 193.5q0 164 104.5 271t264.5 107q80 0 147 -29l80 159l79 1l-96 -192q75 -50 117.5 -133t42.5 -184q0 -164 -104.5 -270.5t-265.5 -106.5q-64 0 -129 21zM430 656q-124 0 -205 -86t-81 -218q0 -83 34.5 -149.5t94.5 -106.5
l271 537q-54 23 -114 23zM430 49q125 0 205.5 85.5t80.5 217.5q0 77 -29.5 141t-82.5 104l-268 -533q44 -15 94 -15z" />
    <glyph glyph-name="Ugrave" unicode="&#xd9;" horiz-adv-x="749" 
d="M577 286v419h83v-419q0 -137 -80 -224t-205 -87q-126 0 -206 87t-80 224v419h83v-419q0 -99 56.5 -168t146.5 -69t146 66t56 171zM218 919h90l110 -144h-86z" />
    <glyph glyph-name="Uacute" unicode="&#xda;" horiz-adv-x="749" 
d="M577 286v419h83v-419q0 -137 -80 -224t-205 -87q-126 0 -206 87t-80 224v419h83v-419q0 -99 56.5 -168t146.5 -69t146 66t56 171zM432 919h90l-114 -144h-87z" />
    <glyph glyph-name="Ucircumflex" unicode="&#xdb;" horiz-adv-x="749" 
d="M577 286v419h83v-419q0 -137 -80 -224t-205 -87q-126 0 -206 87t-80 224v419h83v-419q0 -99 56.5 -168t146.5 -69t146 66t56 171zM286 775h-77l124 145h83l123 -145h-76l-89 101z" />
    <glyph glyph-name="Udieresis" unicode="&#xdc;" horiz-adv-x="749" 
d="M577 286v419h83v-419q0 -137 -80 -224t-205 -87q-126 0 -206 87t-80 224v419h83v-419q0 -99 56.5 -168t146.5 -69t146 66t56 171zM265 785q-23 0 -37.5 14.5t-14.5 36.5t14.5 36.5t37.5 14.5t37.5 -14t14.5 -37t-14.5 -37t-37.5 -14zM484 785q-23 0 -37.5 14.5
t-14.5 36.5t14.5 36.5t37.5 14.5t37.5 -14t14.5 -37t-14.5 -37t-37.5 -14z" />
    <glyph glyph-name="Yacute" unicode="&#xdd;" horiz-adv-x="647" 
d="M282 0v262l-253 443h92l203 -363l200 363h94l-252 -443v-262h-84zM380 919h91l-114 -144h-87z" />
    <glyph glyph-name="germandbls" unicode="&#xdf;" horiz-adv-x="684" 
d="M168 472v-472h-83v480q0 105 68 173.5t174 68.5q97 0 161.5 -54.5t64.5 -136.5q0 -61 -32.5 -103.5t-84.5 -50.5q79 -10 128.5 -65.5t48.5 -135.5q0 -87 -60.5 -144t-151.5 -57q-77 0 -162 46l25 70q69 -43 132 -43q60 0 97 37.5t37 97.5q0 72 -45.5 114.5t-131.5 42.5
h-42v70h43q50 0 82.5 32t32.5 83q0 53 -40.5 88t-103.5 35q-70 0 -113.5 -48t-43.5 -128z" />
    <glyph glyph-name="agrave" unicode="&#xe0;" horiz-adv-x="669" 
d="M514 505h76v-505h-76v89q-33 -51 -86 -80t-117 -29q-113 0 -186.5 77t-73.5 195q0 119 73.5 196t186.5 77q64 0 117 -29t86 -81v90zM320 49q83 0 138 57.5t55 145.5t-55 145.5t-138 57.5q-84 0 -138.5 -57.5t-54.5 -145.5t54.5 -145.5t138.5 -57.5zM144 729l87 1
l123 -165h-80z" />
    <glyph glyph-name="aacute" unicode="&#xe1;" horiz-adv-x="669" 
d="M514 505h76v-505h-76v89q-33 -51 -86 -80t-117 -29q-113 0 -186.5 77t-73.5 195q0 119 73.5 196t186.5 77q64 0 117 -29t86 -81v90zM320 49q83 0 138 57.5t55 145.5t-55 145.5t-138 57.5q-84 0 -138.5 -57.5t-54.5 -145.5t54.5 -145.5t138.5 -57.5zM389 729h86l-130 -164
h-80z" />
    <glyph glyph-name="acircumflex" unicode="&#xe2;" horiz-adv-x="669" 
d="M514 505h76v-505h-76v89q-33 -51 -86 -80t-117 -29q-113 0 -186.5 77t-73.5 195q0 119 73.5 196t186.5 77q64 0 117 -29t86 -81v90zM320 49q83 0 138 57.5t55 145.5t-55 145.5t-138 57.5q-84 0 -138.5 -57.5t-54.5 -145.5t54.5 -145.5t138.5 -57.5zM223 565h-72l120 165
h81l122 -165h-74l-88 120z" />
    <glyph glyph-name="atilde" unicode="&#xe3;" horiz-adv-x="669" 
d="M514 505h76v-505h-76v89q-33 -51 -86 -80t-117 -29q-113 0 -186.5 77t-73.5 195q0 119 73.5 196t186.5 77q64 0 117 -29t86 -81v90zM320 49q83 0 138 57.5t55 145.5t-55 145.5t-138 57.5q-84 0 -138.5 -57.5t-54.5 -145.5t54.5 -145.5t138.5 -57.5zM197 592l-42 23
q14 29 43.5 47.5t63.5 18.5q36 0 78 -29t65 -29q20 0 36.5 10.5t24.5 27.5l43 -23q-14 -30 -43.5 -48.5t-67.5 -18.5q-40 0 -80 28.5t-62 28.5q-39 0 -59 -36z" />
    <glyph glyph-name="adieresis" unicode="&#xe4;" horiz-adv-x="669" 
d="M514 505h76v-505h-76v89q-33 -51 -86 -80t-117 -29q-113 0 -186.5 77t-73.5 195q0 119 73.5 196t186.5 77q64 0 117 -29t86 -81v90zM320 49q83 0 138 57.5t55 145.5t-55 145.5t-138 57.5q-84 0 -138.5 -57.5t-54.5 -145.5t54.5 -145.5t138.5 -57.5zM192 582
q-23 0 -38 14.5t-15 36.5t15 36.5t38 14.5t37.5 -14.5t14.5 -36.5t-14.5 -36.5t-37.5 -14.5zM430 582q-23 0 -37.5 14.5t-14.5 36.5t14.5 36.5t37.5 14.5t37.5 -14t14.5 -37t-14.5 -37t-37.5 -14z" />
    <glyph glyph-name="aring" unicode="&#xe5;" horiz-adv-x="669" 
d="M514 505h76v-505h-76v89q-33 -51 -86 -80t-117 -29q-113 0 -186.5 77t-73.5 195q0 119 73.5 196t186.5 77q64 0 117 -29t86 -81v90zM320 49q83 0 138 57.5t55 145.5t-55 145.5t-138 57.5q-84 0 -138.5 -57.5t-54.5 -145.5t54.5 -145.5t138.5 -57.5zM311 555
q-52 0 -86 32.5t-34 82.5t34 82.5t86 32.5t85.5 -32.5t33.5 -82.5t-33.5 -82.5t-85.5 -32.5zM311 738q-31 0 -50.5 -19t-18.5 -49q0 -30 19 -49.5t50 -19.5q29 0 48.5 19.5t19.5 49.5t-19.5 49t-48.5 19z" />
    <glyph glyph-name="ae" unicode="&#xe6;" horiz-adv-x="1083" 
d="M509 420v85h61v-92q28 53 78.5 82.5t118.5 29.5q115 0 190 -75t75 -191q0 -15 -2 -45h-446q12 -75 63 -120t126 -45q58 0 105 31.5t61 79.5l72 -10q-13 -74 -79.5 -122t-154.5 -48q-69 0 -125 31.5t-82 84.5v-96h-61v84q-73 -104 -202 -104q-112 0 -184 77t-72 195
q0 119 72 196t184 77q63 0 115.5 -28t86.5 -77zM320 460q-85 0 -139 -58.5t-54 -149.5q0 -90 54.5 -148.5t138.5 -58.5q83 0 138 57.5t55 149.5q0 91 -54.5 149.5t-138.5 58.5zM581 279h374q-3 77 -56 126.5t-134 49.5q-76 0 -126.5 -49.5t-57.5 -126.5z" />
    <glyph glyph-name="ccedilla" unicode="&#xe7;" horiz-adv-x="610" 
d="M328 -99h-42l11 79q-108 7 -177 82.5t-69 189.5q0 118 74.5 195.5t188.5 77.5q92 0 161 -52.5t83 -132.5l-74 -10q-14 56 -62 92t-108 36q-80 0 -133.5 -58.5t-53.5 -147.5t53 -147t134 -58q61 0 108 35t62 90l75 -10q-15 -71 -74.5 -121t-138.5 -59l-6 -48q51 0 82 -29
t31 -76q0 -44 -30.5 -71.5t-79.5 -27.5q-42 0 -72 23t-37 59l42 11q8 -23 25.5 -37t38.5 -14q28 0 45 16.5t17 43.5q0 31 -20 50t-54 19z" />
    <glyph glyph-name="egrave" unicode="&#xe8;" horiz-adv-x="635" 
d="M51 258q0 116 75.5 191.5t192.5 75.5q115 0 190 -76t75 -192q0 -19 -1 -30l-454 1q9 -80 61 -129.5t127 -49.5q59 0 108.5 32.5t66.5 81.5l75 -12q-23 -74 -93 -122.5t-154 -48.5q-117 0 -193 78.5t-76 199.5zM131 294l373 -1q-11 72 -62 117t-126 45q-73 0 -123.5 -44.5
t-61.5 -116.5zM154 729l86 1l124 -165h-80z" />
    <glyph glyph-name="eacute" unicode="&#xe9;" horiz-adv-x="635" 
d="M51 258q0 116 75.5 191.5t192.5 75.5q115 0 190 -76t75 -192q0 -19 -1 -30l-454 1q9 -80 61 -129.5t127 -49.5q59 0 108.5 32.5t66.5 81.5l75 -12q-23 -74 -93 -122.5t-154 -48.5q-117 0 -193 78.5t-76 199.5zM131 294l373 -1q-11 72 -62 117t-126 45q-73 0 -123.5 -44.5
t-61.5 -116.5zM398 729h87l-130 -164h-80z" />
    <glyph glyph-name="ecircumflex" unicode="&#xea;" horiz-adv-x="635" 
d="M51 258q0 116 75.5 191.5t192.5 75.5q115 0 190 -76t75 -192q0 -19 -1 -30l-454 1q9 -80 61 -129.5t127 -49.5q59 0 108.5 32.5t66.5 81.5l75 -12q-23 -74 -93 -122.5t-154 -48.5q-117 0 -193 78.5t-76 199.5zM131 294l373 -1q-11 72 -62 117t-126 45q-73 0 -123.5 -44.5
t-61.5 -116.5zM233 565h-72l120 165h81l121 -165h-73l-88 120z" />
    <glyph glyph-name="edieresis" unicode="&#xeb;" horiz-adv-x="635" 
d="M51 258q0 116 75.5 191.5t192.5 75.5q115 0 190 -76t75 -192q0 -19 -1 -30l-454 1q9 -80 61 -129.5t127 -49.5q59 0 108.5 32.5t66.5 81.5l75 -12q-23 -74 -93 -122.5t-154 -48.5q-117 0 -193 78.5t-76 199.5zM131 294l373 -1q-11 72 -62 117t-126 45q-73 0 -123.5 -44.5
t-61.5 -116.5zM201 582q-23 0 -37.5 14.5t-14.5 36.5t14.5 36.5t37.5 14.5t37.5 -14t14.5 -37t-14.5 -37t-37.5 -14zM440 582q-23 0 -37.5 14.5t-14.5 36.5t14.5 36.5t37.5 14.5t37.5 -14t14.5 -37t-14.5 -37t-37.5 -14z" />
    <glyph glyph-name="igrave" unicode="&#xec;" horiz-adv-x="233" 
d="M79 505h77v-505h-77v505zM-50 729l87 1l123 -165h-80z" />
    <glyph glyph-name="iacute" unicode="&#xed;" horiz-adv-x="237" 
d="M81 505h76v-505h-76v505zM197 729h86l-130 -164h-80z" />
    <glyph glyph-name="icircumflex" unicode="&#xee;" horiz-adv-x="232" 
d="M77 505h76v-505h-76v505zM27 565h-72l120 165h81l121 -165h-73l-88 120z" />
    <glyph glyph-name="idieresis" unicode="&#xef;" horiz-adv-x="239" 
d="M81 505h77v-505h-77v505zM0 582q-23 0 -37.5 14t-14.5 37t14.5 37t37.5 14t37.5 -14t14.5 -37t-14.5 -37t-37.5 -14zM239 582q-23 0 -37.5 14t-14.5 37t14.5 37t37.5 14t37.5 -14.5t14.5 -36.5t-14.5 -36.5t-37.5 -14.5z" />
    <glyph glyph-name="ntilde" unicode="&#xf1;" 
d="M79 505h76v-71q26 42 73 66.5t100 24.5q95 0 151.5 -62.5t56.5 -160.5v-302h-76v302q0 68 -37.5 110.5t-102.5 42.5q-67 0 -116 -46t-49 -114v-295h-76v505zM172 592l-41 23q14 30 43 48t64 18q36 0 77.5 -29t64.5 -29q43 0 62 38l43 -23q-14 -30 -44 -48.5t-67 -18.5
q-32 0 -57 14.5t-45 28.5t-40 14q-40 0 -60 -36z" />
    <glyph glyph-name="ograve" unicode="&#xf2;" horiz-adv-x="640" 
d="M320 525q118 0 194 -76.5t76 -196.5q0 -119 -76 -195.5t-194 -76.5t-193.5 76.5t-75.5 195.5q0 120 75.5 196.5t193.5 76.5zM320 49q84 0 138.5 57.5t54.5 145.5t-54.5 145.5t-138.5 57.5t-138.5 -57.5t-54.5 -145.5t54.5 -145.5t138.5 -57.5zM153 729l87 1l123 -165h-79
z" />
    <glyph glyph-name="oacute" unicode="&#xf3;" horiz-adv-x="640" 
d="M320 525q118 0 194 -76.5t76 -196.5q0 -119 -76 -195.5t-194 -76.5t-193.5 76.5t-75.5 195.5q0 120 75.5 196.5t193.5 76.5zM320 49q84 0 138.5 57.5t54.5 145.5t-54.5 145.5t-138.5 57.5t-138.5 -57.5t-54.5 -145.5t54.5 -145.5t138.5 -57.5zM398 729h87l-131 -164h-80z
" />
    <glyph glyph-name="ocircumflex" unicode="&#xf4;" horiz-adv-x="640" 
d="M320 525q118 0 194 -76.5t76 -196.5q0 -119 -76 -195.5t-194 -76.5t-193.5 76.5t-75.5 195.5q0 120 75.5 196.5t193.5 76.5zM320 49q84 0 138.5 57.5t54.5 145.5t-54.5 145.5t-138.5 57.5t-138.5 -57.5t-54.5 -145.5t54.5 -145.5t138.5 -57.5zM232 565h-72l120 165h82
l121 -165h-74l-88 120z" />
    <glyph glyph-name="otilde" unicode="&#xf5;" horiz-adv-x="640" 
d="M320 525q118 0 194 -76.5t76 -196.5q0 -119 -76 -195.5t-194 -76.5t-193.5 76.5t-75.5 195.5q0 120 75.5 196.5t193.5 76.5zM320 49q84 0 138.5 57.5t54.5 145.5t-54.5 145.5t-138.5 57.5t-138.5 -57.5t-54.5 -145.5t54.5 -145.5t138.5 -57.5zM196 592l-42 23
q14 29 43.5 47.5t64.5 18.5q36 0 77.5 -29t64.5 -29q43 0 62 38l42 -23q-13 -30 -43 -48.5t-68 -18.5q-39 0 -79.5 28.5t-62.5 28.5q-39 0 -59 -36z" />
    <glyph glyph-name="odieresis" unicode="&#xf6;" horiz-adv-x="640" 
d="M320 525q118 0 194 -76.5t76 -196.5q0 -119 -76 -195.5t-194 -76.5t-193.5 76.5t-75.5 195.5q0 120 75.5 196.5t193.5 76.5zM320 49q84 0 138.5 57.5t54.5 145.5t-54.5 145.5t-138.5 57.5t-138.5 -57.5t-54.5 -145.5t54.5 -145.5t138.5 -57.5zM201 582q-23 0 -37.5 14
t-14.5 37t14.5 37t37.5 14t37.5 -14.5t14.5 -36.5t-14.5 -36.5t-37.5 -14.5zM440 582q-23 0 -37.5 14t-14.5 37t14.5 37t37.5 14t37.5 -14.5t14.5 -36.5t-14.5 -36.5t-37.5 -14.5z" />
    <glyph glyph-name="divide" unicode="&#xf7;" horiz-adv-x="552" 
d="M276 20q-21 0 -34.5 13t-13.5 34q0 20 13.5 32.5t34.5 12.5q20 0 33.5 -13t13.5 -32q0 -21 -13.5 -34t-33.5 -13zM276 417q-21 0 -34.5 13t-13.5 34q0 20 13.5 32.5t34.5 12.5q20 0 33.5 -13t13.5 -32q0 -21 -13.5 -34t-33.5 -13zM51 308h450v-70h-450v70z" />
    <glyph glyph-name="oslash" unicode="&#xf8;" horiz-adv-x="645" 
d="M239 -9l-35 -71h-73l48 96q-60 35 -94 96.5t-34 139.5q0 120 76.5 196.5t195.5 76.5q55 0 103 -18l46 93h73l-62 -123q52 -36 81.5 -94.5t29.5 -130.5q0 -119 -76 -195.5t-195 -76.5q-43 0 -84 11zM323 465q-89 0 -146 -60t-57 -153q0 -57 23.5 -103.5t64.5 -74.5
l189 377q-36 14 -74 14zM323 40q88 0 144.5 60t56.5 152q0 105 -71 166l-186 -371q24 -7 56 -7z" />
    <glyph glyph-name="ugrave" unicode="&#xf9;" 
d="M526 0h-76v71q-25 -42 -72.5 -66.5t-100.5 -24.5q-95 0 -151.5 62.5t-56.5 160.5v302h76v-302q0 -68 37.5 -111t103.5 -43q67 0 115.5 46t48.5 114v296h76v-505zM140 729h87l124 -165h-80z" />
    <glyph glyph-name="uacute" unicode="&#xfa;" 
d="M526 0h-76v71q-25 -42 -72.5 -66.5t-100.5 -24.5q-95 0 -151.5 62.5t-56.5 160.5v302h76v-302q0 -68 37.5 -111t103.5 -43q67 0 115.5 46t48.5 114v296h76v-505zM373 729l87 -1l-131 -164h-80z" />
    <glyph glyph-name="ucircumflex" unicode="&#xfb;" 
d="M526 0h-76v71q-25 -42 -72.5 -66.5t-100.5 -24.5q-95 0 -151.5 62.5t-56.5 160.5v302h76v-302q0 -68 37.5 -111t103.5 -43q67 0 115.5 46t48.5 114v296h76v-505zM209 564h-72l120 165h82l121 -165h-74l-88 121z" />
    <glyph glyph-name="udieresis" unicode="&#xfc;" 
d="M526 0h-76v71q-25 -42 -72.5 -66.5t-100.5 -24.5q-95 0 -151.5 62.5t-56.5 160.5v302h76v-302q0 -68 37.5 -111t103.5 -43q67 0 115.5 46t48.5 114v296h76v-505zM178 581q-23 0 -37.5 14.5t-14.5 36.5q0 23 14.5 37t37.5 14t37.5 -14.5t14.5 -36.5t-15 -36.5t-37 -14.5z
M417 581q-23 0 -37.5 14.5t-14.5 36.5q0 23 14.5 37t37.5 14t37.5 -14.5t14.5 -36.5t-15 -36.5t-37 -14.5z" />
    <glyph glyph-name="yacute" unicode="&#xfd;" horiz-adv-x="569" 
d="M64 -208v67q40 -14 67 -14q15 0 28 4t24 14t19 19t17 26.5t13.5 28t14 32.5t13.5 32l-227 504h84l180 -410l158 410h81l-201 -512q-22 -56 -35.5 -84.5t-37.5 -64.5t-53 -51.5t-67 -15.5q-40 0 -78 15zM360 729h87l-131 -164h-79z" />
    <glyph glyph-name="ydieresis" unicode="&#xff;" horiz-adv-x="569" 
d="M64 -208v67q40 -14 67 -14q15 0 28 4t24 14t19 19t17 26.5t13.5 28t14 32.5t13.5 32l-227 504h84l180 -410l158 410h81l-201 -512q-22 -56 -35.5 -84.5t-37.5 -64.5t-53 -51.5t-67 -15.5q-40 0 -78 15zM165 582q-23 0 -37.5 14.5t-14.5 36.5t14.5 36.5t37.5 14.5
t37.5 -14t14.5 -37t-14.5 -37t-37.5 -14zM404 582q-23 0 -37.5 14.5t-14.5 36.5t14.5 36.5t37.5 14.5t37.5 -14t14.5 -37t-14.5 -37t-37.5 -14z" />
    <glyph glyph-name="Amacron" unicode="&#x100;" horiz-adv-x="704" 
d="M118 0h-89l263 705h120l263 -705h-89l-53 144h-361zM192 209h321l-160 422zM512 858v-53h-314v53h314z" />
    <glyph glyph-name="amacron" unicode="&#x101;" horiz-adv-x="669" 
d="M514 505h76v-505h-76v89q-33 -51 -86 -80t-117 -29q-113 0 -186.5 77t-73.5 195q0 119 73.5 196t186.5 77q64 0 117 -29t86 -81v90zM320 49q83 0 138 57.5t55 145.5t-55 145.5t-138 57.5q-84 0 -138.5 -57.5t-54.5 -145.5t54.5 -145.5t138.5 -57.5zM468 648v-53h-314v53
h314z" />
    <glyph glyph-name="Abreve" unicode="&#x102;" horiz-adv-x="704" 
d="M118 0h-89l263 705h120l263 -705h-89l-53 144h-361zM192 209h321l-160 422zM427 917h59q0 -64 -34 -103t-97 -39t-97.5 39t-34.5 103h60q0 -38 20.5 -62t51.5 -24t51.5 24t20.5 62z" />
    <glyph glyph-name="abreve" unicode="&#x103;" horiz-adv-x="669" 
d="M514 505h76v-505h-76v89q-33 -51 -86 -80t-117 -29q-113 0 -186.5 77t-73.5 195q0 119 73.5 196t186.5 77q64 0 117 -29t86 -81v90zM320 49q83 0 138 57.5t55 145.5t-55 145.5t-138 57.5q-84 0 -138.5 -57.5t-54.5 -145.5t54.5 -145.5t138.5 -57.5zM382 725h61
q0 -67 -34 -113.5t-98 -46.5q-65 0 -98.5 46t-33.5 114h61q0 -46 20 -75t51 -29t51 29t20 75z" />
    <glyph glyph-name="Aogonek" unicode="&#x104;" horiz-adv-x="752" 
d="M587 0h-1l-53 144h-361l-54 -144h-89l263 705h120l263 -705h-11q-108 -29 -108 -101q0 -54 46 -87t121 -35v-56q-96 0 -157.5 47t-61.5 120q0 75 83 112zM192 209h321l-160 422z" />
    <glyph glyph-name="aogonek" unicode="&#x105;" horiz-adv-x="720" 
d="M514 4v85q-33 -51 -86 -80t-117 -29q-113 0 -186.5 77t-73.5 195q0 119 73.5 196t186.5 77q64 0 117 -29t86 -81v90h76v-505h-8q-109 -30 -109 -101q0 -54 46.5 -87t121.5 -35v-56q-96 0 -157.5 47t-61.5 120q0 81 92 116zM320 49q83 0 138 57.5t55 145.5t-55 145.5
t-138 57.5q-84 0 -138.5 -57.5t-54.5 -145.5t54.5 -145.5t138.5 -57.5z" />
    <glyph glyph-name="Cacute" unicode="&#x106;" horiz-adv-x="821" 
d="M427 49q89 0 160 52.5t92 133.5l81 -15q-26 -106 -120 -175.5t-213 -69.5q-159 0 -262.5 106.5t-103.5 270.5t103.5 271t262.5 107q119 0 213 -73t120 -184l-82 -10q-20 83 -91 138t-160 55q-124 0 -203.5 -85.5t-79.5 -218.5q1 -132 80.5 -217.5t202.5 -85.5zM470 919
h91l-114 -144h-87z" />
    <glyph glyph-name="cacute" unicode="&#x107;" horiz-adv-x="610" 
d="M314 525q92 0 161 -52.5t83 -132.5l-74 -10q-14 56 -62 92t-108 36q-80 0 -133.5 -58.5t-53.5 -147.5t53 -147t134 -58q61 0 108 35t62 90l75 -10q-17 -79 -86.5 -130.5t-158.5 -51.5q-115 0 -189 76.5t-74 195.5q0 118 74.5 195.5t188.5 77.5zM392 729h86l-130 -164h-80
z" />
    <glyph glyph-name="Ccircumflex" unicode="&#x108;" horiz-adv-x="821" 
d="M427 49q89 0 160 52.5t92 133.5l81 -15q-26 -106 -120 -175.5t-213 -69.5q-159 0 -262.5 106.5t-103.5 270.5t103.5 271t262.5 107q119 0 213 -73t120 -184l-82 -10q-20 83 -91 138t-160 55q-124 0 -203.5 -85.5t-79.5 -218.5q1 -132 80.5 -217.5t202.5 -85.5zM322 775
h-76l123 145h83l123 -145h-75l-90 101z" />
    <glyph glyph-name="ccircumflex" unicode="&#x109;" horiz-adv-x="610" 
d="M314 525q92 0 161 -52.5t83 -132.5l-74 -10q-14 56 -62 92t-108 36q-80 0 -133.5 -58.5t-53.5 -147.5t53 -147t134 -58q61 0 108 35t62 90l75 -10q-17 -79 -86.5 -130.5t-158.5 -51.5q-115 0 -189 76.5t-74 195.5q0 118 74.5 195.5t188.5 77.5zM226 565h-72l120 165h81
l122 -165h-74l-88 120z" />
    <glyph glyph-name="Cdotaccent" unicode="&#x10a;" horiz-adv-x="821" 
d="M427 49q89 0 160 52.5t92 133.5l81 -15q-26 -106 -120 -175.5t-213 -69.5q-159 0 -262.5 106.5t-103.5 270.5t103.5 271t262.5 107q119 0 213 -73t120 -184l-82 -10q-20 83 -91 138t-160 55q-124 0 -203.5 -85.5t-79.5 -218.5q1 -132 80.5 -217.5t202.5 -85.5zM411 780
q-23 0 -37.5 13.5t-14.5 35.5q1 22 15 35t37 13t37.5 -13t14.5 -35t-14.5 -35.5t-37.5 -13.5z" />
    <glyph glyph-name="cdotaccent" unicode="&#x10b;" horiz-adv-x="610" 
d="M314 525q92 0 161 -52.5t83 -132.5l-74 -10q-14 56 -62 92t-108 36q-80 0 -133.5 -58.5t-53.5 -147.5t53 -147t134 -58q61 0 108 35t62 90l75 -10q-17 -79 -86.5 -130.5t-158.5 -51.5q-115 0 -189 76.5t-74 195.5q0 118 74.5 195.5t188.5 77.5zM314 595q-23 0 -37.5 14.5
t-14.5 37.5q0 22 15 36.5t37 14.5q23 0 37.5 -14.5t14.5 -36.5q0 -23 -14.5 -37.5t-37.5 -14.5z" />
    <glyph glyph-name="Ccaron" unicode="&#x10c;" horiz-adv-x="821" 
d="M427 49q89 0 160 52.5t92 133.5l81 -15q-26 -106 -120 -175.5t-213 -69.5q-159 0 -262.5 106.5t-103.5 270.5t103.5 271t262.5 107q119 0 213 -73t120 -184l-82 -10q-20 83 -91 138t-160 55q-124 0 -203.5 -85.5t-79.5 -218.5q1 -132 80.5 -217.5t202.5 -85.5zM499 940
h74l-121 -164h-82l-120 164h72l89 -120z" />
    <glyph glyph-name="ccaron" unicode="&#x10d;" horiz-adv-x="610" 
d="M314 525q92 0 161 -52.5t83 -132.5l-74 -10q-14 56 -62 92t-108 36q-80 0 -133.5 -58.5t-53.5 -147.5t53 -147t134 -58q61 0 108 35t62 90l75 -10q-17 -79 -86.5 -130.5t-158.5 -51.5q-115 0 -189 76.5t-74 195.5q0 118 74.5 195.5t188.5 77.5zM402 729l73 1l-121 -165
h-81l-120 164h72l89 -120z" />
    <glyph glyph-name="Dcaron" unicode="&#x10e;" horiz-adv-x="781" 
d="M95 0v705h215q185 0 297.5 -97t112.5 -256q0 -158 -113 -255t-297 -97h-215zM638 352q0 127 -90 203t-238 76h-132v-557h132q148 0 238 75.5t90 202.5zM446 937h74l-121 -164h-82l-120 164h72l89 -120z" />
    <glyph glyph-name="dcaron" unicode="&#x10f;" horiz-adv-x="763" 
d="M51 252q0 118 74 195.5t187 77.5q63 0 114.5 -28t84.5 -77v315h76v-735h-74v87q-33 -50 -85 -78.5t-116 -28.5q-113 0 -187 77t-74 195zM320 451q-84 0 -138.5 -56.5t-54.5 -142.5q0 -87 54.5 -142.5t138.5 -55.5t138.5 56t54.5 142t-54.5 142.5t-138.5 56.5zM693 633
q-19 0 -31 12.5t-12 32.5t12.5 32.5t31.5 12.5q23 0 37.5 -17t14.5 -43q0 -37 -17.5 -73t-45.5 -57l-27 22q37 35 37 78z" />
    <glyph glyph-name="Dcroat" unicode="&#x110;" horiz-adv-x="828" 
d="M141 439v266h215q185 0 297.5 -97t112.5 -256q0 -158 -113 -255t-297 -97h-215v369h-112v70h112zM684 352q0 127 -90 203t-238 76h-132v-192h205v-70h-205v-295h132q148 0 238 75.5t90 202.5z" />
    <glyph glyph-name="dcroat" unicode="&#x111;" horiz-adv-x="715" 
d="M511 420v182h-211v57h211v76h76v-76h95v-57h-95v-602h-74v87q-33 -50 -85 -78.5t-116 -28.5q-113 0 -187 77t-74 195t74 195.5t187 77.5q63 0 114.5 -28t84.5 -77zM320 451q-84 0 -138.5 -56.5t-54.5 -142.5q0 -87 54.5 -142.5t138.5 -55.5t138.5 56t54.5 142
t-54.5 142.5t-138.5 56.5z" />
    <glyph glyph-name="Emacron" unicode="&#x112;" horiz-adv-x="645" 
d="M176 330v-256h410v-74h-491v705h481v-74h-400v-231h360v-70h-360zM496 858v-53h-314v53h314z" />
    <glyph glyph-name="emacron" unicode="&#x113;" horiz-adv-x="635" 
d="M51 258q0 116 75.5 191.5t192.5 75.5q115 0 190 -76t75 -192q0 -19 -1 -30l-454 1q9 -80 61 -129.5t127 -49.5q59 0 108.5 32.5t66.5 81.5l75 -12q-23 -74 -93 -122.5t-154 -48.5q-117 0 -193 78.5t-76 199.5zM131 294l373 -1q-11 72 -62 117t-126 45q-73 0 -123.5 -44.5
t-61.5 -116.5zM478 648v-53h-314v53h314z" />
    <glyph glyph-name="Ebreve" unicode="&#x114;" horiz-adv-x="645" 
d="M176 330v-256h410v-74h-491v705h481v-74h-400v-231h360v-70h-360zM411 917h59q0 -64 -34 -103t-97 -39t-97.5 39t-34.5 103h60q0 -38 20.5 -62t51.5 -24t51.5 24t20.5 62z" />
    <glyph glyph-name="ebreve" unicode="&#x115;" horiz-adv-x="635" 
d="M51 258q0 116 75.5 191.5t192.5 75.5q115 0 190 -76t75 -192q0 -19 -1 -30l-454 1q9 -80 61 -129.5t127 -49.5q59 0 108.5 32.5t66.5 81.5l75 -12q-23 -74 -93 -122.5t-154 -48.5q-117 0 -193 78.5t-76 199.5zM131 294l373 -1q-11 72 -62 117t-126 45q-73 0 -123.5 -44.5
t-61.5 -116.5zM392 725h60q0 -67 -33.5 -113.5t-97.5 -46.5q-65 0 -98.5 46t-33.5 114h61q0 -46 20 -75t51 -29t51 29t20 75z" />
    <glyph glyph-name="Edotaccent" unicode="&#x116;" horiz-adv-x="645" 
d="M176 330v-256h410v-74h-491v705h481v-74h-400v-231h360v-70h-360zM339 780q-24 0 -38 13.5t-14 35.5t14.5 35t37.5 13t37.5 -13t14.5 -35t-14.5 -35.5t-37.5 -13.5z" />
    <glyph glyph-name="edotaccent" unicode="&#x117;" horiz-adv-x="635" 
d="M51 258q0 116 75.5 191.5t192.5 75.5q115 0 190 -76t75 -192q0 -19 -1 -30l-454 1q9 -80 61 -129.5t127 -49.5q59 0 108.5 32.5t66.5 81.5l75 -12q-23 -74 -93 -122.5t-154 -48.5q-117 0 -193 78.5t-76 199.5zM131 294l373 -1q-11 72 -62 117t-126 45q-73 0 -123.5 -44.5
t-61.5 -116.5zM321 595q-23 0 -37.5 14.5t-14.5 37.5q0 22 14.5 36.5t37.5 14.5q22 0 37 -14.5t15 -36.5q0 -23 -14.5 -37.5t-37.5 -14.5z" />
    <glyph glyph-name="Eogonek" unicode="&#x118;" horiz-adv-x="645" 
d="M451 0h-356v705h481v-74h-400v-231h360v-70h-360v-256h410v-74h-58q-109 -30 -109 -101q0 -54 46 -87t121 -35v-56q-95 0 -156.5 47t-61.5 120q0 75 83 112z" />
    <glyph glyph-name="eogonek" unicode="&#x119;" horiz-adv-x="635" 
d="M308 -20q-113 5 -185 82.5t-72 195.5q0 116 75.5 191.5t192.5 75.5q115 0 190 -76t75 -192q0 -19 -1 -30l-454 1q9 -80 61 -129.5t127 -49.5q59 0 108.5 32.5t66.5 81.5l75 -12q-20 -60 -69.5 -103.5t-112.5 -59.5q-75 -30 -75 -90q0 -54 46 -87t121 -35v-56
q-96 0 -157 47t-61 120q0 57 49 93zM131 294l373 -1q-11 72 -62 117t-126 45q-73 0 -123.5 -44.5t-61.5 -116.5z" />
    <glyph glyph-name="Ecaron" unicode="&#x11a;" horiz-adv-x="645" 
d="M176 330v-256h410v-74h-491v705h481v-74h-400v-231h360v-70h-360zM427 939l73 1l-121 -165h-82l-120 164h73l89 -120z" />
    <glyph glyph-name="ecaron" unicode="&#x11b;" horiz-adv-x="635" 
d="M51 258q0 116 75.5 191.5t192.5 75.5q115 0 190 -76t75 -192q0 -19 -1 -30l-454 1q9 -80 61 -129.5t127 -49.5q59 0 108.5 32.5t66.5 81.5l75 -12q-23 -74 -93 -122.5t-154 -48.5q-117 0 -193 78.5t-76 199.5zM131 294l373 -1q-11 72 -62 117t-126 45q-73 0 -123.5 -44.5
t-61.5 -116.5zM409 729l73 1l-121 -165h-81l-120 164h72l89 -120z" />
    <glyph glyph-name="Gcircumflex" unicode="&#x11c;" horiz-adv-x="868" 
d="M440 49q120 0 201.5 78t81.5 193h-285v69h368q13 -180 -90.5 -297t-275.5 -117q-165 0 -272 106.5t-107 270.5t107 271t272 107q122 0 216.5 -70.5t118.5 -179.5l-79 -15q-22 83 -94.5 137t-161.5 54q-129 0 -212.5 -85.5t-83.5 -218.5q0 -131 83.5 -217t212.5 -86z
M351 775h-76l123 145h83l124 -145h-76l-89 101z" />
    <glyph glyph-name="gcircumflex" unicode="&#x11d;" horiz-adv-x="666" 
d="M325 -181q83 0 134.5 50.5t51.5 138.5v80q-70 -102 -199 -102q-113 0 -187 75.5t-74 190.5q0 118 74 194.5t187 76.5q129 0 199 -102v84h76v-497q0 -119 -72 -188.5t-187 -69.5q-98 0 -171.5 56t-86.5 142l73 10q13 -61 64.5 -100t117.5 -39zM320 55q84 0 138.5 55.5
t54.5 141.5q0 88 -54.5 145.5t-138.5 57.5t-138.5 -57.5t-54.5 -145.5q0 -85 55 -141t138 -56zM231 565h-72l119 165h82l121 -165h-73l-88 120z" />
    <glyph glyph-name="Gbreve" unicode="&#x11e;" horiz-adv-x="868" 
d="M440 49q120 0 201.5 78t81.5 193h-285v69h368q13 -180 -90.5 -297t-275.5 -117q-165 0 -272 106.5t-107 270.5t107 271t272 107q122 0 216.5 -70.5t118.5 -179.5l-79 -15q-22 83 -94.5 137t-161.5 54q-129 0 -212.5 -85.5t-83.5 -218.5q0 -131 83.5 -217t212.5 -86z
M512 917h59q0 -64 -34 -103t-97 -39t-97.5 39t-34.5 103h60q0 -38 20.5 -62t51.5 -24t51.5 24t20.5 62z" />
    <glyph glyph-name="gbreve" unicode="&#x11f;" horiz-adv-x="666" 
d="M325 -181q83 0 134.5 50.5t51.5 138.5v80q-70 -102 -199 -102q-113 0 -187 75.5t-74 190.5q0 118 74 194.5t187 76.5q129 0 199 -102v84h76v-497q0 -119 -72 -188.5t-187 -69.5q-98 0 -171.5 56t-86.5 142l73 10q13 -61 64.5 -100t117.5 -39zM320 55q84 0 138.5 55.5
t54.5 141.5q0 88 -54.5 145.5t-138.5 57.5t-138.5 -57.5t-54.5 -145.5q0 -85 55 -141t138 -56zM390 725h60q0 -67 -33.5 -113.5t-97.5 -46.5q-65 0 -98.5 46t-33.5 114h60q0 -46 20 -75t52 -29q31 0 51 29t20 75z" />
    <glyph glyph-name="Gdotaccent" unicode="&#x120;" horiz-adv-x="868" 
d="M440 49q120 0 201.5 78t81.5 193h-285v69h368q13 -180 -90.5 -297t-275.5 -117q-165 0 -272 106.5t-107 270.5t107 271t272 107q122 0 216.5 -70.5t118.5 -179.5l-79 -15q-22 83 -94.5 137t-161.5 54q-129 0 -212.5 -85.5t-83.5 -218.5q0 -131 83.5 -217t212.5 -86z
M440 780q-23 0 -37.5 13.5t-14.5 35.5q1 22 15 35t37 13t37.5 -13t14.5 -35t-14.5 -35.5t-37.5 -13.5z" />
    <glyph glyph-name="gdotaccent" unicode="&#x121;" horiz-adv-x="666" 
d="M325 -181q83 0 134.5 50.5t51.5 138.5v80q-70 -102 -199 -102q-113 0 -187 75.5t-74 190.5q0 118 74 194.5t187 76.5q129 0 199 -102v84h76v-497q0 -119 -72 -188.5t-187 -69.5q-98 0 -171.5 56t-86.5 142l73 10q13 -61 64.5 -100t117.5 -39zM320 55q84 0 138.5 55.5
t54.5 141.5q0 88 -54.5 145.5t-138.5 57.5t-138.5 -57.5t-54.5 -145.5q0 -85 55 -141t138 -56zM319 595q-23 0 -37.5 14.5t-14.5 37.5q0 22 14.5 36.5t37.5 14.5q22 0 37 -14.5t15 -36.5q0 -23 -14.5 -37.5t-37.5 -14.5z" />
    <glyph glyph-name="Gcommaaccent" unicode="&#x122;" horiz-adv-x="868" 
d="M440 49q120 0 201.5 78t81.5 193h-285v69h368q13 -180 -90.5 -297t-275.5 -117q-165 0 -272 106.5t-107 270.5t107 271t272 107q122 0 216.5 -70.5t118.5 -179.5l-79 -15q-22 83 -94.5 137t-161.5 54q-129 0 -212.5 -85.5t-83.5 -218.5q0 -131 83.5 -217t212.5 -86z
M441 -171q-19 0 -31 12.5t-12 32.5t12 32.5t32 12.5q23 0 37.5 -16.5t14.5 -43.5q0 -37 -17.5 -72.5t-45.5 -56.5l-27 21q37 37 37 78z" />
    <glyph glyph-name="gcommaaccent" unicode="&#x123;" horiz-adv-x="666" 
d="M325 -181q83 0 134.5 50.5t51.5 138.5v80q-70 -102 -199 -102q-113 0 -187 75.5t-74 190.5q0 118 74 194.5t187 76.5q129 0 199 -102v84h76v-497q0 -119 -72 -188.5t-187 -69.5q-98 0 -171.5 56t-86.5 142l73 10q13 -61 64.5 -100t117.5 -39zM320 55q84 0 138.5 55.5
t54.5 141.5q0 88 -54.5 145.5t-138.5 57.5t-138.5 -57.5t-54.5 -145.5q0 -85 55 -141t138 -56zM327 655q19 0 31 -12.5t12 -32.5t-12 -32.5t-32 -12.5q-23 0 -37 16.5t-14 43.5q0 37 17.5 72.5t45.5 56.5l27 -21q-38 -36 -38 -78z" />
    <glyph glyph-name="Itilde" unicode="&#x128;" horiz-adv-x="285" 
d="M95 705h84v-705h-84v705zM7 810l-42 30q14 30 43 48t65 18q38 0 77.5 -28t61.5 -28q42 0 65 45l42 -29q-13 -31 -43 -49.5t-68 -18.5q-40 0 -78.5 28t-58.5 28q-39 0 -64 -44z" />
    <glyph glyph-name="itilde" unicode="&#x129;" horiz-adv-x="254" 
d="M77 505h77v-505h-77v505zM-9 592l-41 23q14 30 43 48t64 18q36 0 77.5 -29t64.5 -29q43 0 62 38l43 -23q-14 -30 -44 -48.5t-67 -18.5q-32 0 -57 14.5t-45 28.5t-40 14q-40 0 -60 -36z" />
    <glyph glyph-name="Imacron" unicode="&#x12a;" horiz-adv-x="263" 
d="M90 705h83v-705h-83v705zM288 858v-53h-314v53h314z" />
    <glyph glyph-name="imacron" unicode="&#x12b;" horiz-adv-x="227" 
d="M75 505h77v-505h-77v505zM270 648v-53h-314v53h314z" />
    <glyph glyph-name="Iogonek" unicode="&#x12e;" horiz-adv-x="273" 
d="M96 0h-1v705h83v-705h-5q-108 -29 -108 -101q-1 -54 45.5 -87t121.5 -35v-56q-96 0 -157.5 47t-61.5 120q0 75 83 112z" />
    <glyph glyph-name="iogonek" unicode="&#x12f;" horiz-adv-x="240" 
d="M87 2v503h76v-505h-3q-111 -29 -111 -102q0 -54 46 -87t121 -35v-56q-96 0 -157.5 47t-60.5 120q0 38 23.5 68t65.5 47zM124 598q-22 0 -37 15t-15 37t14.5 36.5t37.5 14.5t37.5 -14t14.5 -37t-14.5 -37.5t-37.5 -14.5z" />
    <glyph glyph-name="Idotaccent" unicode="&#x130;" horiz-adv-x="273" 
d="M95 705h83v-705h-83v705zM136 780q-23 0 -37.5 13.5t-14.5 35.5q1 22 15 35t37 13q24 0 38 -13t14 -35t-14 -35.5t-38 -13.5z" />
    <glyph glyph-name="dotlessi" unicode="&#x131;" horiz-adv-x="230" 
d="M77 505h76v-505h-76v505z" />
    <glyph glyph-name="IJ" unicode="&#x132;" horiz-adv-x="698" 
d="M95 705h83v-705h-83v705zM522 211v494h84v-493q0 -104 -59.5 -168t-151.5 -64q-63 0 -128 20v72q62 -18 111 -18q64 0 104 42.5t40 114.5z" />
    <glyph glyph-name="ij" unicode="&#x133;" horiz-adv-x="461" 
d="M91 505h76v-505h-76v505zM309 -75v580h76v-588q0 -64 -36.5 -103t-95.5 -39q-48 0 -85 13v67q29 -10 65 -10q34 0 55 22t21 58zM129 598q-23 0 -37.5 14.5t-14.5 37.5t14.5 37t37.5 14t37.5 -14.5t14.5 -36.5t-14.5 -37t-37.5 -15zM347 598q-23 0 -37.5 14.5t-14.5 37.5
t14.5 37t37.5 14t37.5 -14.5t14.5 -36.5t-14.5 -37t-37.5 -15z" />
    <glyph glyph-name="Kcommaaccent" unicode="&#x136;" horiz-adv-x="618" 
d="M95 0v705h83v-301l299 301h109l-334 -333l344 -372h-109l-309 341v-341h-83zM324 -171q-19 0 -31 12.5t-12 32.5t12 33t32 13q23 0 37 -17t14 -44q0 -37 -17.5 -72.5t-45.5 -56.5l-27 21q38 36 38 78z" />
    <glyph glyph-name="kcommaaccent" unicode="&#x137;" horiz-adv-x="515" 
d="M79 0v735h76v-434l220 204h103l-253 -235l263 -270h-103l-230 239v-239h-76zM271 -162q-19 0 -31 12.5t-12 32.5t12.5 32.5t31.5 12.5q23 0 37.5 -17t14.5 -43q0 -37 -17.5 -73t-45.5 -57l-27 22q37 35 37 78z" />
    <glyph glyph-name="Lacute" unicode="&#x139;" horiz-adv-x="578" 
d="M539 0h-444v705h83v-631h361v-74zM205 919h90l-113 -144h-87z" />
    <glyph glyph-name="lacute" unicode="&#x13a;" horiz-adv-x="351" 
d="M79 735h76v-735h-76v735zM186 927h90l-114 -145h-87z" />
    <glyph glyph-name="Lcommaaccent" unicode="&#x13b;" horiz-adv-x="578" 
d="M539 0h-444v705h83v-631h361v-74zM318 -171q-19 0 -31 12.5t-12 32.5t12 33t32 13q23 0 37 -17t14 -44q0 -37 -17.5 -72.5t-45.5 -56.5l-27 21q38 36 38 78z" />
    <glyph glyph-name="lcommaaccent" unicode="&#x13c;" horiz-adv-x="243" 
d="M79 735h76v-735h-76v735zM117 -169q-19 -1 -31 12t-12 33t12 32.5t32 12.5q22 0 36.5 -17t14.5 -43q0 -37 -17.5 -73t-45.5 -57l-27 22q38 35 38 78z" />
    <glyph glyph-name="Lcaron" unicode="&#x13d;" horiz-adv-x="578" 
d="M539 0h-444v705h83v-631h361v-74zM323 640q-19 0 -31 12.5t-12 32.5t12 32.5t32 12.5q23 0 37.5 -16.5t14.5 -43.5q0 -36 -18 -72t-46 -57l-27 21q38 36 38 78z" />
    <glyph glyph-name="lcaron" unicode="&#x13e;" horiz-adv-x="340" 
d="M79 735h76v-735h-76v735zM270 632q-19 0 -30.5 12.5t-11.5 32.5t12 33t32 13q23 0 37 -17t14 -44q0 -37 -17.5 -72.5t-45.5 -56.5l-27 21q37 35 37 78z" />
    <glyph glyph-name="Lslash" unicode="&#x141;" horiz-adv-x="512" 
d="M29 258l110 71v376h83v-321l342 222v-74l-342 -223v-235h361v-74h-444v255l-110 -71v74z" />
    <glyph glyph-name="lslash" unicode="&#x142;" horiz-adv-x="433" 
d="M409 474l-155 -100v-374h-76v325l-154 -99v74l154 99v336h76v-287l155 100v-74z" />
    <glyph glyph-name="Nacute" unicode="&#x143;" horiz-adv-x="747" 
d="M204 705l365 -603v603h84v-705h-109l-366 603v-603h-83v705h109zM434 919h91l-114 -144h-87z" />
    <glyph glyph-name="nacute" unicode="&#x144;" 
d="M79 505h76v-71q26 42 73 66.5t100 24.5q95 0 151.5 -62.5t56.5 -160.5v-302h-76v302q0 68 -37.5 110.5t-102.5 42.5q-67 0 -116 -46t-49 -114v-295h-76v505zM394 729h87l-131 -164h-80z" />
    <glyph glyph-name="Ncommaaccent" unicode="&#x145;" horiz-adv-x="747" 
d="M204 705l365 -603v603h84v-705h-109l-366 603v-603h-83v705h109zM370 -172q-19 0 -30.5 12.5t-11.5 32.5t12 32.5t32 12.5q22 0 36.5 -17t14.5 -43q0 -37 -17.5 -73t-45.5 -57l-27 22q37 34 37 78z" />
    <glyph glyph-name="ncommaaccent" unicode="&#x146;" 
d="M79 505h76v-71q26 42 73 66.5t100 24.5q95 0 151.5 -62.5t56.5 -160.5v-302h-76v302q0 68 -37.5 110.5t-102.5 42.5q-67 0 -116 -46t-49 -114v-295h-76v505zM307 -172q-19 0 -31 12.5t-12 32.5t12.5 32.5t31.5 12.5q23 0 37.5 -17t14.5 -43q0 -37 -17.5 -73t-45.5 -57
l-27 22q37 35 37 78z" />
    <glyph glyph-name="Ncaron" unicode="&#x147;" horiz-adv-x="747" 
d="M204 705l365 -603v603h84v-705h-109l-366 603v-603h-83v705h109zM463 939l74 1l-121 -165h-82l-120 164h72l89 -120z" />
    <glyph glyph-name="ncaron" unicode="&#x148;" 
d="M79 505h76v-71q26 42 73 66.5t100 24.5q95 0 151.5 -62.5t56.5 -160.5v-302h-76v302q0 68 -37.5 110.5t-102.5 42.5q-67 0 -116 -46t-49 -114v-295h-76v505zM407 729l73 1l-121 -165h-82l-120 164h73l89 -120z" />
    <glyph glyph-name="Omacron" unicode="&#x14c;" horiz-adv-x="880" 
d="M440 -25q-167 0 -273 105.5t-106 271.5t106.5 272t272.5 106q167 0 273.5 -106t106.5 -272t-106.5 -271.5t-273.5 -105.5zM440 656q-129 0 -212.5 -85.5t-83.5 -218.5q0 -132 83.5 -217t212.5 -86q130 0 213 85.5t83 217.5q0 133 -83 218.5t-213 85.5zM597 858v-53h-314
v53h314z" />
    <glyph glyph-name="omacron" unicode="&#x14d;" horiz-adv-x="640" 
d="M320 525q118 0 194 -76.5t76 -196.5q0 -119 -76 -195.5t-194 -76.5t-193.5 76.5t-75.5 195.5q0 120 75.5 196.5t193.5 76.5zM320 49q84 0 138.5 57.5t54.5 145.5t-54.5 145.5t-138.5 57.5t-138.5 -57.5t-54.5 -145.5t54.5 -145.5t138.5 -57.5zM477 648v-53h-314v53h314z
" />
    <glyph glyph-name="Obreve" unicode="&#x14e;" horiz-adv-x="880" 
d="M440 -25q-167 0 -273 105.5t-106 271.5t106.5 272t272.5 106q167 0 273.5 -106t106.5 -272t-106.5 -271.5t-273.5 -105.5zM440 656q-129 0 -212.5 -85.5t-83.5 -218.5q0 -132 83.5 -217t212.5 -86q130 0 213 85.5t83 217.5q0 133 -83 218.5t-213 85.5zM512 917h59
q0 -64 -34 -103t-97 -39t-97 39t-34 103h59q0 -38 20.5 -62t51.5 -24t51.5 24t20.5 62z" />
    <glyph glyph-name="obreve" unicode="&#x14f;" horiz-adv-x="640" 
d="M320 525q118 0 194 -76.5t76 -196.5q0 -119 -76 -195.5t-194 -76.5t-193.5 76.5t-75.5 195.5q0 120 75.5 196.5t193.5 76.5zM320 49q84 0 138.5 57.5t54.5 145.5t-54.5 145.5t-138.5 57.5t-138.5 -57.5t-54.5 -145.5t54.5 -145.5t138.5 -57.5zM391 725h61
q0 -67 -34 -113.5t-98 -46.5q-65 0 -98.5 46t-33.5 114h61q0 -46 20 -75t51 -29t51 29t20 75z" />
    <glyph glyph-name="Ohungarumlaut" unicode="&#x150;" horiz-adv-x="880" 
d="M440 -25q-167 0 -273 105.5t-106 271.5t106.5 272t272.5 106q167 0 273.5 -106t106.5 -272t-106.5 -271.5t-273.5 -105.5zM440 656q-129 0 -212.5 -85.5t-83.5 -218.5q0 -132 83.5 -217t212.5 -86q130 0 213 85.5t83 217.5q0 133 -83 218.5t-213 85.5zM422 919h80
l-117 -144h-68zM583 919h80l-122 -144h-68z" />
    <glyph glyph-name="ohungarumlaut" unicode="&#x151;" horiz-adv-x="639" 
d="M319 525q119 0 194.5 -76.5t75.5 -196.5q0 -119 -76 -195.5t-194 -76.5t-193.5 76.5t-75.5 195.5q0 120 75.5 196.5t193.5 76.5zM319 49q84 0 138.5 57.5t54.5 145.5t-54.5 145.5t-138.5 57.5t-138.5 -57.5t-54.5 -145.5t54.5 -145.5t138.5 -57.5zM318 745h84l-135 -180
h-71zM481 745h81l-138 -180h-72z" />
    <glyph glyph-name="OE" unicode="&#x152;" horiz-adv-x="1069" 
d="M61 352q0 164 104 267t266 103q67 0 124 -17h445v-74h-366v-238h326v-70h-326v-249h376v-74h-455q-58 -17 -124 -17q-162 0 -266 103t-104 266zM551 75v554q-46 18 -116 18q-127 0 -209 -82.5t-82 -212.5q0 -129 80 -211.5t204 -82.5q75 0 123 17z" />
    <glyph glyph-name="oe" unicode="&#x153;" horiz-adv-x="1098" 
d="M553 108q-34 -60 -95 -94t-138 -34q-118 0 -193.5 76.5t-75.5 195.5q0 120 75.5 196.5t193.5 76.5q75 0 135.5 -33t95.5 -92q35 59 95.5 92t135.5 33q116 0 190.5 -75.5t74.5 -192.5q0 -19 -1 -30l-453 1q8 -80 60 -129.5t127 -49.5q59 0 109 32.5t66 81.5l75 -12
q-23 -74 -92.5 -122.5t-153.5 -48.5q-76 0 -136 34t-95 94zM320 49q84 0 138.5 57.5t54.5 145.5t-54.5 145.5t-138.5 57.5t-138.5 -57.5t-54.5 -145.5t54.5 -145.5t138.5 -57.5zM594 294l373 -1q-11 72 -62 117t-126 45q-73 0 -123.5 -44.5t-61.5 -116.5z" />
    <glyph glyph-name="Racute" unicode="&#x154;" horiz-adv-x="730" 
d="M178 0h-83v705h311q112 0 183.5 -62.5t71.5 -159.5q0 -74 -49 -131.5t-125 -73.5l180 -278h-97l-167 266h-225v-266zM400 631h-222v-291h222q78 0 128 40t50 103q0 68 -49.5 108t-128.5 40zM430 919h90l-114 -144h-87z" />
    <glyph glyph-name="racute" unicode="&#x155;" horiz-adv-x="417" 
d="M79 505h74v-70q48 88 140 88q32 0 68 -14v-70q-35 16 -75 16q-59 0 -95 -48t-36 -124v-283h-76v505zM297 729h87l-130 -164h-80z" />
    <glyph glyph-name="Rcommaaccent" unicode="&#x156;" horiz-adv-x="730" 
d="M178 0h-83v705h311q112 0 183.5 -62.5t71.5 -159.5q0 -74 -49 -131.5t-125 -73.5l180 -278h-97l-167 266h-225v-266zM400 631h-222v-291h222q78 0 128 40t50 103q0 68 -49.5 108t-128.5 40zM368 -172q-19 0 -31 12.5t-12 32.5t12 32.5t32 12.5q23 0 37.5 -16.5
t14.5 -43.5q0 -37 -17.5 -72.5t-45.5 -56.5l-27 21q37 35 37 78z" />
    <glyph glyph-name="rcommaaccent" unicode="&#x157;" horiz-adv-x="389" 
d="M79 505h74v-70q48 88 140 88q32 0 68 -14v-70q-35 16 -75 16q-59 0 -95 -48t-36 -124v-283h-76v505zM117 -170q-19 0 -31 12.5t-12 32.5t12 32.5t32 12.5q23 0 37 -16.5t14 -43.5q0 -37 -17.5 -72.5t-45.5 -56.5l-27 21q38 35 38 78z" />
    <glyph glyph-name="Rcaron" unicode="&#x158;" horiz-adv-x="730" 
d="M178 0h-83v705h311q112 0 183.5 -62.5t71.5 -159.5q0 -74 -49 -131.5t-125 -73.5l180 -278h-97l-167 266h-225v-266zM400 631h-222v-291h222q78 0 128 40t50 103q0 68 -49.5 108t-128.5 40zM459 939l73 1l-121 -165h-82l-120 164h73l89 -120z" />
    <glyph glyph-name="rcaron" unicode="&#x159;" horiz-adv-x="394" 
d="M79 505h74v-70q48 88 140 88q32 0 68 -14v-70q-35 16 -75 16q-59 0 -95 -48t-36 -124v-283h-76v505zM308 729l73 1l-121 -165h-82l-119 164h72l89 -120z" />
    <glyph glyph-name="Sacute" unicode="&#x15a;" horiz-adv-x="702" 
d="M635 205q0 -102 -74.5 -166t-197.5 -64q-130 0 -213.5 71.5t-84.5 181.5h83q0 -78 60.5 -128.5t155.5 -50.5q86 0 136.5 40.5t50.5 105.5q0 27 -12.5 47.5t-28.5 32t-48.5 20.5t-55 13t-64.5 9q-42 6 -66 10t-60 13.5t-57 22.5t-42.5 33t-31 49.5t-9.5 67.5q0 95 74 156
t192 61q121 0 199.5 -67.5t79.5 -171.5h-81q0 72 -56 118.5t-142 46.5q-82 0 -132 -38t-50 -98q0 -27 11.5 -47.5t27.5 -32.5t47 -21t54 -13t65 -10q36 -5 56 -8.5t53 -11t52 -15.5t42.5 -22.5t36 -32.5t21.5 -43.5t9 -57.5zM408 919h91l-114 -144h-87z" />
    <glyph glyph-name="sacute" unicode="&#x15b;" horiz-adv-x="544" 
d="M490 145q0 -71 -59 -118t-149 -47q-97 0 -160.5 53.5t-63.5 135.5h75q0 -52 41.5 -86t106.5 -34q58 0 96.5 25.5t38.5 63.5q0 22 -13.5 38t-39.5 25.5t-44.5 13.5t-46.5 8q-43 7 -66.5 11.5t-54 15.5t-45.5 25t-26 38.5t-11 57.5q0 66 55.5 110t137.5 44q94 0 155 -48.5
t62 -122.5l-75 1q-1 44 -41.5 72t-101.5 28q-49 0 -83.5 -24.5t-34.5 -61.5q0 -32 30 -47.5t104 -27.5q38 -7 59 -11t54.5 -16t52 -26t33 -39t14.5 -57zM339 729h87l-131 -164h-80z" />
    <glyph glyph-name="Scircumflex" unicode="&#x15c;" horiz-adv-x="702" 
d="M635 205q0 -102 -74.5 -166t-197.5 -64q-130 0 -213.5 71.5t-84.5 181.5h83q0 -78 60.5 -128.5t155.5 -50.5q86 0 136.5 40.5t50.5 105.5q0 27 -12.5 47.5t-28.5 32t-48.5 20.5t-55 13t-64.5 9q-42 6 -66 10t-60 13.5t-57 22.5t-42.5 33t-31 49.5t-9.5 67.5q0 95 74 156
t192 61q121 0 199.5 -67.5t79.5 -171.5h-81q0 72 -56 118.5t-142 46.5q-82 0 -132 -38t-50 -98q0 -27 11.5 -47.5t27.5 -32.5t47 -21t54 -13t65 -10q36 -5 56 -8.5t53 -11t52 -15.5t42.5 -22.5t36 -32.5t21.5 -43.5t9 -57.5zM261 775h-77l123 145h83l124 -145h-76l-89 101z
" />
    <glyph glyph-name="scircumflex" unicode="&#x15d;" horiz-adv-x="544" 
d="M490 145q0 -71 -59 -118t-149 -47q-97 0 -160.5 53.5t-63.5 135.5h75q0 -52 41.5 -86t106.5 -34q58 0 96.5 25.5t38.5 63.5q0 22 -13.5 38t-39.5 25.5t-44.5 13.5t-46.5 8q-43 7 -66.5 11.5t-54 15.5t-45.5 25t-26 38.5t-11 57.5q0 66 55.5 110t137.5 44q94 0 155 -48.5
t62 -122.5l-75 1q-1 44 -41.5 72t-101.5 28q-49 0 -83.5 -24.5t-34.5 -61.5q0 -32 30 -47.5t104 -27.5q38 -7 59 -11t54.5 -16t52 -26t33 -39t14.5 -57zM173 565h-72l120 165h82l121 -165h-74l-88 120z" />
    <glyph glyph-name="Scedilla" unicode="&#x15e;" horiz-adv-x="702" 
d="M347 -99h-41l10 77q-112 13 -181.5 82t-69.5 168h83q0 -78 60.5 -128.5t155.5 -50.5q86 0 136.5 40.5t50.5 105.5q0 27 -12.5 47.5t-28.5 32t-48.5 20.5t-55 13t-64.5 9q-42 6 -66 10t-60 13.5t-57 22.5t-42.5 33t-31 49.5t-9.5 67.5q0 95 74 156t192 61
q121 0 199.5 -67.5t79.5 -171.5h-81q0 72 -56 118.5t-142 46.5q-82 0 -132 -38t-50 -98q0 -27 11.5 -47.5t27.5 -32.5t47 -21t54 -13t65 -10q36 -5 56 -8.5t53 -11t52 -15.5t42.5 -22.5t36 -32.5t21.5 -43.5t9 -57.5q0 -101 -74 -165t-196 -65l-6 -41q52 0 83 -29t31 -76
q0 -44 -30.5 -71.5t-80.5 -27.5q-41 0 -71 23t-37 59l42 11q8 -23 25.5 -37t38.5 -14q28 0 44.5 16.5t16.5 43.5q0 31 -20 50t-54 19z" />
    <glyph glyph-name="scedilla" unicode="&#x15f;" horiz-adv-x="544" 
d="M283 -99h-41l10 80q-86 8 -140 60.5t-54 127.5h75q0 -52 41.5 -86t106.5 -34q58 0 96.5 25.5t38.5 63.5q0 22 -13.5 38t-39.5 25.5t-44.5 13.5t-46.5 8q-43 7 -66.5 11.5t-54 15.5t-45.5 25t-26 38.5t-11 57.5q0 66 55.5 110t137.5 44q94 0 155 -48.5t62 -122.5l-75 1
q-1 44 -41.5 72t-101.5 28q-49 0 -83.5 -24.5t-34.5 -61.5q0 -32 30 -47.5t104 -27.5q38 -7 59 -11t54.5 -16t52 -26t33 -39t14.5 -57q0 -67 -53 -113t-136 -51l-6 -47q51 0 82 -29t31 -76q0 -44 -30.5 -71.5t-79.5 -27.5q-41 0 -71.5 23t-37.5 59l43 11q7 -23 24.5 -37
t39.5 -14q27 0 44 16.5t17 43.5q0 31 -20 50t-54 19z" />
    <glyph glyph-name="Scaron" unicode="&#x160;" horiz-adv-x="702" 
d="M635 205q0 -102 -74.5 -166t-197.5 -64q-130 0 -213.5 71.5t-84.5 181.5h83q0 -78 60.5 -128.5t155.5 -50.5q86 0 136.5 40.5t50.5 105.5q0 27 -12.5 47.5t-28.5 32t-48.5 20.5t-55 13t-64.5 9q-42 6 -66 10t-60 13.5t-57 22.5t-42.5 33t-31 49.5t-9.5 67.5q0 95 74 156
t192 61q121 0 199.5 -67.5t79.5 -171.5h-81q0 72 -56 118.5t-142 46.5q-82 0 -132 -38t-50 -98q0 -27 11.5 -47.5t27.5 -32.5t47 -21t54 -13t65 -10q36 -5 56 -8.5t53 -11t52 -15.5t42.5 -22.5t36 -32.5t21.5 -43.5t9 -57.5zM437 939l74 1l-121 -165h-82l-120 164h72
l89 -120z" />
    <glyph glyph-name="scaron" unicode="&#x161;" horiz-adv-x="544" 
d="M490 145q0 -71 -59 -118t-149 -47q-97 0 -160.5 53.5t-63.5 135.5h75q0 -52 41.5 -86t106.5 -34q58 0 96.5 25.5t38.5 63.5q0 22 -13.5 38t-39.5 25.5t-44.5 13.5t-46.5 8q-43 7 -66.5 11.5t-54 15.5t-45.5 25t-26 38.5t-11 57.5q0 66 55.5 110t137.5 44q94 0 155 -48.5
t62 -122.5l-75 1q-1 44 -41.5 72t-101.5 28q-49 0 -83.5 -24.5t-34.5 -61.5q0 -32 30 -47.5t104 -27.5q38 -7 59 -11t54.5 -16t52 -26t33 -39t14.5 -57zM349 729l74 1l-121 -165h-82l-120 164h72l89 -120z" />
    <glyph glyph-name="Tcommaaccent" unicode="&#x162;" horiz-adv-x="597" 
d="M257 0v631h-236v74h555v-74h-236v-631h-83zM294 -172q-19 0 -31 12.5t-12 32.5t12 32.5t32 12.5q23 0 37.5 -16.5t14.5 -43.5q0 -37 -17.5 -73t-45.5 -56l-27 21q37 35 37 78z" />
    <glyph glyph-name="tcommaaccent" unicode="&#x163;" horiz-adv-x="388" 
d="M122 125v317h-83v63h86l11 118h62v-118h131v-63h-131v-314q0 -37 21 -59.5t57 -23.5q29 0 61 10v-63q-39 -12 -80 -12q-62 0 -98.5 39.5t-36.5 105.5zM234 -172q-19 0 -31 12.5t-12 32.5t12.5 32.5t31.5 12.5q23 0 37.5 -17t14.5 -43q0 -37 -17.5 -73t-45.5 -57l-27 22
q37 35 37 78z" />
    <glyph glyph-name="Tcaron" unicode="&#x164;" horiz-adv-x="597" 
d="M257 0v631h-236v74h555v-74h-236v-631h-83zM386 933h74l-121 -165h-82l-120 165h72l89 -120z" />
    <glyph glyph-name="tcaron" unicode="&#x165;" horiz-adv-x="381" 
d="M122 125v317h-83v63h86l11 118h62v-118h131v-63h-131v-314q0 -37 21 -59.5t57 -23.5q29 0 61 10v-63q-39 -12 -80 -12q-62 0 -98.5 39.5t-36.5 105.5zM289 642q-19 -1 -31 11.5t-12 32.5t12 33t32 13q23 0 37.5 -17t14.5 -43q0 -37 -18 -73t-46 -57l-27 22q38 35 38 78z
" />
    <glyph glyph-name="Utilde" unicode="&#x168;" horiz-adv-x="749" 
d="M577 286v419h83v-419q0 -137 -80 -224t-205 -87q-126 0 -206 87t-80 224v419h83v-419q0 -99 56.5 -168t146.5 -69t146 66t56 171zM245 810l-42 30q14 30 43 48t65 18q38 0 77.5 -28t61.5 -28q42 0 65 45l42 -29q-13 -31 -43 -49.5t-68 -18.5q-32 0 -56.5 14t-43.5 28
t-37 14q-39 0 -64 -44z" />
    <glyph glyph-name="utilde" unicode="&#x169;" 
d="M526 0h-76v71q-25 -42 -72.5 -66.5t-100.5 -24.5q-95 0 -151.5 62.5t-56.5 160.5v302h76v-302q0 -68 37.5 -111t103.5 -43q67 0 115.5 46t48.5 114v296h76v-505zM173 592l-41 22q14 30 43 48.5t64 18.5q36 0 77.5 -29.5t64.5 -29.5q43 0 62 38l43 -22
q-14 -31 -43.5 -49.5t-67.5 -18.5q-32 0 -57 14.5t-45 29t-40 14.5q-39 0 -60 -36z" />
    <glyph glyph-name="Umacron" unicode="&#x16a;" horiz-adv-x="749" 
d="M577 286v419h83v-419q0 -137 -80 -224t-205 -87q-126 0 -206 87t-80 224v419h83v-419q0 -99 56.5 -168t146.5 -69t146 66t56 171zM532 858v-53h-314v53h314z" />
    <glyph glyph-name="umacron" unicode="&#x16b;" 
d="M526 0h-76v71q-25 -42 -72.5 -66.5t-100.5 -24.5q-95 0 -151.5 62.5t-56.5 160.5v302h76v-302q0 -68 37.5 -111t103.5 -43q67 0 115.5 46t48.5 114v296h76v-505zM454 648v-54h-314v54h314z" />
    <glyph glyph-name="Ubreve" unicode="&#x16c;" horiz-adv-x="749" 
d="M577 286v419h83v-419q0 -137 -80 -224t-205 -87q-126 0 -206 87t-80 224v419h83v-419q0 -99 56.5 -168t146.5 -69t146 66t56 171zM447 917h59q0 -64 -34 -103t-97 -39t-97.5 39t-34.5 103h60q0 -38 20.5 -62t51.5 -24t51.5 24t20.5 62z" />
    <glyph glyph-name="ubreve" unicode="&#x16d;" 
d="M526 0h-76v71q-25 -42 -72.5 -66.5t-100.5 -24.5q-95 0 -151.5 62.5t-56.5 160.5v302h76v-302q0 -68 37.5 -111t103.5 -43q67 0 115.5 46t48.5 114v296h76v-505zM368 724h61q0 -67 -34 -113.5t-98 -46.5t-98 46.5t-34 113.5h61q0 -45 20 -74t51 -29t51 29t20 74z" />
    <glyph glyph-name="Uring" unicode="&#x16e;" horiz-adv-x="749" 
d="M577 286v419h83v-419q0 -137 -80 -224t-205 -87q-126 0 -206 87t-80 224v419h83v-419q0 -99 56.5 -168t146.5 -69t146 66t56 171zM375 765q-52 0 -86 32.5t-34 82.5t34 82.5t86 32.5t85.5 -32.5t33.5 -82.5t-33.5 -82.5t-85.5 -32.5zM375 948q-31 0 -50.5 -19t-18.5 -49
q0 -30 19 -49.5t50 -19.5q29 0 48.5 19.5t19.5 49.5t-19.5 49t-48.5 19z" />
    <glyph glyph-name="uring" unicode="&#x16f;" 
d="M526 0h-76v71q-25 -42 -72.5 -66.5t-100.5 -24.5q-95 0 -151.5 62.5t-56.5 160.5v302h76v-302q0 -68 37.5 -111t103.5 -43q67 0 115.5 46t48.5 114v296h76v-505zM297 554q-52 0 -86 32.5t-34 82.5q0 51 33.5 83t86.5 32t86 -32t33 -83q0 -50 -33.5 -82.5t-85.5 -32.5z
M297 737q-30 0 -49.5 -19t-18.5 -49q0 -30 19 -49.5t49 -19.5t49.5 19.5t19.5 49.5t-19.5 49t-49.5 19z" />
    <glyph glyph-name="Uhungarumlaut" unicode="&#x170;" horiz-adv-x="749" 
d="M577 286v419h83v-419q0 -137 -80 -224t-205 -87q-126 0 -206 87t-80 224v419h83v-419q0 -99 56.5 -168t146.5 -69t146 66t56 171zM357 919h80l-117 -144h-69zM518 919h79l-121 -144h-68z" />
    <glyph glyph-name="uhungarumlaut" unicode="&#x171;" horiz-adv-x="582" 
d="M526 0h-76v71q-25 -42 -72.5 -66.5t-100.5 -24.5q-95 0 -151.5 62.5t-56.5 160.5v302h76v-302q0 -68 37.5 -111t103.5 -43q67 0 115.5 46t48.5 114v296h76v-505zM289 744h84l-135 -180h-72zM451 744h82l-139 -180h-71z" />
    <glyph glyph-name="Uogonek" unicode="&#x172;" horiz-adv-x="749" 
d="M367 -25q-122 3 -200 90t-78 221v419h83v-419q0 -99 56.5 -168t146.5 -69t146 66t56 171v419h83v-419q0 -118 -62 -201.5t-163 -103.5q-60 -30 -60 -83q0 -54 46.5 -87t121.5 -35v-56q-96 0 -157.5 47t-61.5 120q0 51 43 88z" />
    <glyph glyph-name="uogonek" unicode="&#x173;" horiz-adv-x="661" 
d="M450 4v67q-25 -42 -72.5 -66.5t-100.5 -24.5q-95 0 -151.5 62.5t-56.5 160.5v302h76v-302q0 -68 37.5 -111t103.5 -43q67 0 115.5 46t48.5 114v296h76v-505h-9q-103 -30 -103 -100q0 -53 46.5 -86t121.5 -35v-56q-96 0 -157.5 47t-61.5 120q0 78 87 114z" />
    <glyph glyph-name="Wcircumflex" unicode="&#x174;" horiz-adv-x="1076" 
d="M601 705l160 -649l182 649h86l-200 -705h-134l-157 618l-156 -618h-135l-201 705h87l182 -649l164 649h122zM449 775h-77l124 145h82l124 -145h-76l-89 101z" />
    <glyph glyph-name="wcircumflex" unicode="&#x175;" horiz-adv-x="879" 
d="M318 0h-104l-171 505h80l144 -430l127 430h89l131 -430l142 430h80l-172 -505h-104l-121 416zM351 565h-72l120 165h82l121 -165h-74l-88 120z" />
    <glyph glyph-name="Ycircumflex" unicode="&#x176;" horiz-adv-x="647" 
d="M282 0v262l-253 443h92l203 -363l200 363h94l-252 -443v-262h-84zM235 775h-77l124 145h82l124 -145h-76l-89 101z" />
    <glyph glyph-name="ycircumflex" unicode="&#x177;" horiz-adv-x="569" 
d="M64 -208v67q40 -14 67 -14q15 0 28 4t24 14t19 19t17 26.5t13.5 28t14 32.5t13.5 32l-227 504h84l180 -410l158 410h81l-201 -512q-22 -56 -35.5 -84.5t-37.5 -64.5t-53 -51.5t-67 -15.5q-40 0 -78 15zM197 565h-72l119 165h82l121 -165h-73l-88 120z" />
    <glyph glyph-name="Ydieresis" unicode="&#x178;" horiz-adv-x="647" 
d="M282 0v262l-253 443h92l203 -363l200 363h94l-252 -443v-262h-84zM214 785q-23 0 -37.5 14.5t-14.5 36.5t14.5 36.5t37.5 14.5t37.5 -14.5t14.5 -36.5t-14.5 -36.5t-37.5 -14.5zM433 785q-23 0 -37.5 14t-14.5 37t14.5 37t37.5 14t37.5 -14.5t14.5 -36.5t-14.5 -36.5
t-37.5 -14.5z" />
    <glyph glyph-name="Zacute" unicode="&#x179;" horiz-adv-x="649" 
d="M46 55l433 580h-423v70h536v-55l-432 -581h442v-69h-556v55zM383 919h91l-114 -144h-87z" />
    <glyph glyph-name="zacute" unicode="&#x17a;" horiz-adv-x="556" 
d="M51 50l329 385h-319v70h434v-50l-330 -386h340v-69h-454v50zM356 729h86l-130 -164h-80z" />
    <glyph glyph-name="Zdotaccent" unicode="&#x17b;" horiz-adv-x="649" 
d="M46 55l433 580h-423v70h536v-55l-432 -581h442v-69h-556v55zM324 780q-23 0 -37.5 13.5t-14.5 35.5q1 22 15 35t37 13q24 0 38 -13t14 -35t-14 -35.5t-38 -13.5z" />
    <glyph glyph-name="zdotaccent" unicode="&#x17c;" horiz-adv-x="556" 
d="M51 50l329 385h-319v70h434v-50l-330 -386h340v-69h-454v50zM278 595q-23 0 -37.5 14.5t-14.5 37.5q0 22 15 36.5t37 14.5q23 0 37.5 -14.5t14.5 -36.5q0 -23 -14.5 -37.5t-37.5 -14.5z" />
    <glyph glyph-name="Zcaron" unicode="&#x17d;" horiz-adv-x="649" 
d="M46 55l433 580h-423v70h536v-55l-432 -581h442v-69h-556v55zM412 939l74 1l-121 -165h-82l-120 164h72l89 -120z" />
    <glyph glyph-name="zcaron" unicode="&#x17e;" horiz-adv-x="556" 
d="M51 50l329 385h-319v70h434v-50l-330 -386h340v-69h-454v50zM366 729l74 1l-122 -165h-81l-120 164h72l89 -120z" />
    <glyph glyph-name="Aacutering" unicode="&#x1fa;" horiz-adv-x="704" 
d="M118 0h-89l263 705h120l263 -705h-89l-53 144h-361zM192 209h321l-160 422zM351 718q-40 0 -66.5 25.5t-27.5 63.5q1 39 27 64t66 25q41 0 67.5 -25.5t26.5 -63.5q0 -39 -26 -64t-67 -25zM351 849q-18 0 -30 -11.5t-12 -29.5q0 -19 12 -31t30 -12q19 0 31 12t12 31
q0 18 -12 29.5t-31 11.5zM389 1008h90l-84 -102h-86z" />
    <glyph glyph-name="aacutering" unicode="&#x1fb;" horiz-adv-x="669" 
d="M514 505h76v-505h-76v89q-33 -51 -86 -80t-117 -29q-113 0 -186.5 77t-73.5 195q0 119 73.5 196t186.5 77q64 0 117 -29t86 -81v90zM320 49q83 0 138 57.5t55 145.5t-55 145.5t-138 57.5q-84 0 -138.5 -57.5t-54.5 -145.5t54.5 -145.5t138.5 -57.5zM327 565
q-41 0 -67.5 25t-26.5 64t26 64t67 25q40 0 66.5 -25.5t27.5 -63.5q0 -39 -26 -64t-67 -25zM327 696q-19 0 -31 -11.5t-12 -30.5t12 -31t31 -12t31 12t11 31q0 19 -11.5 30.5t-30.5 11.5zM417 919h90l-114 -144h-86z" />
    <glyph glyph-name="AEacute" unicode="&#x1fc;" horiz-adv-x="939" 
d="M880 74v-74h-426v143h-257l-75 -143h-93l365 705h477v-75h-340v-237h300v-70h-301v-249h350zM454 214v430l-223 -430h223zM605 909h91l-114 -144h-87z" />
    <glyph glyph-name="aeacute" unicode="&#x1fd;" horiz-adv-x="1083" 
d="M509 420v85h61v-92q28 53 78.5 82.5t118.5 29.5q115 0 190 -75t75 -191q0 -15 -2 -45h-446q12 -75 63 -120t126 -45q58 0 105 31.5t61 79.5l72 -10q-13 -74 -79.5 -122t-154.5 -48q-69 0 -125 31.5t-82 84.5v-96h-61v84q-73 -104 -202 -104q-112 0 -184 77t-72 195
q0 119 72 196t184 77q63 0 115.5 -28t86.5 -77zM320 460q-85 0 -139 -58.5t-54 -149.5q0 -90 54.5 -148.5t138.5 -58.5q83 0 138 57.5t55 149.5q0 91 -54.5 149.5t-138.5 58.5zM581 279h374q-3 77 -56 126.5t-134 49.5q-76 0 -126.5 -49.5t-57.5 -126.5zM615 735l87 -1
l-131 -164h-80z" />
    <glyph glyph-name="Oslashacute" unicode="&#x1fe;" horiz-adv-x="860" 
d="M234 -140h-79l83 165q-83 48 -130 133.5t-47 193.5q0 164 104.5 271t264.5 107q80 0 147 -29l80 159l79 1l-96 -192q75 -50 117.5 -133t42.5 -184q0 -164 -104.5 -270.5t-265.5 -106.5q-64 0 -129 21zM430 656q-124 0 -205 -86t-81 -218q0 -83 34.5 -149.5t94.5 -106.5
l271 537q-54 23 -114 23zM430 49q125 0 205.5 85.5t80.5 217.5q0 77 -29.5 141t-82.5 104l-268 -533q44 -15 94 -15zM510 909h91l-114 -144h-87z" />
    <glyph glyph-name="oslashacute" unicode="&#x1ff;" horiz-adv-x="645" 
d="M239 -9l-35 -71h-73l48 96q-60 35 -94 96.5t-34 139.5q0 120 76.5 196.5t195.5 76.5q55 0 103 -18l46 93h73l-62 -123q52 -36 81.5 -94.5t29.5 -130.5q0 -119 -76 -195.5t-195 -76.5q-43 0 -84 11zM323 465q-89 0 -146 -60t-57 -153q0 -57 23.5 -103.5t64.5 -74.5
l189 377q-36 14 -74 14zM323 40q88 0 144.5 60t56.5 152q0 105 -71 166l-186 -371q24 -7 56 -7zM488 729l-130 -164h-80l124 164h86z" />
    <glyph glyph-name="Scommaaccent" unicode="&#x218;" horiz-adv-x="702" 
d="M635 205q0 -102 -74.5 -166t-197.5 -64q-130 0 -213.5 71.5t-84.5 181.5h83q0 -78 60.5 -128.5t155.5 -50.5q86 0 136.5 40.5t50.5 105.5q0 27 -12.5 47.5t-28.5 32t-48.5 20.5t-55 13t-64.5 9q-42 6 -66 10t-60 13.5t-57 22.5t-42.5 33t-31 49.5t-9.5 67.5q0 95 74 156
t192 61q121 0 199.5 -67.5t79.5 -171.5h-81q0 72 -56 118.5t-142 46.5q-82 0 -132 -38t-50 -98q0 -27 11.5 -47.5t27.5 -32.5t47 -21t54 -13t65 -10q36 -5 56 -8.5t53 -11t52 -15.5t42.5 -22.5t36 -32.5t21.5 -43.5t9 -57.5zM346 -172q-19 -1 -31 12t-12 33t12.5 32.5
t31.5 12.5q23 0 37.5 -17t14.5 -43q0 -37 -17.5 -73t-45.5 -57l-27 22q37 35 37 78z" />
    <glyph glyph-name="scommaaccent" unicode="&#x219;" horiz-adv-x="544" 
d="M490 145q0 -71 -59 -118t-149 -47q-97 0 -160.5 53.5t-63.5 135.5h75q0 -52 41.5 -86t106.5 -34q58 0 96.5 25.5t38.5 63.5q0 22 -13.5 38t-39.5 25.5t-44.5 13.5t-46.5 8q-43 7 -66.5 11.5t-54 15.5t-45.5 25t-26 38.5t-11 57.5q0 66 55.5 110t137.5 44q94 0 155 -48.5
t62 -122.5l-75 1q-1 44 -41.5 72t-101.5 28q-49 0 -83.5 -24.5t-34.5 -61.5q0 -32 30 -47.5t104 -27.5q38 -7 59 -11t54.5 -16t52 -26t33 -39t14.5 -57zM260 -172q-19 0 -31 12.5t-12 32.5t12.5 32.5t31.5 12.5q23 0 37.5 -17t14.5 -43q0 -37 -17.5 -73t-45.5 -57l-27 22
q37 35 37 78z" />
    <glyph glyph-name="circumflex" unicode="&#x2c6;" horiz-adv-x="424" 
d="M51 570l120 165h81l122 -165h-74l-88 121l-89 -121h-72z" />
    <glyph glyph-name="caron" unicode="&#x2c7;" horiz-adv-x="424" 
d="M300 735h74l-122 -165h-81l-120 165h72l89 -121z" />
    <glyph glyph-name="breve" unicode="&#x2d8;" horiz-adv-x="365" 
d="M254 735h60q0 -68 -33.5 -114.5t-97.5 -46.5q-65 0 -98.5 46.5t-33.5 114.5h60q0 -46 20 -75t52 -29q31 0 51 29t20 75z" />
    <glyph glyph-name="dotaccent" unicode="&#x2d9;" horiz-adv-x="206" 
d="M103 560q-23 0 -37.5 14.5t-14.5 37.5t14.5 37t37.5 14t37.5 -14.5t14.5 -36.5t-14.5 -37t-37.5 -15z" />
    <glyph glyph-name="ring" unicode="&#x2da;" horiz-adv-x="340" 
d="M171 540q-53 0 -86.5 32.5t-33.5 82.5q0 51 33.5 83t86.5 32q52 0 85 -32t33 -83q0 -50 -33 -82.5t-85 -32.5zM171 723q-31 0 -50.5 -19t-18.5 -49q0 -30 19 -49t50 -19q29 0 48.5 19t19.5 49t-19.5 49t-48.5 19z" />
    <glyph glyph-name="ogonek" unicode="&#x2db;" horiz-adv-x="320" 
d="M174 12l40 -12q-112 -30 -112 -102q0 -54 46 -87t121 -35v-56q-96 0 -157 47t-61 120q0 46 33 79t90 46z" />
    <glyph glyph-name="tilde" unicode="&#x2dc;" horiz-adv-x="455" 
d="M92 596l-41 22q14 30 43 48t64 18q36 0 77.5 -29t64.5 -29q43 0 62 38l43 -22q-14 -31 -43.5 -49.5t-67.5 -18.5q-32 0 -57 14.5t-45 29t-40 14.5q-39 0 -60 -36z" />
    <glyph glyph-name="hungarumlaut" unicode="&#x2dd;" horiz-adv-x="468" 
d="M173 750h84l-135 -180h-71zM335 750h82l-138 -180h-72z" />
    <glyph glyph-name="Wgrave" unicode="&#x1e80;" horiz-adv-x="1076" 
d="M601 705l160 -649l182 649h86l-200 -705h-134l-157 618l-156 -618h-135l-201 705h87l182 -649l164 649h122zM378 919h91l110 -144h-87z" />
    <glyph glyph-name="wgrave" unicode="&#x1e81;" horiz-adv-x="879" 
d="M318 0h-104l-171 505h80l144 -430l127 430h89l131 -430l142 430h80l-172 -505h-104l-121 416zM272 729l87 1l123 -165h-79z" />
    <glyph glyph-name="Wacute" unicode="&#x1e82;" horiz-adv-x="1076" 
d="M601 705l160 -649l182 649h86l-200 -705h-134l-157 618l-156 -618h-135l-201 705h87l182 -649l164 649h122zM597 919h90l-114 -144h-87z" />
    <glyph glyph-name="wacute" unicode="&#x1e83;" horiz-adv-x="879" 
d="M318 0h-104l-171 505h80l144 -430l127 430h89l131 -430l142 430h80l-172 -505h-104l-121 416zM517 729h87l-131 -164h-80z" />
    <glyph glyph-name="Wdieresis" unicode="&#x1e84;" horiz-adv-x="1076" 
d="M601 705l160 -649l182 649h86l-200 -705h-134l-157 618l-156 -618h-135l-201 705h87l182 -649l164 649h122zM471 785q-23 0 -37.5 14.5t-14.5 36.5t14.5 36.5t37.5 14.5t37.5 -14.5t14.5 -36.5t-14.5 -36.5t-37.5 -14.5zM604 785q-23 0 -37.5 14.5t-14.5 36.5t14.5 36.5
t37.5 14.5t37.5 -14t14.5 -37t-14.5 -37t-37.5 -14z" />
    <glyph glyph-name="wdieresis" unicode="&#x1e85;" horiz-adv-x="879" 
d="M318 0h-104l-171 505h80l144 -430l127 430h89l131 -430l142 430h80l-172 -505h-104l-121 416zM320 582q-23 0 -37.5 14t-14.5 37t14.5 37t37.5 14t37.5 -14.5t14.5 -36.5t-14.5 -36.5t-37.5 -14.5zM559 582q-23 0 -37.5 14t-14.5 37t14.5 37t37.5 14t37.5 -14.5
t14.5 -36.5t-14.5 -36.5t-37.5 -14.5z" />
    <glyph glyph-name="Germandbls" unicode="&#x1e9e;" horiz-adv-x="684" 
d="M168 472v-472h-83v480q0 105 68 173.5t174 68.5q97 0 161.5 -54.5t64.5 -136.5q0 -61 -32.5 -103.5t-84.5 -50.5q79 -10 128.5 -65.5t48.5 -135.5q0 -87 -60.5 -144t-151.5 -57q-77 0 -162 46l25 70q69 -43 132 -43q60 0 97 37.5t37 97.5q0 72 -45.5 114.5t-131.5 42.5
h-42v70h43q50 0 82.5 32t32.5 83q0 53 -40.5 88t-103.5 35q-70 0 -113.5 -48t-43.5 -128z" />
    <glyph glyph-name="Ygrave" unicode="&#x1ef2;" horiz-adv-x="647" 
d="M282 0v262l-253 443h92l203 -363l200 363h94l-252 -443v-262h-84zM166 919h91l110 -144h-87z" />
    <glyph glyph-name="ygrave" unicode="&#x1ef3;" horiz-adv-x="560" 
d="M60 -208v67q40 -14 67 -14q15 0 28 4t24 14.5t18.5 18t17 27t13.5 28t14 33t13 31.5l-227 504h85l180 -410l157 410h82l-202 -512q-17 -44 -27.5 -67.5t-29 -57t-35.5 -50t-43 -29t-57 -12.5q-40 0 -78 15zM115 729l87 1l124 -165h-80z" />
    <glyph glyph-name="endash" unicode="&#x2013;" horiz-adv-x="667" 
d="M619 347v-70h-570v70h570z" />
    <glyph glyph-name="emdash" unicode="&#x2014;" horiz-adv-x="827" 
d="M29 347h770v-70h-770v70z" />
    <glyph glyph-name="quoteleft" unicode="&#x2018;" horiz-adv-x="211" 
d="M109 613q23 0 36.5 -14t13.5 -37q0 -22 -14.5 -36t-36.5 -14q-26 0 -41.5 19.5t-15.5 50.5q0 47 20.5 90t51.5 63l37 -27q-22 -15 -36.5 -42t-14.5 -53z" />
    <glyph glyph-name="quoteright" unicode="&#x2019;" horiz-adv-x="211" 
d="M102 621q-22 0 -36 14.5t-14 37.5q0 22 14.5 36t36.5 14q26 0 41.5 -19t15.5 -51q0 -47 -20.5 -90t-51.5 -63l-37 27q22 15 36.5 41.5t14.5 52.5z" />
    <glyph glyph-name="quotesinglbase" unicode="&#x201a;" horiz-adv-x="211" 
d="M102 -12q-22 0 -36 14t-14 37q0 22 14.5 36t36.5 14q26 0 41.5 -19t15.5 -51q0 -46 -20 -89t-52 -64l-37 27q23 16 37 42.5t14 52.5z" />
    <glyph glyph-name="quotedblleft" unicode="&#x201c;" horiz-adv-x="374" 
d="M161 562q0 -22 -14.5 -36t-36.5 -14q-26 0 -41.5 19.5t-15.5 50.5q0 47 20.5 90t51.5 63l38 -27q-22 -15 -36.5 -42t-14.5 -53q22 0 35.5 -14t13.5 -37zM320 562q0 -22 -14.5 -36t-37.5 -14q-26 0 -41.5 19.5t-15.5 50.5q0 47 20.5 90t52.5 63l37 -27q-22 -15 -36.5 -42
t-14.5 -53q22 0 36 -14t14 -37z" />
    <glyph glyph-name="quotedblright" unicode="&#x201d;" horiz-adv-x="371" 
d="M54 674q0 22 14.5 36.5t37.5 14.5q26 0 41.5 -19.5t15.5 -50.5q0 -47 -20.5 -90t-52.5 -63l-37 27q22 15 36.5 41.5t14.5 52.5q-22 0 -36 14.5t-14 36.5zM212 674q0 22 14.5 36.5t37.5 14.5q26 0 41.5 -19.5t15.5 -50.5q0 -47 -20.5 -90t-52.5 -63l-37 27
q22 15 36.5 41.5t14.5 52.5q-22 0 -36 14.5t-14 36.5z" />
    <glyph glyph-name="quotedblbase" unicode="&#x201e;" horiz-adv-x="371" 
d="M54 40q0 22 14.5 36t36.5 14q26 0 41.5 -19.5t15.5 -50.5q0 -47 -20.5 -90t-51.5 -63l-38 27q22 15 37 41.5t15 52.5q-22 0 -36 14.5t-14 37.5zM212 40q0 22 14.5 36t36.5 14q26 0 41.5 -19.5t15.5 -50.5q0 -47 -20.5 -90t-51.5 -63l-37 27q22 15 36.5 41.5t14.5 52.5
q-22 0 -36 14.5t-14 37.5z" />
    <glyph glyph-name="bullet" unicode="&#x2022;" horiz-adv-x="224" 
d="M112 250q-27 0 -44 17t-17 43t17 43t44 17t44.5 -17t17.5 -43t-17.5 -43t-44.5 -17z" />
    <glyph glyph-name="ellipsis" unicode="&#x2026;" horiz-adv-x="538" 
d="M103 -12q-23 0 -37.5 14.5t-14.5 37.5q0 22 14.5 36.5t37.5 14.5q22 0 37 -14.5t15 -36.5q0 -23 -14.5 -37.5t-37.5 -14.5zM269 -12q-23 0 -37.5 14.5t-14.5 37.5q0 22 14.5 36.5t37.5 14.5q22 0 37 -14.5t15 -36.5q0 -23 -14.5 -37.5t-37.5 -14.5zM435 -12
q-23 0 -37.5 14.5t-14.5 37.5q0 22 14.5 36.5t37.5 14.5q22 0 37 -14.5t15 -36.5q0 -23 -14.5 -37.5t-37.5 -14.5z" />
    <glyph glyph-name="perthousand" unicode="&#x2030;" horiz-adv-x="1482" 
d="M563 192q0 89 56 145t145 56t145.5 -56t56.5 -145q0 -90 -56.5 -146t-145.5 -56t-145 56t-56 146zM888 192q0 55 -34.5 89t-89.5 34t-89.5 -34t-34.5 -89t34.5 -89t89.5 -34t89.5 34t34.5 89zM1027 191q0 90 56.5 146t145.5 56t145.5 -56t56.5 -146q0 -89 -56.5 -145
t-145.5 -56t-145.5 56t-56.5 145zM1352 192q0 54 -34 88.5t-89 34.5t-89.5 -34.5t-34.5 -88.5q0 -55 34 -89t90 -34q55 0 89 34t34 89zM51 543q0 89 56.5 145.5t145.5 56.5t145.5 -56.5t56.5 -145.5t-56.5 -145t-145.5 -56q-90 0 -146 56t-56 145zM376 543q0 55 -34 89
t-89 34q-56 0 -90.5 -34t-34.5 -89t34.5 -89t90.5 -34q55 0 89 34t34 89zM711 735h93l-498 -735h-93z" />
    <glyph glyph-name="guilsinglleft" unicode="&#x2039;" horiz-adv-x="376" 
d="M326 505l-204 -253l204 -252h-92l-201 252l201 253h92z" />
    <glyph glyph-name="guilsinglright" unicode="&#x203a;" horiz-adv-x="376" 
d="M344 252l-201 -252h-92l203 252l-203 253h91z" />
    <glyph glyph-name="lira" unicode="&#x20a4;" 
d="M353 662q-52 0 -83 -39.5t-30 -101.5v-122h251v-54h-251q-3 -57 -3 -61h254v-54h-262q-19 -132 -101 -170h424v-60h-501v85q84 13 101 147h-93l-1 52h101q2 19 2 61h-103l1 54h102v122q0 92 51 150t138 58q86 0 141 -58.5t63 -151.5l-74 -12q-6 70 -39 112.5t-88 42.5z
" />
    <glyph glyph-name="Euro" unicode="&#x20ac;" horiz-adv-x="912" 
d="M518 49q89 0 160 52.5t92 133.5l80 -15q-26 -106 -119.5 -175.5t-212.5 -69.5q-135 0 -231.5 78t-125.5 206h-110v57h102q-1 12 -1 36q0 29 2 43h-103v56h112q30 126 126 202.5t229 76.5q119 0 213 -73t120 -184l-82 -10q-20 83 -91 138t-160 55q-98 0 -170 -56t-99 -149
h305v-56h-317q-2 -28 -2 -43q0 -12 2 -36h317v-57h-307q27 -95 99.5 -152.5t171.5 -57.5z" />
    <glyph glyph-name="trademark" unicode="&#x2122;" horiz-adv-x="1102" 
d="M169 150v495h-150v60h369v-60h-152v-495h-67zM953 609l-185 -459h-53l-185 459v-459h-64v555h96l179 -459l178 459h98v-555h-64v459z" />
    <glyph glyph-name="minus" unicode="&#x2212;" horiz-adv-x="512" 
d="M51 347h410v-70h-410v70z" />
    <glyph glyph-name="approxequal" unicode="&#x2248;" horiz-adv-x="360" 
 />
    <glyph glyph-name="notequal" unicode="&#x2260;" horiz-adv-x="572" 
d="M51 223h171l67 179h-238v70h264l62 164h70l-62 -164h136v-70h-162l-67 -179h229v-70h-255l-72 -193h-71l73 193h-145v70z" />
    <glyph glyph-name="lessequal" unicode="&#x2264;" horiz-adv-x="449" 
d="M396 69v-69h-352l1 69h351zM44 358l352 162v-72l-283 -129l283 -130v-70l-352 162v77z" />
    <glyph glyph-name="greaterequal" unicode="&#x2265;" horiz-adv-x="449" 
d="M53 69h352v-69h-352v69zM53 189l283 130l-283 129v72l352 -162v-77l-352 -162v70z" />
    <glyph glyph-name="commaaccent" unicode="&#xf6c3;" horiz-adv-x="197" 
d="M94 -24q-19 0 -31 12.5t-12 32.5t12 32.5t32 12.5q22 0 36.5 -17t14.5 -43q0 -37 -17.5 -73t-45.5 -57l-27 22q38 35 38 78z" />
    <glyph glyph-name="acute.case" horiz-adv-x="302" 
d="M252 735l-114 -145h-87l110 145h91z" />
    <glyph glyph-name="breve.case" horiz-adv-x="364" 
d="M254 735h60q0 -64 -34 -103.5t-97 -39.5t-97.5 39.5t-34.5 103.5h60q0 -38 20 -62.5t52 -24.5q31 0 51 24.5t20 62.5z" />
    <glyph glyph-name="caron.case" horiz-adv-x="431" 
d="M305 735h76l-124 -145h-83l-123 145h77l88 -102z" />
    <glyph glyph-name="circumflex.case" horiz-adv-x="431" 
d="M51 590l123 145h83l124 -145h-76l-89 102l-88 -102h-77z" />
    <glyph glyph-name="dieresis.case" horiz-adv-x="424" 
d="M103 559q-23 0 -37.5 14t-14.5 37q0 22 14.5 36t37.5 14t37.5 -14t14.5 -36q0 -23 -14.5 -37t-37.5 -14zM322 559q-23 0 -37.5 14t-14.5 37q0 22 14.5 36t37.5 14t37.5 -14t14.5 -36q0 -23 -14.5 -37t-37.5 -14z" />
    <glyph glyph-name="dotaccent.case" horiz-adv-x="206" 
d="M103 566q-23 0 -37.5 13.5t-14.5 35.5q1 22 15 35t37 13t37.5 -13t14.5 -35t-14.5 -35.5t-37.5 -13.5z" />
    <glyph glyph-name="grave.case" horiz-adv-x="302" 
d="M51 737h90l111 -145h-87z" />
    <glyph glyph-name="hungarumlaut.case" horiz-adv-x="448" 
d="M156 735h80l-117 -145h-68zM317 735h80l-122 -145h-68z" />
    <glyph glyph-name="ijacute" horiz-adv-x="480" 
d="M85 505h77v-505h-77v505zM326 -77v582h77v-584q0 -63 -37 -102t-96 -39q-48 0 -85 13v59q33 -9 66 -9q34 0 54.5 22t20.5 58zM200 735l87 -1l-130 -164h-80zM438 735l86 -1l-130 -164h-80z" />
    <glyph glyph-name="ring.case" horiz-adv-x="288" 
d="M145 540q-41 0 -67.5 25.5t-26.5 63.5q0 39 26 64t67 25t67 -25t26 -64t-26 -64t-66 -25zM145 671q-19 0 -31 -11.5t-12 -29.5q0 -19 12 -31t31 -12q18 0 30 12t12 31q0 18 -11.5 29.5t-30.5 11.5z" />
    <glyph glyph-name="tilde.case" horiz-adv-x="455" 
d="M92 605l-41 30q13 30 42 48.5t65 18.5q38 0 78 -28.5t62 -28.5q43 0 65 46l42 -30q-14 -31 -44 -49.5t-68 -18.5q-32 0 -56 14.5t-43 28.5t-37 14q-37 0 -65 -45z" />
    </font>
</defs>
</svg>
